<svg width="133" height="26" viewBox="0 0 133 26" fill="none" xmlns="http://www.w3.org/2000/svg">
<g clip-path="url(#clip0_133_904)">
<mask id="mask0_133_904" style="mask-type:luminance" maskUnits="userSpaceOnUse" x="0" y="0" width="133" height="26">
<path d="M0.66571 0.341385H132.241V25.0453H0.66571V0.341385Z" fill="white"/>
</mask>
<g mask="url(#mask0_133_904)">
<path d="M13.7328 0.343262C16.4311 2.86557 19.1378 5.38318 21.8297 7.91112C20.8389 8.83767 19.85 9.76735 18.8538 10.6902C17.1444 9.09941 15.4443 7.49991 13.7338 5.90978C12.0233 7.49897 10.3229 9.09847 8.61278 10.688C7.61994 9.76183 6.62788 8.83496 5.6366 7.90737C8.26098 5.45042 10.8927 2.99909 13.5168 0.542144L13.7328 0.343262ZM111.578 6.13087C112.988 6.00203 114.5 6.14338 115.809 6.67185C116.642 7.0027 117.355 7.51304 117.999 8.10156C117.347 8.80328 116.699 9.50875 116.042 10.2067C115.365 9.6454 114.541 9.10035 113.658 8.87832C112.788 8.66756 111.811 8.68007 110.974 9.00216C109.608 9.51437 108.705 10.7305 108.48 12.0695C108.215 13.6287 108.785 15.3148 110.179 16.2623C111.094 16.8921 112.222 17.046 113.326 16.8796C114.393 16.7586 115.358 16.075 116.133 15.4192C116.805 16.0156 117.444 16.6469 118.097 17.2602C117.791 17.5634 117.467 17.85 117.126 18.1185C116.201 18.8522 115.059 19.3222 113.861 19.4904C112.512 19.674 111.121 19.6317 109.833 19.1855C108.309 18.6686 106.991 17.6657 106.182 16.3471C104.737 14.0227 104.886 10.9294 106.611 8.76575C107.771 7.27413 109.621 6.31349 111.578 6.13087ZM47.274 6.31099C48.299 6.30599 49.3226 6.3088 50.3475 6.30974C50.3505 10.6623 50.3495 15.0155 50.3475 19.3684C49.3226 19.3691 48.298 19.3722 47.274 19.3672C47.274 15.0146 47.273 10.6636 47.274 6.31099ZM55.0081 6.3088C55.9477 6.30411 56.8874 6.31349 57.8267 6.30317C60.0254 8.96838 62.2007 11.6714 64.3911 14.346C64.3941 11.6667 64.389 8.98777 64.3931 6.3088C65.4036 6.30567 66.4152 6.30786 67.4254 6.30786C67.4288 10.6614 67.4288 15.0137 67.4254 19.3672C66.555 19.3681 65.6842 19.3672 64.8137 19.3672C62.5532 16.6047 60.303 13.8335 58.0428 11.0698C58.0394 13.8354 58.0448 16.601 58.0404 19.3663C57.0302 19.3694 56.0186 19.3672 55.0081 19.3663C55.0061 15.0137 55.0061 10.6614 55.0081 6.3088ZM88.8827 6.3088C89.8274 6.30692 90.772 6.30692 91.7167 6.3088C93.9021 8.98558 96.0844 11.6677 98.2657 14.3485C98.2717 11.6686 98.2633 8.98777 98.2697 6.30786C99.2799 6.30786 100.29 6.30599 101.302 6.3088C101.305 10.6614 101.305 15.0137 101.302 19.3663C100.425 19.3634 99.5464 19.3788 98.6706 19.3578C96.4318 16.5894 94.1722 13.8323 91.9201 11.0726C91.915 13.8373 91.9201 16.6019 91.918 19.3663C90.9065 19.3694 89.8952 19.3681 88.8827 19.3663V6.3088ZM121.722 6.30974C125.228 6.30661 128.734 6.3088 132.241 6.3088V8.86582C129.746 8.86675 127.251 8.86269 124.756 8.86769C124.755 9.74922 124.754 10.6304 124.756 11.512C126.952 11.5179 129.148 11.512 131.343 11.5151C131.346 12.3666 131.346 13.2181 131.343 14.0699C129.148 14.073 126.952 14.068 124.756 14.073C124.754 14.9849 124.755 15.8983 124.756 16.8105C127.251 16.8161 129.746 16.8114 132.241 16.8133V19.3691C128.734 19.3691 125.228 19.3713 121.722 19.3681C121.72 15.0159 121.719 10.6623 121.722 6.30974Z" fill="white"/>
<path fill-rule="evenodd" clip-rule="evenodd" d="M78.7476 6.21842C78.0797 6.21363 77.4118 6.21582 76.7439 6.22499C76.6723 6.34601 76.6155 6.47515 76.559 6.60336C76.5372 6.65309 76.5155 6.70218 76.4931 6.75096C75.7079 8.47711 74.9214 10.203 74.1349 11.9288C73.0056 14.4076 71.876 16.8865 70.7501 19.3662C71.1299 19.3631 71.5105 19.3653 71.8914 19.3675C72.5622 19.3712 73.2333 19.375 73.9015 19.35C74.1592 18.7293 74.425 18.1115 74.6987 17.4969C74.8532 17.1451 75.008 16.7936 75.1598 16.4412C77.1301 16.4374 79.1008 16.4365 81.0704 16.4421C81.2069 16.7562 81.3442 17.0701 81.482 17.3837C81.77 18.0404 82.0579 18.6974 82.3368 19.3578C83.0357 19.3722 83.7352 19.3697 84.4348 19.3672C84.8103 19.3662 85.1859 19.365 85.5614 19.3662C84.5027 17.0372 83.4413 14.7085 82.3802 12.3794C81.4449 10.3265 80.5096 8.27354 79.5756 6.2203C79.3001 6.2203 79.0238 6.21936 78.7476 6.21842ZM78.8122 11.2577C78.5788 10.7261 78.3457 10.1951 78.1129 9.66353C78.0698 9.76547 78.0256 9.86835 77.9815 9.97123C77.7565 10.4856 77.5311 10.9994 77.3054 11.5135C76.9566 12.3084 76.6075 13.1033 76.2617 13.8995C77.4973 13.9026 78.7329 13.9026 79.9685 13.8995C79.5847 13.0183 79.1992 12.1377 78.8122 11.2577Z" fill="white"/>
<path d="M13.7318 9.83739C14.7504 10.7652 15.7476 11.7149 16.7538 12.6549C15.7506 13.599 14.743 14.5399 13.7338 15.478C12.7243 14.539 11.714 13.5999 10.7108 12.6549C11.715 11.7136 12.7212 10.7727 13.7318 9.83739ZM23.9327 9.88273C24.9299 10.7958 25.9218 11.7311 26.9089 12.654C25.9231 13.5864 24.9279 14.5111 23.9351 15.4377C22.9419 14.5111 21.9481 13.5864 20.9569 12.6577C21.9467 11.733 22.9336 10.7971 23.9327 9.88273ZM3.53053 9.87397C4.52371 10.7996 5.51855 11.7243 6.50738 12.653C5.52156 13.5864 4.52337 14.508 3.53154 15.4349C2.57548 14.5436 1.61976 13.6518 0.66571 12.7587V12.5511C1.61876 11.6589 2.57648 10.7671 3.53053 9.87429V9.87397Z" fill="white"/>
<path fill-rule="evenodd" clip-rule="evenodd" d="M31.5561 6.30786H33.6632C35.068 6.30723 36.4725 6.30723 37.8767 6.30786C38.8882 6.31098 39.8741 6.40792 40.7826 6.85291C41.638 7.27506 42.3102 7.9871 42.5352 8.87801C42.7121 9.60975 42.672 10.4422 42.3122 11.1217C41.9945 11.7427 41.4571 12.204 40.8228 12.5376C41.6113 12.8366 42.3894 13.2547 42.892 13.9151C43.406 14.6071 43.4809 15.5647 43.3679 16.3761C43.2415 17.263 42.7038 18.0416 41.9022 18.5263C40.8679 19.1627 39.5029 19.355 38.288 19.3662C36.9417 19.3681 35.5954 19.3678 34.2491 19.3675C33.3515 19.3672 32.4537 19.3669 31.5561 19.3675C31.5538 15.0137 31.5538 10.6614 31.5561 6.30786ZM35.7997 8.82547C36.3551 8.82547 36.9106 8.82516 37.4657 8.82641C37.9961 8.83298 38.5903 8.86769 39.0454 9.151C39.8155 9.59036 39.7938 10.8853 38.9789 11.2737C38.4669 11.5379 37.8345 11.5879 37.26 11.5879H36.0987C35.5827 11.5879 35.0667 11.5879 34.5504 11.587C34.5484 10.6661 34.5484 9.74609 34.5504 8.82516C34.9667 8.82578 35.383 8.82547 35.7997 8.82547ZM38.0823 13.9795C36.9052 13.9764 35.7285 13.9777 34.5514 13.9795C34.5484 14.9355 34.5494 15.8914 34.5504 16.8474V16.8489C35.7275 16.8499 36.9052 16.8499 38.0823 16.8499C38.6488 16.8499 39.2675 16.7989 39.766 16.5247C40.571 16.1047 40.5863 14.8417 39.8423 14.361C39.3477 14.0217 38.6725 13.9873 38.0823 13.9795Z" fill="white"/>
<path d="M8.61176 14.6265C10.3272 16.2076 12.0193 17.8168 13.7338 19.3991C15.4453 17.8111 17.1434 16.2095 18.8538 14.6209C19.85 15.5424 20.8378 16.4731 21.8317 17.3977C19.1361 19.9243 16.4361 22.4469 13.7318 24.9653C11.0322 22.4417 8.32283 19.926 5.63257 17.3943C6.63076 16.4762 7.61457 15.5443 8.61176 14.6265Z" fill="white"/>
</g>
</g>
<defs>
<clipPath id="clip0_133_904">
<rect width="131.754" height="24.704" fill="white" transform="translate(0.66571 0.341385)"/>
</clipPath>
</defs>
</svg>
