<svg width="133" height="17" viewBox="0 0 133 17" fill="none" xmlns="http://www.w3.org/2000/svg">
<path d="M31.9329 15.347V2.30108H36.3687C37.5418 2.22695 38.7149 2.52345 39.7047 3.22764C40.5112 3.8577 40.9145 4.85838 40.8411 5.89613C40.8411 6.45207 40.6578 7.04506 40.3646 7.48981C39.998 8.00869 39.5214 8.37931 38.9715 8.60169C39.6314 8.74994 40.1813 9.12056 40.5845 9.6765C40.9878 10.2324 41.1711 10.9366 41.1711 11.6037C41.2444 12.6786 40.8045 13.7163 39.998 14.4205C39.0448 15.1247 37.8351 15.4953 36.6619 15.4212L31.9329 15.347ZM34.2424 7.74925H36.442C37.0285 7.78631 37.6151 7.601 38.0917 7.26744C38.4949 6.93388 38.7149 6.415 38.6782 5.89613C38.7149 5.37726 38.5316 4.85838 38.1283 4.48776C37.6518 4.1542 37.0285 4.00595 36.442 4.04301H34.2424V7.74925ZM34.2424 9.41706V13.531H36.7353C37.3218 13.568 37.945 13.3827 38.3849 13.0121C38.7882 12.6415 39.0082 12.0856 38.9715 11.5296C39.0448 10.9366 38.8615 10.3807 38.4583 9.973C38.055 9.56531 37.4685 9.38 36.9186 9.45412H34.2424V9.41706Z" fill="white"/>
<path d="M43.2242 3.15357C43.2242 2.85707 43.3342 2.52351 43.5542 2.30114C44.0674 1.85639 44.8373 1.85639 45.3505 2.30114C45.7904 2.78295 45.7904 3.5242 45.3505 3.96895C44.8373 4.41369 44.0674 4.41369 43.5542 3.96895C43.3342 3.78363 43.2242 3.48713 43.2242 3.15357ZM45.5338 15.4583H43.3709V5.71088H45.5338V15.4583Z" fill="white"/>
<path fill-rule="evenodd" clip-rule="evenodd" d="M50.5927 3.33885V5.67378H52.3157V7.26747H50.5927V12.7156C50.556 13.0121 50.666 13.2716 50.8126 13.494C51.0326 13.6793 51.2892 13.7905 51.5825 13.7534C51.8391 13.7905 52.0957 13.7905 52.3523 13.7534V15.3471C51.8758 15.4953 51.3992 15.5694 50.9226 15.5694C49.2729 15.5694 48.4298 14.6429 48.4298 12.7898V7.30453H46.8534V5.71085H48.4298V3.37591L50.5927 3.33885Z" fill="white"/>
<path fill-rule="evenodd" clip-rule="evenodd" d="M57.9246 13.8646C58.4012 13.9017 58.8778 13.7164 59.281 13.3828C59.6476 13.0863 59.8309 12.6415 59.8676 12.1968H61.9205C61.8839 12.7898 61.7006 13.3828 61.334 13.9017C60.9674 14.4205 60.4908 14.8653 59.9042 15.1618C59.3177 15.4583 58.6212 15.6065 57.9613 15.6065C56.7515 15.6436 55.5784 15.1989 54.7719 14.3094C53.9654 13.3087 53.5255 12.0115 53.5988 10.6772V10.4549C53.5255 9.15768 53.9654 7.89756 54.7719 6.89687C55.6151 5.93325 56.8248 5.45144 58.1079 5.52556C59.1344 5.4885 60.1242 5.85912 60.894 6.56331C61.6272 7.23043 62.0671 8.19406 62.0305 9.2318H59.9776C59.9776 8.71293 59.7576 8.23112 59.4277 7.86049C59.0611 7.48987 58.5845 7.2675 58.0713 7.30456C57.448 7.2675 56.8248 7.56399 56.4582 8.08287C56.0183 8.78705 55.835 9.60243 55.8717 10.4178V10.7514C55.835 11.5667 56.0183 12.3821 56.4216 13.0863C56.7515 13.531 57.3014 13.8275 57.9246 13.8646Z" fill="white"/>
<path d="M63.0935 10.4919C63.0935 9.60243 63.2768 8.71293 63.6434 7.89756C63.9733 7.15631 64.5232 6.56331 65.2198 6.15562C65.9163 5.74794 66.7228 5.52556 67.5293 5.52556C68.7024 5.4885 69.8755 5.93325 70.682 6.82275C71.5252 7.74931 72.0018 8.9353 72.0018 10.1954V10.7143C72.0018 11.6038 71.8185 12.4933 71.4519 13.2716C71.122 14.0129 70.5721 14.6429 69.9122 15.0506C69.2157 15.4583 68.4092 15.6807 67.6026 15.6436C66.3562 15.7177 65.1831 15.1989 64.3399 14.2723C63.4968 13.2716 63.0569 12.0115 63.0935 10.7143V10.4919ZM65.2564 10.6772C65.2198 11.4926 65.4397 12.308 65.843 13.0122C66.2462 13.5681 66.8695 13.8646 67.566 13.8646C68.2625 13.9017 68.8857 13.5681 69.289 13.0122C69.7656 12.2709 69.9855 11.3814 69.9122 10.4919C69.9489 9.67655 69.7289 8.86118 69.289 8.15699C68.8857 7.60106 68.2625 7.2675 67.566 7.30456C66.9061 7.30456 66.2829 7.60106 65.8796 8.15699C65.4397 8.89824 65.2198 9.78774 65.2564 10.6772Z" fill="white"/>
<path d="M73.9082 3.15354C73.9082 2.85704 74.0181 2.56054 74.2014 2.30111C74.4581 2.07873 74.788 1.96754 75.1179 1.96754C75.4479 1.93048 75.7778 2.07873 76.0344 2.30111C76.4743 2.78292 76.4743 3.52417 76.0344 3.96891C75.7778 4.19129 75.4479 4.30248 75.1179 4.30248C74.788 4.30248 74.4581 4.19129 74.2014 3.96891C74.0181 3.7836 73.9082 3.45004 73.9082 3.15354ZM76.2177 15.4583H74.0548V5.71085H76.2177V15.4583Z" fill="white"/>
<path fill-rule="evenodd" clip-rule="evenodd" d="M80.5801 5.71088V6.82275C81.2767 5.97032 82.3398 5.4885 83.4396 5.52557C85.4559 5.52557 86.4457 6.6745 86.519 9.00943V15.3471H84.3194V9.12062C84.3561 8.63881 84.2094 8.157 83.9162 7.74931C83.5862 7.41575 83.1096 7.2675 82.6331 7.30456C81.7899 7.2675 81.02 7.74931 80.6535 8.49056V15.4954H78.4905V5.71088H80.5801Z" fill="white"/>
<path fill-rule="evenodd" clip-rule="evenodd" d="M103.346 11.1961C103.309 12.4562 102.759 13.6422 101.806 14.4575C100.816 15.2729 99.5333 15.6806 98.2502 15.6065C97.297 15.6435 96.3439 15.3841 95.5007 14.8652C94.6942 14.3834 94.071 13.6422 93.7044 12.7527C93.2278 11.752 93.0079 10.6772 93.0445 9.56531V8.34225C93.0079 7.23038 93.2278 6.11851 93.7044 5.08076C94.1076 4.19126 94.7309 3.41295 95.574 2.89408C96.4172 2.3752 97.3703 2.11577 98.3601 2.15283C99.6066 2.0787 100.853 2.48639 101.806 3.30176C102.723 4.1542 103.273 5.37726 103.346 6.63738H101.036C101 5.89613 100.706 5.15488 100.23 4.59895C99.6799 4.1542 98.9834 3.93182 98.2868 3.96889C97.3703 3.89476 96.4905 4.30245 95.9773 5.08076C95.4274 6.08144 95.1708 7.23038 95.3174 8.37931V9.52825C95.2441 10.6772 95.5007 11.7891 96.0506 12.7897C96.5638 13.5681 97.4437 13.9757 98.3601 13.9016C99.0567 13.9387 99.7899 13.7534 100.34 13.3086C100.853 12.7527 101.183 12.0114 101.183 11.2702L103.346 11.1961Z" fill="white"/>
<path d="M110.898 15.3471C110.788 15.0506 110.678 14.7541 110.641 14.4205C109.981 15.1247 109.065 15.4953 108.112 15.4953C107.268 15.5324 106.425 15.1988 105.802 14.6429C105.215 14.124 104.849 13.3828 104.886 12.6044C104.849 11.6779 105.289 10.8254 106.022 10.2695C107.012 9.63945 108.148 9.34295 109.285 9.41708H110.604V8.78701C110.641 8.34226 110.494 7.89752 110.201 7.56395C109.871 7.23039 109.395 7.04508 108.918 7.08214C108.478 7.08214 108.038 7.19333 107.708 7.48983C107.415 7.7122 107.232 8.04577 107.232 8.41639H105.069C105.069 7.86045 105.252 7.34158 105.582 6.93389C105.949 6.45208 106.462 6.08146 107.012 5.82202C107.635 5.56258 108.332 5.41433 109.028 5.41433C110.018 5.37727 110.971 5.67377 111.741 6.26677C112.401 6.85977 112.767 7.7122 112.767 8.6017V12.9751C112.731 13.6793 112.841 14.4205 113.134 15.0876V15.3471H110.898ZM108.625 13.7904C109.028 13.7904 109.468 13.6793 109.835 13.4939C110.201 13.3086 110.494 13.0121 110.678 12.6415V10.7884H109.541C108.918 10.7513 108.258 10.8996 107.708 11.2331C107.305 11.4926 107.085 11.9373 107.122 12.4191C107.122 12.7898 107.268 13.1604 107.525 13.4198C107.818 13.7163 108.185 13.8646 108.551 13.9016L108.625 13.7904Z" fill="white"/>
<path fill-rule="evenodd" clip-rule="evenodd" d="M120.356 12.7898C120.392 12.4191 120.209 12.0856 119.879 11.9003C119.403 11.6408 118.853 11.4555 118.303 11.3814C117.68 11.2332 117.056 11.0478 116.47 10.7884C115.48 10.4548 114.82 9.52828 114.857 8.45347C114.857 7.60103 115.26 6.82272 115.92 6.34091C116.69 5.74791 117.606 5.45141 118.56 5.48848C119.549 5.45141 120.539 5.74791 121.346 6.34091C122.079 6.89685 122.482 7.74928 122.445 8.67584H120.356C120.356 8.26816 120.209 7.89753 119.879 7.6381C119.549 7.3416 119.073 7.19335 118.633 7.23041C118.23 7.23041 117.826 7.3416 117.496 7.56397C117.203 7.74928 117.056 8.08285 117.056 8.45347C117.056 8.74997 117.203 9.04647 117.46 9.23178C117.973 9.49122 118.56 9.71359 119.146 9.82478C119.843 9.93597 120.502 10.1954 121.162 10.4919C121.602 10.7143 121.969 11.0108 122.225 11.4185C122.482 11.8261 122.592 12.2709 122.592 12.7527C122.592 13.6051 122.189 14.3835 121.492 14.8653C120.686 15.4583 119.696 15.7548 118.669 15.6806C117.936 15.6806 117.203 15.5695 116.543 15.273C115.957 15.0135 115.48 14.6058 115.114 14.087C114.784 13.6051 114.6 13.0492 114.6 12.4562H116.69C116.69 12.901 116.91 13.3457 117.276 13.6422C118.12 14.124 119.146 14.124 119.989 13.6422C120.246 13.4198 120.356 13.0863 120.356 12.7898Z" fill="white"/>
<path fill-rule="evenodd" clip-rule="evenodd" d="M126.698 6.78565C127.358 5.97028 128.348 5.52553 129.374 5.56259C131.427 5.56259 132.454 6.74859 132.527 9.12058V15.3841H130.364V9.08352C130.437 8.56464 130.254 8.04577 129.924 7.67515C129.558 7.37865 129.118 7.2304 128.641 7.26746C127.835 7.2304 127.065 7.67515 126.698 8.41639V15.4212H124.535V1.67104H126.698V6.78565Z" fill="white"/>
<path fill-rule="evenodd" clip-rule="evenodd" d="M20.1286 16.8666C22.3282 15.31 23.8312 12.901 24.3078 10.2325C24.7844 7.5269 24.1612 4.78429 22.6215 2.56054C21.9249 1.55986 21.0818 0.707421 20.1286 0.00323486H27.7905V16.8666H20.1286Z" fill="white"/>
<path fill-rule="evenodd" clip-rule="evenodd" d="M4.10833 8.34228C4.07167 11.752 5.68469 14.9023 8.43416 16.8666H0.772308V0.00323486H8.43416C7.09827 0.934357 6.00644 2.18001 5.25282 3.63278C4.4992 5.08555 4.10642 6.70184 4.10833 8.34228Z" fill="white"/>
<path fill-rule="evenodd" clip-rule="evenodd" d="M22.5848 8.4164C22.5848 13.0629 18.8591 16.8296 14.2631 16.8296C9.66717 16.8296 5.94141 13.0629 5.94141 8.4164C5.94141 3.76994 9.66717 0.00323486 14.2631 0.00323486C18.8591 0.00323486 22.5848 3.76994 22.5848 8.4164ZM17.6357 7.93458C17.8923 8.15696 18.1123 8.45346 18.1856 8.78702L18.2223 9.45414C18.3322 9.78771 18.3322 10.1213 18.2223 10.4548H18.0023C17.6724 10.9737 17.1225 11.3814 16.4993 11.4926H16.1327L16.5726 13.0121L15.5828 13.1604L15.2162 11.6779L14.483 11.8632L14.8496 13.2716L13.9331 13.4939L13.5298 12.0114L11.6969 12.4933V11.3814L12.3567 11.1961C12.43 11.159 12.5034 11.122 12.54 11.0478C12.5767 10.9737 12.5767 10.8996 12.54 10.8255L11.5136 6.82271C11.4769 6.67446 11.4036 6.60034 11.2936 6.52621C11.2203 6.45209 11.0736 6.45209 10.9637 6.48915L10.2305 6.67446L9.97385 5.71084L11.8068 5.22903L11.4036 3.70947L12.2834 3.74653L12.6867 5.26609L13.4199 5.08078L13.0166 3.56122L13.9331 3.33884L14.2997 4.82134H14.483C15.0329 4.67309 15.5828 4.71015 16.096 4.96959H16.5359C16.9025 5.41434 17.0491 5.97028 16.8659 6.52621C16.9392 6.82271 16.9392 7.15627 16.8659 7.45277H16.6826L16.4626 7.71221C16.7192 7.71221 17.0125 7.8234 17.2324 7.93458H17.6357ZM13.9697 5.78496L12.9799 6.0444L13.6031 7.41571L14.5563 7.15627C14.8862 7.11921 15.1429 6.9339 15.3261 6.67446C15.3628 6.52621 15.3628 6.3409 15.3261 6.19265C15.2528 6.00734 15.1795 5.89615 15.0329 5.78496H14.8862C14.593 5.67378 14.263 5.67378 13.9697 5.78496ZM16.4993 9.67652C16.5359 9.52827 16.5359 9.34296 16.4993 9.15764V8.78702H16.4626C16.4259 8.60171 16.2793 8.45346 16.1327 8.37933H15.876C15.5461 8.26815 15.1429 8.26815 14.8129 8.37933L13.6765 8.67583L14.153 10.6772L15.2895 10.2325C15.6561 10.1583 15.986 9.97302 16.206 9.67652H16.4993Z" fill="white"/>
</svg>
