<svg width="130" height="26" viewBox="0 0 130 26" fill="none" xmlns="http://www.w3.org/2000/svg">
<g clip-path="url(#clip0_133_879)">
<mask id="mask0_133_879" style="mask-type:luminance" maskUnits="userSpaceOnUse" x="0" y="0" width="130" height="25">
<path d="M0.772308 0.349747H129.782V24.7971H0.772308V0.349747Z" fill="white"/>
</mask>
<g mask="url(#mask0_133_879)">
<path d="M8.46036 12.4816C8.43156 12.9539 8.60275 13.4177 8.93632 13.771C9.26989 14.1243 9.73855 14.3383 10.2393 14.3659H10.3428C10.7116 14.3655 11.0722 14.2633 11.3802 14.0718C11.6881 13.8804 11.9298 13.6081 12.0756 13.2886C12.2213 12.9691 12.2647 12.6163 12.2003 12.2738C12.1359 11.9313 11.9666 11.6141 11.7133 11.3613C11.4599 11.1085 11.1337 10.9312 10.7747 10.8513C10.4158 10.7713 10.0399 10.7922 9.6934 10.9114C9.34691 11.0306 9.04502 11.2429 8.82497 11.5221C8.60492 11.8012 8.47635 12.135 8.45512 12.4822L8.46036 12.4816ZM1.41722 12.0298C1.33682 12.0248 1.25616 12.0349 1.17991 12.0595C1.10367 12.0841 1.03334 12.1226 0.973 12.173C0.912661 12.2234 0.863507 12.2845 0.828379 12.3529C0.793252 12.4213 0.772848 12.4956 0.768347 12.5715C0.763846 12.6473 0.775338 12.7233 0.802157 12.7949C0.828977 12.8666 0.870593 12.9325 0.924599 12.9889C0.978604 13.0453 1.04393 13.0911 1.11679 13.1235C1.18966 13.156 1.26862 13.1745 1.34912 13.1779C1.50959 13.1849 1.66649 13.1318 1.78571 13.0303C1.90493 12.9288 1.97684 12.7869 1.98581 12.6357C1.99479 12.4844 1.9401 12.3359 1.83363 12.2225C1.72716 12.109 1.57752 12.0398 1.41722 12.0298ZM8.34052 2.14393C8.4119 2.10935 8.47536 2.06186 8.52728 2.00416C8.57919 1.94646 8.61855 1.87968 8.6431 1.80764C8.66766 1.73559 8.67692 1.65969 8.67037 1.58427C8.66382 1.50885 8.64158 1.43538 8.60492 1.36807C8.56827 1.30075 8.51791 1.2409 8.45673 1.19194C8.39554 1.14298 8.32473 1.10586 8.24834 1.0827C8.17195 1.05955 8.09147 1.05081 8.01149 1.05699C7.93152 1.06317 7.85362 1.08414 7.78224 1.11871C7.63808 1.18853 7.52924 1.3095 7.47966 1.455C7.43007 1.6005 7.4438 1.75862 7.51784 1.89457C7.59187 2.03052 7.72014 2.13317 7.87442 2.17993C8.0287 2.2267 8.19636 2.21374 8.34052 2.14393ZM10.257 5.29522C10.3676 5.24259 10.4662 5.16992 10.547 5.08137C10.6278 4.99282 10.6894 4.89012 10.7281 4.77913C10.7669 4.66814 10.7821 4.55105 10.7728 4.43453C10.7636 4.318 10.7301 4.20434 10.6743 4.10002C10.6185 3.9957 10.5414 3.90276 10.4476 3.82653C10.3537 3.75029 10.2448 3.69224 10.1271 3.6557C10.0094 3.61915 9.88523 3.60482 9.76167 3.61353C9.63812 3.62224 9.51759 3.65381 9.40698 3.70645C9.18358 3.81276 9.0141 3.9984 8.93584 4.22254C8.85758 4.44669 8.87694 4.69097 8.98966 4.90166C9.10238 5.11234 9.29923 5.27217 9.5369 5.34598C9.77457 5.41979 10.0336 5.40153 10.257 5.29522ZM3.8075 7.463C3.89273 7.51685 3.98843 7.55426 4.08907 7.57305C4.18971 7.59184 4.2933 7.59165 4.39386 7.57249C4.49442 7.55333 4.58996 7.51558 4.67498 7.46142C4.75999 7.40725 4.83278 7.33775 4.88916 7.25691C4.94554 7.17608 4.98438 7.08551 5.00346 6.99045C5.02253 6.89538 5.02145 6.79769 5.00028 6.70302C4.97911 6.60835 4.93827 6.51856 4.88011 6.43886C4.82196 6.35915 4.74764 6.29109 4.66145 6.23861C4.48929 6.13378 4.28018 6.09733 4.07966 6.13721C3.87914 6.17709 3.70345 6.29007 3.59083 6.45154C3.47821 6.613 3.4378 6.80989 3.47838 6.99933C3.51896 7.18877 3.63725 7.35542 3.8075 7.463ZM4.95615 11.7056C4.70635 11.6923 4.46119 11.7732 4.27461 11.9304C4.08803 12.0876 3.9753 12.3082 3.96123 12.5438C3.94716 12.7794 4.0329 13.0106 4.19959 13.1866C4.36628 13.3625 4.60026 13.4688 4.85006 13.4821C4.97374 13.4887 5.09759 13.4722 5.21453 13.4336C5.33147 13.3951 5.43921 13.3352 5.53159 13.2573C5.62398 13.1795 5.69921 13.0853 5.75297 12.98C5.80674 12.8747 5.838 12.7605 5.84497 12.6439C5.85193 12.5272 5.83447 12.4104 5.79357 12.3001C5.75268 12.1899 5.68915 12.0883 5.60661 12.0011C5.52408 11.914 5.42415 11.8431 5.31254 11.7924C5.20094 11.7416 5.07983 11.7122 4.95615 11.7056ZM3.91064 17.6867C3.72667 17.7744 3.58716 17.9274 3.52281 18.1121C3.49094 18.2035 3.47849 18.3 3.48616 18.396C3.49382 18.492 3.52146 18.5856 3.56749 18.6715C3.61352 18.7574 3.67705 18.8339 3.75443 18.8967C3.83182 18.9594 3.92156 19.0072 4.01852 19.0373C4.21434 19.0979 4.42771 19.0828 4.61168 18.9951C4.79566 18.9075 4.93518 18.7545 4.99957 18.5699C5.06395 18.3852 5.04792 18.184 4.955 18.0105C4.86208 17.837 4.69988 17.7054 4.50409 17.6447C4.3083 17.584 4.09494 17.5991 3.91097 17.6867H3.91064ZM7.57759 9.867C7.69953 9.94468 7.83661 9.99873 7.98088 10.026C8.12515 10.0533 8.27374 10.0533 8.418 10.026C8.56226 9.99863 8.69933 9.94454 8.82124 9.86683C8.94315 9.78912 9.04747 9.68934 9.12814 9.57328C9.20881 9.45723 9.26423 9.32721 9.29117 9.19079C9.31811 9.05437 9.31603 8.91425 9.28507 8.77859C9.2541 8.64293 9.19487 8.51442 9.11079 8.40054C9.02672 8.28665 8.91949 8.18965 8.79533 8.11518C8.54901 7.96744 8.25093 7.91709 7.96555 7.97502C7.68018 8.03296 7.43046 8.19452 7.27042 8.42475C7.11038 8.65498 7.05288 8.93538 7.11037 9.20529C7.16785 9.47519 7.3357 9.7129 7.57759 9.867ZM19.2114 5.22513C19.3152 5.29208 19.4322 5.3388 19.5554 5.36255C19.6787 5.3863 19.8057 5.38659 19.9291 5.36341C20.0524 5.34024 20.1697 5.29406 20.2738 5.22759C20.378 5.16112 20.4671 5.07569 20.5358 4.97632C20.6045 4.87695 20.6515 4.76564 20.674 4.64892C20.6965 4.53221 20.694 4.41243 20.6667 4.29661C20.6395 4.1808 20.588 4.0713 20.5152 3.97451C20.4425 3.87773 20.35 3.79562 20.2431 3.73301C20.0334 3.61008 19.7809 3.5695 19.5398 3.61998C19.2987 3.67046 19.0882 3.80797 18.9533 4.00306C18.8184 4.19816 18.7698 4.43531 18.8181 4.66373C18.8663 4.89216 19.0075 5.09368 19.2114 5.22513ZM21.1475 2.0834C21.2145 2.12697 21.2901 2.15745 21.3699 2.17308C21.4496 2.1887 21.5318 2.18914 21.6117 2.17437C21.6916 2.15961 21.7675 2.12993 21.8351 2.08709C21.9027 2.04425 21.9605 1.9891 22.0051 1.9249C22.0498 1.86069 22.0803 1.78872 22.0951 1.7132C22.1098 1.63769 22.1084 1.56016 22.0909 1.48517C22.0734 1.41018 22.0402 1.33924 21.9933 1.27652C21.9463 1.2138 21.8865 1.16057 21.8174 1.11995C21.682 1.0403 21.5189 1.01381 21.363 1.04613C21.2071 1.07846 21.0708 1.16704 20.9832 1.29293C20.8957 1.41881 20.8639 1.572 20.8946 1.71973C20.9253 1.86746 21.0161 1.99799 21.1475 2.0834ZM19.3597 10.786C18.8596 10.7592 18.3687 10.9207 17.9948 11.235C17.6209 11.5494 17.3946 11.9909 17.3656 12.4625C17.3369 12.9342 17.5081 13.3973 17.8414 13.7501C18.1748 14.1028 18.6431 14.3162 19.1433 14.3434H19.2526C19.617 14.3432 19.9735 14.2436 20.2793 14.0566C20.585 13.8696 20.8268 13.6032 20.9756 13.2895C21.1244 12.9759 21.1738 12.6283 21.1178 12.2887C21.0619 11.9492 20.903 11.6321 20.6603 11.3758C20.4959 11.201 20.2963 11.0589 20.073 10.9576C19.8498 10.8563 19.6074 10.798 19.36 10.786H19.3597ZM10.8772 9.74348C11.034 10.0389 11.2751 10.2871 11.5735 10.4603C11.8718 10.6335 12.2154 10.7247 12.5657 10.7236C12.8887 10.7236 13.2062 10.6456 13.488 10.4969C13.7699 10.3483 14.0067 10.1341 14.1758 9.87462C14.3449 9.61518 14.4407 9.3192 14.454 9.01493C14.4674 8.71065 14.3978 8.40822 14.252 8.13649C14.0942 7.84242 13.8527 7.59561 13.5545 7.4237C13.2563 7.25179 12.9133 7.16157 12.5638 7.16315C12.2418 7.16366 11.9253 7.24174 11.6444 7.38999C11.3634 7.53823 11.1272 7.75173 10.9583 8.01021C10.7894 8.2687 10.6933 8.5636 10.6791 8.86695C10.665 9.17029 10.7329 9.47201 10.8772 9.74348ZM25.6874 7.46114C25.7801 7.41874 25.863 7.35936 25.9312 7.28647C25.9994 7.21357 26.0515 7.12861 26.0845 7.03653C26.1175 6.94445 26.1308 6.8471 26.1235 6.75014C26.1163 6.65318 26.0886 6.55855 26.0422 6.47177C25.9958 6.38498 25.9315 6.30777 25.8532 6.24463C25.7748 6.18149 25.6839 6.13368 25.5858 6.104C25.4876 6.07431 25.3842 6.06333 25.2815 6.0717C25.1788 6.08007 25.0789 6.10763 24.9877 6.15276C24.809 6.2431 24.6749 6.39572 24.6139 6.57803C24.5529 6.76034 24.5698 6.95792 24.6611 7.12861C24.7524 7.2993 24.9109 7.42957 25.1026 7.49164C25.2943 7.55371 25.5042 7.54296 25.6874 7.46114ZM20.8977 8.02841C20.7674 8.09025 20.6514 8.17568 20.5562 8.27981C20.461 8.38394 20.3884 8.50474 20.3427 8.63531C20.297 8.76588 20.279 8.90367 20.2898 9.0408C20.3005 9.17792 20.3398 9.31172 20.4054 9.43453C20.4709 9.55734 20.5615 9.66677 20.6719 9.75657C20.7824 9.84636 20.9104 9.91477 21.0489 9.95788C21.1873 10.001 21.3334 10.018 21.4789 10.0078C21.6243 9.9977 21.7661 9.96065 21.8963 9.89881C22.1593 9.77391 22.359 9.5556 22.4513 9.2919C22.5436 9.02821 22.5211 8.74072 22.3886 8.49269C22.2562 8.24466 22.0247 8.0564 21.7451 7.96933C21.4655 7.88226 21.1607 7.90351 20.8977 8.02841ZM14.7278 1.81475C14.8304 1.82138 14.9334 1.80875 15.0308 1.77758C15.1281 1.74642 15.218 1.69734 15.2951 1.63319C15.3722 1.56905 15.4351 1.4911 15.4801 1.40388C15.525 1.31666 15.5512 1.22189 15.557 1.12506C15.5629 1.02824 15.5483 0.931278 15.5141 0.839805C15.48 0.748331 15.4269 0.664161 15.358 0.592168C15.2891 0.520176 15.2057 0.461793 15.1127 0.420401C15.0197 0.37901 14.9189 0.355433 14.8162 0.351035C14.6118 0.342286 14.412 0.409891 14.2601 0.539184C14.1082 0.668477 14.0165 0.849031 14.0049 1.04168C13.9933 1.23433 14.0626 1.42354 14.198 1.56826C14.3333 1.71298 14.5237 1.80155 14.7278 1.81475ZM14.7196 6.42728C14.8653 6.43499 15.0111 6.41556 15.1488 6.37012C15.2864 6.32468 15.4133 6.25411 15.522 6.16243C15.6308 6.07076 15.7193 5.95978 15.7826 5.83583C15.8459 5.71189 15.8827 5.5774 15.8909 5.44005C15.899 5.3027 15.8784 5.16518 15.8302 5.03534C15.7821 4.90549 15.7072 4.78587 15.61 4.6833C15.5128 4.58073 15.3951 4.49722 15.2637 4.43754C15.1323 4.37786 14.9897 4.34318 14.844 4.33548C14.5499 4.31991 14.2613 4.41518 14.0416 4.60033C13.822 4.78547 13.6893 5.04532 13.6728 5.32271C13.6563 5.6001 13.7573 5.87231 13.9536 6.07946C14.15 6.28661 14.4255 6.41172 14.7196 6.42728ZM8.70266 17.1185C8.83289 17.0566 8.9489 16.9711 9.04409 16.8669C9.13927 16.7627 9.21176 16.6418 9.25741 16.5112C9.30306 16.3806 9.32099 16.2427 9.31016 16.1056C9.29933 15.9684 9.25997 15.8346 9.19431 15.7118C9.12865 15.589 9.03798 15.4796 8.92748 15.3898C8.81699 15.3 8.68882 15.2317 8.55031 15.1886C8.4118 15.1456 8.26566 15.1287 8.12022 15.1389C7.97478 15.1491 7.8329 15.1862 7.70267 15.2481C7.43968 15.3732 7.24013 15.5917 7.14792 15.8555C7.05572 16.1193 7.07842 16.4068 7.21103 16.6549C7.34364 16.9029 7.57529 17.0911 7.85502 17.1781C8.13476 17.265 8.43966 17.2436 8.70266 17.1185ZM15.437 7.95553C15.2972 8.15114 15.2 8.371 15.151 8.60233C15.102 8.83366 15.1022 9.07186 15.1517 9.30311C15.2011 9.53436 15.2987 9.75406 15.4388 9.94944C15.579 10.1448 15.7589 10.312 15.9681 10.4413C16.1774 10.5706 16.4117 10.6594 16.6576 10.7026C16.9035 10.7458 17.1561 10.7425 17.4006 10.6929C17.6452 10.6432 17.8768 10.5483 18.0822 10.4136C18.2875 10.2789 18.4624 10.1071 18.5968 9.90807C18.8636 9.51293 18.9546 9.03458 18.8501 8.5766C18.7457 8.11862 18.4542 7.71788 18.0387 7.46114C17.6232 7.2044 17.1172 7.11233 16.6303 7.20486C16.1433 7.29739 15.7147 7.56708 15.437 7.95553ZM18.7209 15.4044C18.5696 15.1214 18.3409 14.8816 18.0586 14.7098C17.7762 14.5379 17.4503 14.4402 17.1146 14.4268C16.7788 14.4134 16.4453 14.4847 16.1485 14.6333C15.8517 14.782 15.6024 15.0027 15.4262 15.2725C15.25 15.5424 15.1534 15.8518 15.1463 16.1686C15.1392 16.4855 15.2218 16.7984 15.3857 17.0751C15.5496 17.3518 15.7888 17.5822 16.0787 17.7426C16.3685 17.903 16.6985 17.9875 17.0346 17.9875C17.3302 17.9856 17.6213 17.919 17.8849 17.793C18.3309 17.5801 18.6693 17.2092 18.826 16.7615C18.9827 16.3138 18.9449 15.8258 18.7209 15.4044ZM22.0218 15.2799C21.8381 15.1662 21.6229 15.1064 21.4032 15.108C21.1835 15.1097 20.9693 15.1728 20.7876 15.2893C20.6059 15.4057 20.4649 15.5704 20.3825 15.7625C20.3001 15.9545 20.2799 16.1653 20.3245 16.3682C20.3692 16.5711 20.4766 16.7569 20.6332 16.9022C20.7898 17.0475 20.9886 17.1457 21.2044 17.1844C21.4202 17.2232 21.6434 17.2007 21.8456 17.1198C22.0479 17.0389 22.2202 16.9033 22.3407 16.7301C22.5018 16.4977 22.5587 16.2147 22.4989 15.9429C22.4391 15.6711 22.2676 15.4327 22.0218 15.2799ZM25.638 12.6042C25.6521 12.3687 25.5664 12.1375 25.3998 11.9615C25.2331 11.7856 24.9992 11.6792 24.7495 11.6659C24.6258 11.6593 24.502 11.6758 24.385 11.7143C24.2681 11.7529 24.1604 11.8127 24.068 11.8906C23.8814 12.0477 23.7687 12.2683 23.7545 12.5038C23.7404 12.7394 23.8261 12.9706 23.9927 13.1465C24.1594 13.3225 24.3933 13.4288 24.643 13.4421C24.8928 13.4554 25.1379 13.3746 25.3245 13.2175C25.5111 13.0603 25.6238 12.8397 25.638 12.6042ZM28.2512 11.9705C28.1701 11.9645 28.0886 11.9738 28.0113 11.9979C27.9341 12.0219 27.8628 12.0603 27.8015 12.1107C27.7402 12.1612 27.6902 12.2226 27.6544 12.2915C27.6186 12.3604 27.5978 12.4353 27.5931 12.5119C27.5884 12.5885 27.6 12.6652 27.6272 12.7375C27.6544 12.8098 27.6966 12.8763 27.7514 12.933C27.8062 12.9897 27.8724 13.0355 27.9462 13.0678C28.02 13.1 28.0999 13.1181 28.1811 13.1208C28.3408 13.1262 28.4964 13.0724 28.6145 12.971C28.7326 12.8695 28.8039 12.7285 28.8131 12.578C28.8223 12.4276 28.7686 12.2798 28.6635 12.1662C28.5585 12.0526 28.4105 11.9824 28.2512 11.9705ZM25.7909 17.684C25.7055 17.6303 25.6097 17.5931 25.509 17.5745C25.4083 17.5559 25.3046 17.5563 25.2041 17.5757C25.1036 17.595 25.0081 17.633 24.9232 17.6873C24.8383 17.7417 24.7656 17.8114 24.7094 17.8923C24.6532 17.9733 24.6145 18.0639 24.5956 18.1591C24.5768 18.2542 24.578 18.3519 24.5994 18.4466C24.6208 18.5412 24.6618 18.6309 24.7201 18.7106C24.7784 18.7902 24.8529 18.8582 24.9392 18.9105C25.1117 19.013 25.3199 19.0475 25.5191 19.0066C25.7182 18.9657 25.8924 18.8526 26.004 18.6918C26.1157 18.531 26.1558 18.3352 26.1159 18.1467C26.076 17.9582 25.9595 17.792 25.7909 17.684ZM8.45185 23.0635C8.38482 23.0214 8.30961 22.9921 8.23054 22.9775C8.15147 22.9629 8.07012 22.9631 7.99116 22.9783C7.9122 22.9934 7.8372 23.0232 7.77049 23.0658C7.70377 23.1084 7.64666 23.163 7.60244 23.2266C7.55822 23.2901 7.52777 23.3612 7.51284 23.4359C7.4979 23.5106 7.49879 23.5873 7.51544 23.6616C7.5321 23.736 7.56419 23.8065 7.60986 23.8691C7.65554 23.9317 7.7139 23.9852 7.78159 24.0264C7.91697 24.1089 8.08144 24.1375 8.23913 24.1061C8.39683 24.0747 8.53496 23.9857 8.62341 23.8587C8.71187 23.7316 8.74347 23.5767 8.71133 23.4278C8.67919 23.2788 8.58592 23.1479 8.45185 23.0635ZM21.2578 23.0033C21.185 23.0367 21.1198 23.0834 21.0663 23.1407C21.0127 23.198 20.9717 23.2648 20.9458 23.3372C20.9199 23.4096 20.9094 23.4861 20.9151 23.5623C20.9209 23.6385 20.9426 23.7129 20.9791 23.7811C21.0155 23.8494 21.066 23.9101 21.1276 23.9597C21.1892 24.0094 21.2606 24.047 21.3378 24.0703C21.4149 24.0937 21.4962 24.1024 21.5769 24.0958C21.6576 24.0893 21.7362 24.0677 21.8079 24.0323C21.9501 23.9621 22.0573 23.842 22.1063 23.698C22.1554 23.5539 22.1424 23.3974 22.0702 23.2623C21.998 23.1272 21.8723 23.0243 21.7203 22.9758C21.5683 22.9274 21.4022 22.9373 21.2578 23.0033ZM14.161 17.1886C14.3914 16.8571 14.498 16.4626 14.4639 16.0676C14.4297 15.6725 14.2569 15.2995 13.9726 15.0076C13.6884 14.7156 13.309 14.5214 12.8945 14.4557C12.4801 14.39 12.0542 14.4565 11.6844 14.6448C11.3145 14.8331 11.0218 15.1323 10.8526 15.4951C10.6834 15.8579 10.6474 16.2636 10.7502 16.6479C10.853 17.0322 11.0888 17.3732 11.4202 17.6169C11.7517 17.8606 12.1599 17.9931 12.5802 17.9934C12.894 17.9944 13.2031 17.9213 13.4793 17.7807C13.7555 17.6402 13.9897 17.4366 14.161 17.1886ZM10.387 19.9227C10.2833 19.8588 10.1673 19.8147 10.0456 19.793C9.92383 19.7713 9.79875 19.7725 9.67748 19.7964C9.55621 19.8203 9.44112 19.8665 9.33877 19.9323C9.23643 19.9981 9.14885 20.0824 9.08101 20.1801C9.01318 20.2779 8.96643 20.3873 8.94344 20.5021C8.92044 20.6169 8.92165 20.7349 8.947 20.8493C8.97234 20.9636 9.02132 21.0722 9.09114 21.1687C9.16096 21.2652 9.25026 21.3478 9.35393 21.4118C9.56331 21.541 9.81852 21.5864 10.0634 21.5382C10.3084 21.4899 10.5229 21.3519 10.6599 21.1544C10.7969 20.9569 10.8451 20.7162 10.7939 20.4853C10.7427 20.2543 10.5964 20.0519 10.387 19.9227ZM14.791 23.3322C14.6884 23.3256 14.5853 23.3382 14.4879 23.3694C14.3905 23.4006 14.3006 23.4496 14.2234 23.5138C14.1463 23.578 14.0834 23.656 14.0384 23.7432C13.9934 23.8305 13.9672 23.9253 13.9614 24.0222C13.9555 24.1191 13.9701 24.2161 14.0043 24.3076C14.0385 24.3991 14.0916 24.4833 14.1605 24.5553C14.2295 24.6273 14.3129 24.6857 14.4059 24.7272C14.499 24.7686 14.5998 24.7921 14.7026 24.7965C14.9071 24.8053 15.1069 24.7376 15.2589 24.6083C15.4108 24.4789 15.5026 24.2983 15.5142 24.1056C15.5258 23.9129 15.4564 23.7236 15.321 23.5788C15.1857 23.434 14.9952 23.3454 14.791 23.3322ZM14.7992 18.7203C14.6536 18.7119 14.5078 18.7307 14.3699 18.7755C14.232 18.8203 14.1049 18.8903 13.9957 18.9815C13.8865 19.0726 13.7974 19.1832 13.7335 19.3068C13.6697 19.4304 13.6322 19.5647 13.6234 19.702C13.6145 19.8392 13.6344 19.9768 13.6819 20.1068C13.7294 20.2368 13.8036 20.3567 13.9003 20.4597C13.997 20.5627 14.1142 20.6467 14.2453 20.7069C14.3763 20.7672 14.5187 20.8025 14.6643 20.8109C14.8098 20.8192 14.9557 20.8004 15.0936 20.7556C15.2314 20.7108 15.3586 20.6408 15.4678 20.5497C15.577 20.4585 15.666 20.348 15.7299 20.2244C15.7938 20.1007 15.8312 19.9665 15.8401 19.8292C15.849 19.6919 15.8291 19.5543 15.7815 19.4243C15.734 19.2943 15.6598 19.1744 15.5632 19.0714C15.4665 18.9685 15.3493 18.8844 15.2182 18.8242C15.0871 18.7639 14.9447 18.7286 14.7992 18.7203ZM19.341 19.8514C19.2304 19.9044 19.1319 19.9774 19.0512 20.0662C18.9705 20.1551 18.9091 20.2581 18.8706 20.3693C18.832 20.4805 18.8171 20.5978 18.8267 20.7145C18.8362 20.8312 18.87 20.9449 18.9262 21.0492C18.9823 21.1536 19.0597 21.2465 19.154 21.3226C19.2482 21.3987 19.3574 21.4566 19.4753 21.493C19.5933 21.5293 19.7176 21.5434 19.8413 21.5344C19.965 21.5254 20.0857 21.4935 20.1963 21.4405C20.4197 21.3336 20.589 21.1473 20.6668 20.9227C20.7447 20.6981 20.7247 20.4535 20.6113 20.2428C20.498 20.0321 20.3005 19.8725 20.0623 19.7991C19.8241 19.7257 19.5645 19.7445 19.341 19.8514ZM40.183 8.36531C42.012 8.36531 43.2926 9.31332 43.2926 11.0732H45.6881C45.6881 7.9858 43.274 6.49831 40.1469 6.49831C36.3055 6.49831 34.0743 8.46536 34.0743 12.6227C34.0743 16.8829 36.3055 18.7459 40.1469 18.7459C43.3113 18.7459 45.6881 17.2976 45.6881 14.209H43.3836C43.3836 15.934 42.1214 16.8829 40.1839 16.8829C37.6411 16.8829 36.4685 15.5542 36.4685 12.7947V12.4504C36.4708 9.74441 37.6584 8.365 40.183 8.365V8.36531ZM52.022 6.7086L47.1383 18.5424H49.5532L50.5584 15.972H56.298L57.3301 18.5424H59.8543L54.9677 6.7086H52.022ZM51.2902 14.1059L52.5712 10.862C52.8269 10.2243 53.2843 8.84395 53.376 8.60278H53.467C53.5587 8.84426 54.0161 10.241 54.2719 10.862L55.5518 14.105L51.2902 14.1059ZM72.9144 10.2962C72.9144 8.10623 71.5788 6.7086 68.8169 6.7086H62.1951V18.5424H64.537V13.9679H68.4321L70.8057 18.5424H73.3663L70.6829 13.6263C72.1639 13.0742 72.9144 11.9014 72.9144 10.2962ZM68.6332 12.1076H64.537V8.58919H68.6332C69.8954 8.58919 70.5539 9.22748 70.5539 10.2962C70.5539 11.4184 69.8408 12.1076 68.6332 12.1076ZM81.1275 6.7086H76.1138V18.5424H81.1255C84.9113 18.5424 87.2148 16.6794 87.2148 12.6255C87.2148 8.57159 84.9133 6.7086 81.1275 6.7086ZM84.8226 12.7978C84.8039 15.3859 83.5056 16.6618 81.1275 16.6618H78.4576V8.58919H81.1275C83.5014 8.58919 84.8226 9.86607 84.8226 12.4532V12.7978ZM93.3493 6.7086L88.4636 18.5424H90.8775L91.884 15.972H97.6273L98.6511 18.5424H101.176L96.292 6.7086H93.3493ZM92.6178 14.1059L93.8965 10.862C94.1525 10.2243 94.6096 8.84395 94.7016 8.60278H94.7943C94.8853 8.84426 95.3434 10.241 95.5994 10.862L96.8791 14.105L92.6178 14.1059ZM111.879 13.7468C111.879 13.9706 111.916 14.5743 111.916 14.6784L111.825 14.7124C111.77 14.6444 111.403 14.0398 111.205 13.7644L105.755 6.7086H103.52V18.5424H105.771V11.4524C105.771 11.1606 105.733 10.5902 105.733 10.5037L105.825 10.4522C105.88 10.521 106.154 11.0213 106.444 11.4187L111.932 18.5424H114.126V6.7086H111.877V13.7468H111.879ZM123.453 6.50232C119.521 6.50232 117.143 8.46845 117.143 12.6255C117.143 16.7826 119.517 18.749 123.453 18.749C127.39 18.749 129.782 16.7826 129.782 12.6255C129.782 8.46845 127.385 6.50232 123.453 6.50232ZM127.385 12.8154C127.385 15.523 126.014 16.8857 123.453 16.8857C120.911 16.8857 119.54 15.523 119.54 12.8154V12.4532C119.54 9.74441 120.93 8.36531 123.453 8.36531C125.996 8.36531 127.385 9.74441 127.385 12.4532V12.8154Z" fill="white"/>
</g>
</g>
<defs>
<clipPath id="clip0_133_879">
<rect width="129.01" height="24.704" fill="white" transform="translate(0.772308 0.349747)"/>
</clipPath>
</defs>
</svg>
