<svg width="130" height="32" viewBox="0 0 130 32" fill="none" xmlns="http://www.w3.org/2000/svg">
<g clip-path="url(#clip0_133_849)">
<path d="M39.4056 23.3597V8.26286H44.0379C45.3366 8.22127 46.5921 8.55398 47.7177 9.13623C48.8 9.71848 49.6658 10.5918 50.2286 11.6732C50.7914 12.8377 51.0944 14.1269 51.0511 15.4162V16.2064C51.0944 17.4957 50.7914 18.7849 50.142 19.9494C49.5792 21.0307 48.7134 21.9041 47.6311 22.4863C46.4622 23.0686 45.1635 23.4013 43.8647 23.3597H39.4056ZM42.0897 10.3423V21.1139H43.8647C45.1202 21.1971 46.3323 20.698 47.1549 19.8246C47.9774 18.7433 48.4103 17.4541 48.3238 16.1232V15.2914C48.4103 13.9606 48.0207 12.6297 47.2415 11.5484C46.4189 10.675 45.25 10.176 44.0379 10.2591L42.0897 10.3423Z" fill="white"/>
<path d="M53.0426 17.6204C52.9993 16.5807 53.259 15.541 53.7352 14.626C54.1682 13.7942 54.8175 13.0872 55.6401 12.5881C56.5059 12.0891 57.4583 11.8811 58.454 11.8811C59.8827 11.8395 61.268 12.3386 62.2637 13.3367C63.3027 14.3765 63.8655 15.7905 63.8655 17.2045V17.7868C63.8655 18.8265 63.6491 19.8246 63.1729 20.7396C62.7832 21.5714 62.0906 22.2784 61.3113 22.7775C60.4455 23.2765 59.4498 23.5261 58.454 23.4845C56.9821 23.5677 55.5102 22.9854 54.5145 21.9041C53.4755 20.7396 52.956 19.2424 53.0426 17.7036V17.6204ZM55.6834 17.8699C55.6401 18.8265 55.8998 19.7831 56.4193 20.5732C56.8955 21.1971 57.6748 21.5714 58.4973 21.5298C59.3199 21.5714 60.0991 21.1971 60.5753 20.5317C61.1381 19.6583 61.3979 18.6601 61.3113 17.6204C61.3546 16.6639 61.0948 15.7073 60.5321 14.9171C60.0558 14.2933 59.2766 13.9606 58.4973 13.9606C57.7181 13.9606 56.9388 14.3349 56.4626 14.9171C55.8565 15.8321 55.5968 16.8302 55.6834 17.8699Z" fill="white"/>
<path d="M65.6405 17.662C65.5539 16.1648 66.0301 14.7092 66.8959 13.5031C67.7185 12.505 68.9739 11.9227 70.2727 11.9643C71.4849 11.9227 72.6537 12.4218 73.3897 13.2951V12.1722H75.7708V22.9022C75.8141 24.1915 75.2945 25.4808 74.3421 26.3541C73.2598 27.2275 71.9178 27.685 70.4892 27.6434C69.6233 27.6434 68.7575 27.477 67.9782 27.1443C67.2423 26.8532 66.5929 26.3957 66.1167 25.7719L67.3722 24.2747C68.0648 25.1481 69.1904 25.6471 70.316 25.6471C71.0519 25.6887 71.7879 25.4392 72.394 24.9817C72.9568 24.441 73.2165 23.734 73.1733 22.9854V22.2368C72.394 23.0686 71.3117 23.4845 70.1428 23.4429C68.8441 23.4845 67.5886 22.9022 66.8094 21.9041C65.9435 20.6564 65.5106 19.1592 65.6405 17.662ZM68.238 17.87C68.1947 18.7849 68.4544 19.7415 68.9739 20.5317C69.4069 21.1555 70.1861 21.5298 70.9654 21.4882C71.9178 21.4882 72.7836 20.9891 73.2165 20.1989V15.2914C72.7836 14.5012 71.9178 14.0022 70.9654 14.0022C70.1861 13.9606 69.4069 14.3349 68.9307 14.9587C68.4112 15.8737 68.1514 16.8718 68.238 17.87Z" fill="white"/>
<path d="M83.7364 23.5261C82.2212 23.6092 80.7493 23.027 79.7103 22.0289C78.628 20.9475 78.0652 19.4919 78.1518 18.0363V17.7452C78.1518 16.7054 78.3683 15.6657 78.8445 14.7508C79.2774 13.919 79.9268 13.212 80.706 12.7129C81.5286 12.2138 82.4377 11.9643 83.4334 11.9643C84.8187 11.8811 86.2041 12.4218 87.1132 13.4199C88.0656 14.5844 88.4985 16.0816 88.412 17.5372V18.5354H80.7926C80.8359 19.3256 81.1822 20.1158 81.745 20.698C82.3078 21.2387 83.0871 21.5298 83.8663 21.4882C85.0352 21.5298 86.1608 21.0307 86.8535 20.1158L88.2821 21.405C87.8059 22.0705 87.1565 22.6111 86.4205 22.9854C85.5547 23.3597 84.6456 23.5677 83.7364 23.5261ZM83.4334 13.9606C82.784 13.919 82.1347 14.2101 81.7017 14.6676C81.2255 15.2498 80.9225 15.9568 80.8359 16.7054H85.8145V16.4975C85.8145 15.7905 85.5547 15.1251 85.1218 14.5844C84.6889 14.1685 84.0395 13.919 83.4334 13.9606Z" fill="white"/>
<path fill-rule="evenodd" clip-rule="evenodd" d="M95.2088 21.5298C95.8149 21.5714 96.3777 21.3634 96.8539 20.9891C97.2868 20.6564 97.5465 20.1574 97.5465 19.6167H100.014C99.9709 20.3237 99.7544 20.9891 99.3215 21.5714C98.8886 22.1952 98.2825 22.6943 97.5898 23.027C96.8972 23.3597 96.1179 23.5261 95.3387 23.5261C93.8667 23.6093 92.4381 23.0686 91.4857 22.0289C90.4467 20.8228 89.9272 19.284 90.0571 17.7452V17.4956C89.9705 15.9984 90.49 14.5428 91.4857 13.4199C92.4814 12.3802 93.91 11.8395 95.3387 11.8811C96.5941 11.8395 97.8063 12.2554 98.7587 13.0456C99.6246 13.8358 100.144 14.9587 100.144 16.0816H97.6764C97.6764 15.4994 97.4167 14.9171 96.9837 14.5012C96.5508 14.0853 95.9447 13.8774 95.3387 13.8774C94.5594 13.8358 93.8234 14.1685 93.3905 14.7508C92.871 15.541 92.6113 16.4975 92.6979 17.4541V17.8284C92.6113 18.7849 92.871 19.7415 93.3905 20.5317C93.7369 21.1555 94.4295 21.5298 95.2088 21.5298Z" fill="white"/>
<path d="M101.443 17.6204C101.4 16.5807 101.659 15.541 102.135 14.626C102.525 13.7942 103.218 13.0872 104.04 12.5881C104.906 12.0891 105.859 11.8395 106.854 11.8811C108.283 11.8395 109.668 12.3802 110.664 13.3367C111.703 14.3765 112.266 15.7905 112.266 17.2045V17.7868C112.266 18.8265 112.049 19.8246 111.573 20.7396C111.183 21.5714 110.534 22.2784 109.712 22.7775C108.846 23.2766 107.85 23.5261 106.854 23.4845C105.339 23.5677 103.91 22.9854 102.871 21.9041C101.832 20.7396 101.313 19.2424 101.4 17.7036L101.443 17.6204ZM104.084 17.87C103.997 18.8265 104.257 19.7831 104.776 20.5733C105.252 21.1971 106.032 21.5714 106.854 21.5298C107.677 21.5714 108.456 21.1971 108.932 20.5317C109.495 19.6583 109.755 18.6602 109.668 17.6204C109.712 16.6639 109.452 15.7489 108.889 14.9171C108.413 14.2933 107.634 13.919 106.811 13.919C105.988 13.8774 105.252 14.2517 104.776 14.8755C104.257 15.7905 103.997 16.8302 104.084 17.87Z" fill="white"/>
<path d="M114.517 9.26099C114.474 8.88669 114.647 8.51239 114.95 8.26285C115.253 8.01332 115.643 7.88855 116.032 7.93014C116.422 7.88855 116.855 8.0549 117.114 8.30444C117.374 8.55397 117.504 8.92828 117.504 9.26099C117.504 9.5937 117.374 9.92642 117.114 10.176C116.811 10.4255 116.422 10.5918 116.032 10.5503C115.643 10.5918 115.21 10.4255 114.95 10.176C114.647 9.92642 114.517 9.5937 114.517 9.26099ZM117.288 23.3597H114.647V12.1722H117.288V23.3597Z" fill="white"/>
<path fill-rule="evenodd" clip-rule="evenodd" d="M122.569 12.1722V13.4615C123.392 12.4634 124.647 11.9227 125.946 11.9643C128.37 11.9643 129.626 13.2951 129.669 15.9568V23.3597H127.201V16.0816C127.245 15.4994 127.072 14.9587 126.725 14.5012C126.292 14.1269 125.729 13.9606 125.167 14.0022C124.171 13.9606 123.262 14.5012 122.829 15.3746V23.3181H120.145V12.1722H122.569Z" fill="white"/>
<path fill-rule="evenodd" clip-rule="evenodd" d="M32.3924 15.9153C32.3924 24.2301 25.3759 30.9705 16.7207 30.9705C8.06554 30.9705 1.04911 24.2301 1.04911 15.9153C1.04911 7.60046 8.06554 0.859985 16.7207 0.859985C25.3759 0.859985 32.3924 7.60046 32.3924 15.9153ZM18.236 14.626H13.9934V10.5087H16.6775C17.5433 10.4671 18.4524 10.6334 19.275 10.9246C19.9244 11.1325 20.4439 11.5484 20.8768 12.0475C21.2664 12.5465 21.5262 13.1288 21.656 13.7526C21.8292 14.4596 21.8725 15.2083 21.8725 15.9153C21.8725 16.6639 21.8292 17.3709 21.656 18.0779C21.5262 18.7017 21.2664 19.284 20.8768 19.7831C20.4439 20.2821 19.8811 20.6564 19.275 20.906C18.4524 21.1971 17.5433 21.3634 16.6775 21.3219H13.9934V16.7886H18.236V14.626ZM9.83737 16.7886H11.3093V23.2766H17.7165C18.7988 23.3181 19.8378 23.1102 20.7902 22.6943C21.6127 22.32 22.3487 21.7793 22.9115 21.0723C23.4743 20.3653 23.9072 19.5751 24.167 18.7433C24.4267 17.7868 24.5566 16.8302 24.5566 15.8321C24.5999 14.8339 24.4267 13.8358 24.167 12.8793C23.9072 12.0475 23.4743 11.2157 22.9115 10.5087C22.3487 9.80166 21.6127 9.261 20.7902 8.8867C19.8378 8.47081 18.7555 8.26286 17.7165 8.30445H11.3093V14.626H9.83737V16.7886Z" fill="white"/>
</g>
<defs>
<clipPath id="clip0_133_849">
<rect width="129.01" height="30.1937" fill="white" transform="translate(0.875942 0.859985)"/>
</clipPath>
</defs>
</svg>
