<svg width="122" height="29" viewBox="0 0 122 29" fill="none" xmlns="http://www.w3.org/2000/svg">
<g clip-path="url(#clip0_133_822)">
<path fill-rule="evenodd" clip-rule="evenodd" d="M37.0315 13.8324H30.5081V18.3558H38.187V20.4119H27.6751V5.67657H38.187V7.73267H30.5081V11.8106H37.0315V13.8324Z" fill="white"/>
<path fill-rule="evenodd" clip-rule="evenodd" d="M43.5548 6.80743V9.48035H45.6423V11.2966H43.5548V17.3963C43.5175 17.7047 43.6294 18.0474 43.8157 18.3216C44.0767 18.5272 44.4494 18.63 44.7849 18.5957C45.0831 18.5957 45.4186 18.5614 45.7168 18.4929V20.4119C45.1577 20.549 44.5613 20.6518 43.9648 20.6518C41.9147 20.6518 40.8709 19.6237 40.8709 17.5334V11.2623H38.9326V9.44608H40.8709V6.77316H43.5548V6.80743Z" fill="white"/>
<path fill-rule="evenodd" clip-rule="evenodd" d="M50.3018 10.6455C51.1219 9.72023 52.352 9.17194 53.6194 9.20621C56.1542 9.20621 57.4588 10.5084 57.4588 13.1813V20.3434H54.775V13.3527C54.8495 12.7701 54.6631 12.1875 54.2531 11.7421C53.8058 11.3994 53.2466 11.228 52.6875 11.2623C51.681 11.228 50.7491 11.7421 50.3018 12.5645V20.3091H47.5434V4.85414H50.2273L50.3018 10.6455Z" fill="white"/>
<path d="M65.4359 20.6175C63.8703 20.6861 62.342 20.1378 61.2237 19.144C60.1427 18.1159 59.5836 16.711 59.6581 15.2717V14.9975C59.6208 14.0038 59.8818 12.9757 60.3664 12.0847C60.8137 11.2966 61.4847 10.6112 62.3047 10.1657C63.1248 9.58316 64.1313 9.24048 65.175 9.20621C66.5915 9.13767 67.9707 9.6517 68.9026 10.6112C69.8718 11.7763 70.3191 13.2156 70.2446 14.6549V15.6486H62.4538C62.4911 16.4368 62.8266 17.225 63.4603 17.8075C64.0194 18.3216 64.765 18.5957 65.5478 18.5957C66.7406 18.6642 67.8962 18.1502 68.6044 17.2935L70.0209 18.5614C69.5363 19.2125 68.9026 19.7266 68.1198 20.1035C67.2997 20.4462 66.3678 20.6175 65.4359 20.6175ZM65.1377 11.228C64.4668 11.1938 63.8331 11.4679 63.3857 11.9134C62.9012 12.4617 62.6029 13.1471 62.4911 13.8324H67.5979V13.6611C67.5979 12.9757 67.3743 12.2903 66.8897 11.7421C66.4051 11.3651 65.7714 11.1938 65.1377 11.228Z" fill="white"/>
<path fill-rule="evenodd" clip-rule="evenodd" d="M78.5199 11.7078C78.1471 11.6735 77.7744 11.6735 77.4389 11.7078C76.3952 11.605 75.426 12.119 74.9787 13.01V20.4805H72.2948V9.44608H74.9041V10.6797C75.426 9.7545 76.4697 9.20621 77.588 9.20621C77.9235 9.20621 78.2217 9.24048 78.5199 9.34328V11.7078Z" fill="white"/>
<path d="M85.2669 20.6175C83.7013 20.6861 82.173 20.1378 81.0547 19.144C79.9737 18.1159 79.4145 16.711 79.4891 15.2717V14.9975C79.4518 14.0038 79.7127 12.9757 80.1973 12.0847C80.9801 10.3028 82.8812 9.17194 84.9687 9.20621C86.3852 9.13767 87.7644 9.6517 88.7336 10.6112C89.7028 11.7763 90.1501 13.2156 90.0755 14.6549V15.6486H82.2848C82.3193 16.4815 82.7074 17.2688 83.3658 17.8418C83.925 18.3558 84.6705 18.63 85.4533 18.63C86.6461 18.6642 87.7644 18.1502 88.4354 17.2592L89.8891 18.5272C89.4046 19.1783 88.7336 19.6923 87.9881 20.0692C87.0934 20.4462 86.1988 20.6175 85.2669 20.6175ZM84.9314 11.228C84.2604 11.1938 83.5895 11.4679 83.1422 11.9134C82.6576 12.4617 82.3594 13.1471 82.2848 13.8324H87.3916V13.6611C87.4289 12.9414 87.168 12.2561 86.6834 11.7421C86.1988 11.3651 85.5651 11.1938 84.9314 11.228Z" fill="white"/>
<path fill-rule="evenodd" clip-rule="evenodd" d="M99.32 19.3496C98.4627 20.2063 97.2326 20.6861 95.9652 20.6175C94.8842 20.6861 93.8031 20.3091 93.0576 19.5895C92.3494 18.7328 91.9766 17.6704 92.0512 16.5739V9.44608H94.735V16.5053C94.735 17.9103 95.3688 18.5957 96.5989 18.5957C97.6799 18.6985 98.7236 18.2187 99.2455 17.3278V9.44608H101.929V20.3776H99.4318L99.32 19.3496Z" fill="white"/>
<path fill-rule="evenodd" clip-rule="evenodd" d="M107.111 9.44608V10.5769C107.968 9.61742 109.273 9.1034 110.652 9.17193C112.031 9.06913 113.299 9.72023 113.932 10.8511C114.752 9.75449 116.132 9.13767 117.548 9.17193C118.629 9.1034 119.71 9.44608 120.493 10.1657C121.201 11.0224 121.537 12.0505 121.499 13.1128V20.3091H118.815V13.2841C118.89 12.7358 118.704 12.1875 118.331 11.7421C117.399 11.1252 116.132 11.1252 115.2 11.7421C114.827 12.0505 114.529 12.4617 114.417 12.9072V20.4119H111.733V13.2156C111.808 12.7016 111.584 12.1533 111.174 11.7763C110.764 11.3994 110.205 11.228 109.608 11.2623C108.639 11.1938 107.744 11.6735 107.334 12.4617V20.3776H104.613V9.44608H107.111Z" fill="white"/>
<path fill-rule="evenodd" clip-rule="evenodd" d="M9.81985 0.844757L9.59619 1.46159V19.3496L9.81985 19.5552L18.8407 14.6549L9.81985 0.844757Z" fill="white"/>
<path fill-rule="evenodd" clip-rule="evenodd" d="M9.81984 0.844757L0.761719 14.6549L9.81984 19.5552V10.8511V0.844757Z" fill="white"/>
<path fill-rule="evenodd" clip-rule="evenodd" d="M9.81985 21.1315L9.67075 21.2343V27.6082L9.81985 27.9166L18.8407 16.1969L9.81985 21.1315Z" fill="white"/>
<path fill-rule="evenodd" clip-rule="evenodd" d="M9.81984 27.9166V21.1315L0.761719 16.1969L9.81984 27.9166Z" fill="white"/>
<path fill-rule="evenodd" clip-rule="evenodd" d="M9.81982 19.5552L18.8407 14.6548L9.81982 10.8511V19.5552Z" fill="white"/>
<path fill-rule="evenodd" clip-rule="evenodd" d="M0.761719 14.6548L9.81984 19.5552V10.8511L0.761719 14.6548Z" fill="white"/>
</g>
<defs>
<clipPath id="clip0_133_822">
<rect width="120.775" height="27.4488" fill="white" transform="translate(0.724457 0.604874)"/>
</clipPath>
</defs>
</svg>
