<svg width="83" height="50" viewBox="0 0 83 50" fill="none" xmlns="http://www.w3.org/2000/svg">
<path d="M82.9782 25.2378C82.9782 38.8936 71.5982 49.9418 57.5322 49.9418C51.5947 49.9418 46.1521 47.9517 41.8404 44.6579C47.7778 40.1288 51.524 33.1294 51.524 25.2378C51.524 17.3463 47.7071 10.3469 41.8404 5.81783C46.1521 2.52397 51.5947 0.533928 57.5322 0.533928C71.5982 0.533928 82.9782 11.6507 82.9782 25.2378Z" fill="white"/>
<path d="M32.0859 25.238C32.0859 17.3465 35.9029 10.347 41.7696 5.81797C37.4579 2.52411 32.0153 0.534035 26.0779 0.534035C12.0118 0.534035 0.631714 11.5822 0.631714 25.2379C0.631714 38.8937 12.0118 49.9419 26.0779 49.9419C32.0153 49.9419 37.4577 47.9517 41.7694 44.6579C35.9028 40.1974 32.0859 33.1294 32.0859 25.238Z" fill="white"/>
</svg>
