<svg width="128" height="25" viewBox="0 0 128 25" fill="none" xmlns="http://www.w3.org/2000/svg">
<path fill-rule="evenodd" clip-rule="evenodd" d="M63.593 0.462784L63.6028 0.773553L63.6076 19.0312C63.6076 19.2886 63.5396 19.3371 63.3163 19.3323C62.6333 19.3168 61.9501 19.3168 61.2671 19.3323C61.0729 19.3323 61.0389 19.2643 61.0389 19.0701V7.8921C61.0389 7.8047 61.0632 7.70758 61.0001 7.58133L60.597 8.63989L57.3825 17.2055C57.3048 17.4143 57.2126 17.4822 57.0038 17.4628C56.6324 17.4309 56.2596 17.4196 55.887 17.4288C55.7121 17.4288 55.6393 17.3608 55.5762 17.1957L52.755 10.0189L51.8567 7.74643C51.8403 7.69784 51.8054 7.6577 51.7596 7.63475V7.89696C51.7596 11.6165 51.7596 15.336 51.7693 19.0555C51.7693 19.274 51.7304 19.3469 51.5119 19.3371C50.8208 19.3228 50.1296 19.3228 49.4385 19.3371C49.2588 19.3371 49.1957 19.2934 49.1957 19.0846C49.2103 17.827 49.2054 16.5694 49.2054 15.3166V0.792976C49.2054 0.686149 49.22 0.574466 49.2248 0.462784H51.6139L56.4405 12.7284L56.5279 12.5294C57.8293 9.14975 59.1403 5.77013 60.4368 2.39052C60.6845 1.74956 60.9612 1.12317 61.1603 0.462784L63.593 0.462784ZM117.672 24.7416V22.4205C117.672 22.2457 117.711 22.202 117.866 22.2069C118.138 22.2069 118.405 22.236 118.677 22.1778C118.95 22.1257 119.203 21.9959 119.405 21.8038C119.606 21.6117 119.748 21.3656 119.813 21.0949C120.027 20.386 120.226 19.6722 120.444 18.9632C120.476 18.8404 120.465 18.7106 120.415 18.5942L116.288 6.19744L116.186 5.89638H116.715C117.317 5.89638 117.924 5.90124 118.526 5.89153C118.696 5.89153 118.769 5.94009 118.823 6.11975C119.721 9.11576 120.629 12.1069 121.537 15.0981L121.619 15.3263L122.353 12.8984C123.032 10.6259 123.722 8.36311 124.397 6.09061C124.445 5.92552 124.523 5.89153 124.669 5.89153C125.455 5.89638 126.242 5.89153 127.029 5.88667V5.98864C127.014 6.01292 126.995 6.02749 126.99 6.05177L123.057 18.3903C122.62 19.7596 122.192 21.1338 121.721 22.4934C121.367 23.5277 120.711 24.2706 119.692 24.5717C119.483 24.6348 119.269 24.6833 119.06 24.7416H117.672ZM33.4727 0.462784C33.6378 0.530765 33.8029 0.584178 33.9583 0.66187C34.7838 1.08918 35.2063 2.06033 34.9926 3.02663C34.9037 3.4814 34.6552 3.88942 34.2919 4.17703C33.9286 4.46465 33.4745 4.61291 33.0115 4.59504C32.1811 4.57562 31.4139 3.85211 31.244 2.92951C31.0449 1.8224 31.7101 0.729851 32.7298 0.506486C32.759 0.50163 32.7784 0.477351 32.8075 0.462784H33.4776H33.4727ZM86.5025 0.462784C86.5462 0.559899 86.6288 0.511341 86.6968 0.521053C87.3669 0.686149 87.8961 1.45822 87.833 2.18658C87.7553 3.04119 87.1726 3.65788 86.4006 3.70643C85.6916 3.75499 85.0118 3.1723 84.8807 2.42451C84.7302 1.53591 85.2012 0.739562 86.0073 0.521053C86.0461 0.511341 86.1044 0.53562 86.1238 0.462784L86.5025 0.462784ZM68.1769 0.462784C68.1915 0.511341 68.2352 0.506486 68.274 0.511341C69.0898 0.686149 69.5948 1.48249 69.4637 2.38567C69.3471 3.17716 68.6042 3.79384 67.8807 3.70158C67.0358 3.59961 66.458 2.86639 66.5114 1.97293C66.5264 1.64216 66.6445 1.32438 66.8492 1.06405C67.0538 0.80372 67.3346 0.613866 67.6525 0.521053C67.701 0.506486 67.769 0.545332 67.7981 0.462784L68.1769 0.462784ZM105.022 0.462784C105.256 0.564755 105.493 0.647303 105.688 0.831822C105.942 1.07251 106.116 1.38597 106.186 1.72931C106.255 2.07265 106.217 2.42909 106.076 2.74985C105.952 3.06248 105.724 3.32286 105.43 3.4873C105.137 3.65175 104.796 3.71026 104.464 3.65302C104.135 3.57983 103.838 3.40142 103.619 3.14474C103.4 2.88806 103.271 2.56707 103.25 2.23028C103.206 1.88314 103.276 1.53097 103.45 1.22758C103.625 0.924195 103.894 0.686279 104.216 0.550188C104.279 0.525909 104.362 0.540476 104.406 0.462784L105.022 0.462784Z" fill="white"/>
<path fill-rule="evenodd" clip-rule="evenodd" d="M0.778992 12.3595C0.978078 11.9613 1.10918 11.5291 1.42966 11.1941C1.78035 10.7978 2.25473 10.5318 2.77572 10.4393C3.29672 10.3467 3.8337 10.433 4.29942 10.6842C5.27057 11.2087 5.76586 12.3304 5.54735 13.4763C5.44617 13.9949 5.18113 14.4674 4.79124 14.824C4.40136 15.1807 3.90725 15.4027 3.38168 15.4575C2.84178 15.4949 2.30485 15.3508 1.85617 15.0482C1.4075 14.7456 1.0728 14.3017 0.905242 13.7871C0.876107 13.6851 0.885819 13.5491 0.778992 13.4763V12.3595Z" fill="white"/>
<path fill-rule="evenodd" clip-rule="evenodd" d="M77.1991 0.506595L81.7295 0.50174C81.9238 0.50174 81.9869 0.53573 81.982 0.763951C81.9675 1.50203 81.9723 2.2401 81.982 2.98303C81.982 3.16755 81.9335 3.2064 81.7684 3.2064C79.593 3.19669 77.4128 3.2064 75.2325 3.19669C75.0237 3.19669 74.9557 3.24525 74.9557 3.48803C74.9655 5.14385 74.9655 6.80938 74.9557 8.47005C74.9557 8.71284 75.0286 8.76139 75.2374 8.76139C77.3982 8.75168 79.559 8.76139 81.7247 8.74683C81.9383 8.74683 81.9869 8.80995 81.982 9.03332C81.9669 9.68714 81.9669 10.3412 81.982 10.995C81.9917 11.2378 81.9432 11.3107 81.7053 11.3107C79.5396 11.2961 77.3788 11.3058 75.2131 11.2961C75.0043 11.2961 74.9557 11.3544 74.9557 11.5777C74.9655 14.0736 74.9557 16.5695 74.9655 19.0653C74.9655 19.2935 74.9169 19.3567 74.7081 19.347C74.0154 19.3347 73.3225 19.3347 72.6298 19.347C72.4647 19.347 72.3968 19.3178 72.3968 19.109V0.720249C72.3968 0.526018 72.4599 0.50174 72.6153 0.50174L77.1991 0.506595ZM93.1649 7.35322C93.5161 6.88322 93.9567 6.48719 94.4613 6.18784C96.8067 4.92048 99.827 6.3675 100.249 9.39264C100.308 9.81024 100.342 10.2278 100.342 10.6503V19.0605C100.342 19.279 100.288 19.3324 100.094 19.3275C99.4418 19.3131 98.7894 19.3131 98.1372 19.3275C97.9429 19.3275 97.909 19.2596 97.909 19.0702C97.9138 16.4481 97.9187 13.8211 97.909 11.1941C97.909 10.4269 97.7439 9.70827 97.2146 9.145C96.9222 8.81279 96.5355 8.57763 96.1061 8.47092C95.6766 8.3642 95.2248 8.391 94.811 8.54774C93.9321 8.82937 93.4271 9.50918 93.2377 10.4706C93.1844 10.767 93.16 11.0678 93.1649 11.3689V19.041C93.1649 19.2838 93.1017 19.3324 92.8929 19.3275C92.2488 19.3133 91.6045 19.3133 90.9604 19.3275C90.7758 19.3275 90.7418 19.2693 90.7418 19.0847V6.15385C90.7418 5.95962 90.771 5.88678 90.9701 5.89164C91.6402 5.9062 92.3054 5.90135 92.9755 5.89164C93.1212 5.89164 93.1697 5.93534 93.1697 6.09558C93.1552 6.48404 93.1649 6.88221 93.1649 7.35322ZM110.364 12.3304C110.364 10.9708 110.354 9.61115 110.369 8.25154C110.369 8.00875 110.306 7.96019 110.102 7.97476C109.84 7.99418 109.577 7.97476 109.315 7.97962C109.184 7.98447 109.131 7.94563 109.135 7.7951C109.142 7.21728 109.142 6.6394 109.135 6.06159C109.135 5.92077 109.184 5.89164 109.305 5.89164C109.573 5.90135 109.844 5.87707 110.116 5.90135C110.345 5.92563 110.369 5.82366 110.369 5.61C110.359 4.0076 110.369 2.4052 110.359 0.807653C110.359 0.564864 110.422 0.516307 110.636 0.516307C111.262 0.530874 111.889 0.530874 112.52 0.516307C112.714 0.516307 112.772 0.564864 112.772 0.783374C112.763 2.39063 112.772 4.00274 112.758 5.61C112.758 5.85765 112.831 5.9062 113.039 5.90135C113.477 5.88193 113.914 5.90135 114.351 5.89164C114.496 5.89164 114.535 5.94019 114.535 6.09558C114.525 6.65557 114.525 7.21568 114.535 7.77567C114.535 7.95534 114.472 7.98447 114.331 7.97962H112.972C112.826 7.97476 112.763 7.99904 112.763 8.18356V15.778C112.768 16.5161 113.03 16.788 113.71 16.788H114.331C114.477 16.7783 114.54 16.8025 114.535 16.9871C114.525 17.7009 114.535 18.4147 114.53 19.1333C114.53 19.2159 114.574 19.3275 114.419 19.3275C113.792 19.3081 113.156 19.3907 112.539 19.245C111.214 18.9294 110.369 17.7446 110.364 16.2053V12.3304ZM66.7932 12.5732L66.7884 6.14899C66.7884 5.93534 66.8321 5.87707 67.0311 5.88193C67.7012 5.89649 68.3665 5.89164 69.0366 5.88193C69.1823 5.88193 69.2211 5.92077 69.2211 6.08101V19.1236C69.2211 19.2838 69.1774 19.3227 69.0366 19.3178C68.36 19.3089 67.6834 19.3106 67.0069 19.3227C66.8272 19.3227 66.7884 19.2741 66.7884 19.0799V12.5732M85.1286 12.5926L85.1237 6.13443C85.1237 5.93534 85.1723 5.87707 85.3568 5.88193C86.0269 5.89649 86.6921 5.89164 87.3622 5.88193C87.5176 5.88193 87.5565 5.92563 87.5565 6.09558V19.109C87.5565 19.2693 87.5273 19.3227 87.3622 19.3227C86.6954 19.3117 86.0285 19.3117 85.3617 19.3227C85.1771 19.3227 85.1189 19.279 85.1189 19.0702C85.1334 16.9094 85.1286 14.7486 85.1286 12.5926ZM105.94 12.5732V19.0313C105.945 19.245 105.892 19.2984 105.698 19.2984C105.045 19.2873 104.393 19.2873 103.741 19.2984C103.58 19.2984 103.517 19.2644 103.517 19.0702V6.08587C103.517 5.89649 103.576 5.85765 103.736 5.85765C104.406 5.86736 105.071 5.86736 105.741 5.85765C105.921 5.85765 105.945 5.92563 105.945 6.09558C105.936 8.25639 105.94 10.4172 105.94 12.5732ZM8.91251 19.3227C7.74712 19.3227 6.80025 18.3127 6.80025 17.0599C6.80025 15.7974 7.76169 14.768 8.93679 14.7728C10.0876 14.7777 11.0442 15.8217 11.0345 17.0648C11.0248 18.3272 10.0827 19.3227 8.91251 19.3227ZM11.9474 15.8071C11.9474 14.7 12.7728 13.8017 13.7926 13.7968C14.822 13.7968 15.6523 14.6951 15.6475 15.812C15.6475 16.9191 14.822 17.8125 13.7974 17.8125C12.7777 17.8125 11.9522 16.9142 11.9522 15.8071M28.253 5.84308C27.2527 5.84308 26.4564 4.99332 26.4564 3.9202C26.4564 2.85193 27.2576 1.9876 28.2482 1.9876C29.2387 1.9876 30.0351 2.84707 30.0399 3.91534C30.0399 4.98847 29.2484 5.84308 28.253 5.84308ZM35.9106 4.05616C35.9106 3.09472 36.6098 2.33236 37.4935 2.33236C38.3676 2.33236 39.0911 3.09957 39.0959 4.04645C39.1105 4.99818 38.3821 5.78481 37.4935 5.78481C36.6098 5.78481 35.9106 5.0176 35.9106 4.05616ZM4.35294 17.3124C3.4692 17.3124 2.76025 16.55 2.76025 15.5983C2.76025 14.6466 3.46434 13.8794 4.34809 13.8697C5.23669 13.8551 5.94563 14.6223 5.94078 15.6032C5.94078 16.5743 5.25612 17.3124 4.35294 17.3124ZM17.7257 11.5098C18.5706 11.5098 19.2553 12.2624 19.2504 13.1753C19.2456 14.0833 18.5463 14.8262 17.7063 14.8262C16.8614 14.8214 16.1816 14.0736 16.1864 13.151C16.1913 12.2284 16.8711 11.5 17.7257 11.5098ZM24.2033 5.05159C25.0288 5.05159 25.6795 5.75568 25.6697 6.63457C25.6697 7.52317 25.0142 8.21269 24.1936 8.21269C23.3875 8.21269 22.7369 7.50861 22.7369 6.63457C22.7369 5.75082 23.3778 5.05159 24.2033 5.05159ZM21.1733 11.4758C20.3964 11.4758 19.7846 10.8057 19.7846 9.97048C19.7846 9.12072 20.4158 8.44091 21.1927 8.45062C21.9697 8.46034 22.5863 9.13043 22.5863 9.96562C22.5863 10.8202 21.9697 11.4806 21.1733 11.4758Z" fill="white"/>
<path fill-rule="evenodd" clip-rule="evenodd" d="M41.0714 8.04751C41.0714 8.86814 40.445 9.53823 39.6875 9.54309C38.9106 9.5528 38.2793 8.86328 38.289 7.98925C38.2939 7.1492 38.9057 6.50338 39.6972 6.50824C40.4838 6.50824 41.0762 7.17348 41.0714 8.04751ZM3.57516 7.74646C3.57516 8.50396 3.00703 9.12549 2.30295 9.12549C1.60372 9.12549 1.02588 8.50396 1.02588 7.74646C1.02588 6.99381 1.60372 6.36742 2.30295 6.36256C3.00218 6.36256 3.57516 6.97925 3.57516 7.74646ZM3.0216 4.81358C3.0216 4.08521 3.5703 3.50252 4.23554 3.51223C4.90564 3.51709 5.43977 4.10463 5.43977 4.833C5.43491 5.55165 4.88621 6.1392 4.22097 6.1392C3.56544 6.1392 3.0216 5.53708 3.0216 4.81358ZM39.6001 13.4277C38.9348 13.4228 38.3861 12.811 38.4007 12.1021C38.4104 11.398 38.964 10.8056 39.6098 10.8056C40.2799 10.8056 40.8334 11.4077 40.8237 12.1409C40.8189 12.8644 40.275 13.4374 39.6001 13.4277ZM38.7018 15.0301C38.7018 15.6808 38.221 16.2101 37.6189 16.2101C37.0314 16.2101 36.5361 15.6808 36.5312 15.0544C36.5312 14.4231 37.0168 13.8793 37.5995 13.8647C38.1919 13.8502 38.6969 14.3794 38.7018 15.0301ZM6.93534 1.63791C7.5326 1.64276 8.00847 2.15747 8.01332 2.80329C8.01332 3.44425 7.51804 3.97353 6.91592 3.96867C6.32352 3.96867 5.84765 3.44911 5.84765 2.80329C5.84765 2.14776 6.32837 1.63791 6.93534 1.63791ZM35.0502 15.7488C35.6572 15.7488 36.1428 16.2683 36.1428 16.9141C36.1379 17.5551 35.6572 18.0795 35.0599 18.0795C34.4675 18.0795 33.9771 17.5648 33.9722 16.9287C33.9625 16.2732 34.4433 15.7488 35.0502 15.7488ZM32.229 16.516C32.7632 16.516 33.1856 16.9627 33.1856 17.5357C33.1856 18.1087 32.7486 18.5797 32.2145 18.57C31.6997 18.5602 31.2822 18.0989 31.2773 17.5405C31.2773 16.9676 31.6949 16.516 32.229 16.516ZM9.74198 3.20632C9.2127 3.20632 8.79025 2.74016 8.79996 2.17204C8.79996 1.60877 9.25154 1.13291 9.7614 1.14262C10.281 1.15233 10.7083 1.62819 10.7083 2.19146C10.7034 2.75959 10.2713 3.20632 9.74198 3.20632ZM29.5195 18.2252C29.0728 18.2252 28.7037 17.8173 28.7086 17.3317C28.7086 16.8364 29.0971 16.4237 29.5486 16.4334C29.9857 16.4431 30.3644 16.8559 30.3644 17.3366C30.3644 17.8222 29.9759 18.2301 29.5195 18.2252ZM15.5203 3.42483C15.5203 3.92011 15.1464 4.33285 14.6949 4.328C14.2481 4.328 13.8694 3.92011 13.8694 3.43939C13.8597 2.95382 14.2481 2.53137 14.6997 2.53622C15.1513 2.53622 15.5155 2.93439 15.5203 3.42483ZM13.141 2.46339C13.141 2.94896 12.7768 3.35199 12.3252 3.35199C11.8688 3.35199 11.4852 2.94411 11.4949 2.45367C11.4998 1.9681 11.8688 1.56992 12.3155 1.56507C12.7817 1.56507 13.141 1.95839 13.141 2.46339ZM16.6809 5.6342C16.2584 5.6342 15.9282 5.27487 15.9282 4.81843C15.9282 4.3717 16.2778 3.99295 16.6857 3.99295C17.1179 3.99781 17.4481 4.36685 17.4432 4.83785C17.4384 5.29915 17.113 5.63906 16.6809 5.6342ZM27.2713 17.1035C26.8488 17.1035 26.5186 16.7393 26.5235 16.2829C26.5284 15.8362 26.8731 15.4671 27.2859 15.4671C27.7132 15.4671 28.0434 15.841 28.0385 16.312C28.0385 16.7733 27.7083 17.1084 27.2713 17.1035ZM25.2367 14.2969C25.63 14.2969 25.9262 14.6271 25.9262 15.0495C25.9262 15.4623 25.596 15.8022 25.2222 15.7973C24.8337 15.7876 24.5423 15.4574 24.5423 15.0301C24.5423 14.5931 24.8337 14.292 25.2367 14.2969ZM19.1136 6.4354C19.1136 6.853 18.7883 7.18804 18.4095 7.17833C18.0211 7.16862 17.72 6.82872 17.7249 6.41112C17.7249 5.99838 18.0405 5.66819 18.4338 5.67305C18.8223 5.67305 19.1185 6.01295 19.1136 6.4354Z" fill="white"/>
</svg>
