<svg width="119" height="39" viewBox="0 0 119 39" fill="none" xmlns="http://www.w3.org/2000/svg">
<g clip-path="url(#clip0_133_888)">
<mask id="mask0_133_888" style="mask-type:luminance" maskUnits="userSpaceOnUse" x="0" y="0" width="119" height="39">
<path d="M0.0880737 0.201172H118.118V38.2256H0.0880737V0.201172Z" fill="white"/>
</mask>
<g mask="url(#mask0_133_888)">
<path fill-rule="evenodd" clip-rule="evenodd" d="M0.0880737 0.201172L14.6593 38.2261L34.9605 12.5717L27.7734 5.48556L0.0880737 0.201172ZM5.25395 3.22597L25.2093 7.03518L17.4632 13.7289L5.25395 3.22597ZM3.87007 4.64061L16.594 15.5869L14.6039 32.6563L3.87007 4.64061ZM27.3274 7.81335L31.5627 11.9891L19.9807 14.1651L27.3274 7.81335ZM18.4363 16.4924L31.2622 14.0844L16.5505 32.6741L18.4363 16.4924ZM74.7146 18.374C75.6506 17.4459 76.1259 16.171 76.1259 14.5835C76.1259 8.83171 71.1906 8.83363 71.1403 8.83219L62.4546 8.83123H60.7404V26.9017H62.4546V10.633H71.0905C71.3517 10.6465 74.4118 10.8891 74.4118 14.5835C74.4118 15.6657 74.1286 16.4742 73.5448 17.0568C72.4327 18.1664 70.5767 18.0781 70.5621 18.0766L63.741 18.0747V26.9017H65.4552V19.8765H70.5003L74.533 26.9627H76.5304L72.3728 19.6565C73.1377 19.4548 74.0023 19.0796 74.7146 18.374Z" fill="white"/>
<mask id="mask1_133_888" style="mask-type:alpha" maskUnits="userSpaceOnUse" x="0" y="-2" width="118" height="39">
<path fill-rule="evenodd" clip-rule="evenodd" d="M0.0880737 36.3349H117.353V-1.20723H0.0880737V36.3349Z" fill="white"/>
</mask>
<g mask="url(#mask1_133_888)">
<path fill-rule="evenodd" clip-rule="evenodd" d="M46.8925 26.9022H48.6066V14.4701H46.8925V26.9022ZM41.4777 10.6105H56.8344V8.83122H41.4777V10.6105ZM49.8917 26.9022H51.6054V14.4701H49.8917V26.9022ZM104.89 26.8224H106.624V20.2627H104.89V26.8234V26.8224Z" fill="white"/>
<path fill-rule="evenodd" clip-rule="evenodd" d="M115.619 8.95323V23.4575L101.777 7.0563V26.7869H103.511V12.4127L117.353 28.814V8.95371H115.619V8.95323ZM89.3704 25.1441C85.4713 25.1441 82.2992 21.8512 82.2992 17.8038C82.2992 13.7563 85.4713 10.4635 89.3704 10.4635C93.2695 10.4635 96.4417 13.7563 96.4417 17.8038C96.4417 21.8512 93.2695 25.1441 89.3704 25.1441ZM89.3704 8.66309C84.5147 8.66309 80.5653 12.7644 80.5653 17.8038C80.5653 22.8441 84.5147 26.944 89.3704 26.944C94.2257 26.944 98.1756 22.8441 98.1756 17.8038C98.1756 12.7644 94.2257 8.66357 89.3704 8.66357V8.66309Z" fill="white"/>
<path fill-rule="evenodd" clip-rule="evenodd" d="M89.3682 16.3622C88.7103 16.3622 88.1769 16.9156 88.1769 17.5977C88.1769 18.2812 88.7103 18.8336 89.3682 18.8336C90.0256 18.8336 90.559 18.2812 90.559 17.5977C90.559 16.9156 90.0256 16.3622 89.3682 16.3622Z" fill="white"/>
</g>
</g>
</g>
<defs>
<clipPath id="clip0_133_888">
<rect width="118.03" height="38.4284" fill="white" transform="translate(0.0880737 0.201172)"/>
</clipPath>
</defs>
</svg>
