<svg width="113" height="42" viewBox="0 0 113 42" fill="none" xmlns="http://www.w3.org/2000/svg">
<g clip-path="url(#clip0_133_868)">
<path fill-rule="evenodd" clip-rule="evenodd" d="M38.4059 20.7017C38.4059 9.3235 29.8296 0.115097 19.2333 0.115097C8.67975 0.115097 0.0587769 9.3235 0.0587769 20.7017C0.0587769 32.08 8.63512 41.2884 19.2333 41.2884C29.8296 41.2884 38.4059 32.08 38.4059 20.7017ZM21.6122 14.9169V17.9534L21.6995 17.8093C26.954 18.1942 30.9511 19.2071 30.9511 20.5576C30.9511 21.906 26.9986 23.065 21.6995 23.3059V33.2842H16.9845V23.45C11.6873 23.1597 7.69018 22.0522 7.69018 20.7017C7.69018 19.3533 11.6873 18.2416 16.9398 17.9534V14.9169H10.3873V10.1922H28.1686V14.9169H21.6122ZM16.9883 22.5339H21.6995H21.7014C26.3719 22.2436 29.8742 21.4243 29.8742 20.3641C29.8742 19.3039 26.3719 18.4351 21.748 18.1942V21.6651H16.9883V18.2437C12.3179 18.4845 8.81558 19.4006 8.81558 20.4135C8.81558 21.4243 12.3179 22.293 16.9883 22.5339Z" fill="white"/>
<path d="M56.5559 2.50933H53.6532V10.8881C53.6532 13.4244 52.3512 15.0775 50.4089 15.0775C48.3599 15.0775 47.0152 13.4244 47.0152 10.8881V2.50933H44.1125V10.8881C44.1125 15.1454 46.631 18.0214 50.4089 18.0214C54.1014 18.0214 56.5559 15.1454 56.5559 10.8881V2.50933ZM64.6666 2.16965C61.3156 2.16965 59.2239 4.07185 59.2239 6.78929C59.2239 9.75376 61.2729 10.7522 62.9804 11.1372L66.0113 11.7486C67.2919 12.0204 67.6761 12.5412 67.6761 13.4017C67.6761 14.4887 66.801 15.3266 65.1362 15.3266C63.514 15.3266 62.3188 14.5793 61.9346 12.8562L58.8824 13.5149C59.2453 16.5494 61.8706 18.0214 64.8587 18.0214C68.2524 18.0214 70.5362 16.1871 70.5362 13.2432C70.5362 10.8881 69.1061 9.41408 66.7796 8.8953L63.7061 8.23653C62.5962 8.01008 62.2761 7.46865 62.2761 6.69871C62.2761 5.67967 63.1512 4.81915 64.6026 4.81915C66.0326 4.81915 67.2065 5.74554 67.42 7.17426L70.3227 6.54019C69.7678 3.84128 67.5694 2.16965 64.6666 2.16965ZM73.0974 2.50933V17.6817H78.3693C83.0863 17.6817 86.2239 14.6246 86.2239 10.0955C86.2239 5.56644 83.0863 2.50933 78.3693 2.50933H73.0974ZM76.0002 14.8963V5.2947H78.3693C81.3361 5.2947 83.2998 7.15161 83.2998 10.0955C83.2998 13.0394 81.3361 14.8963 78.3693 14.8963H76.0002ZM99.9266 5.2947V2.50933H87.5045V5.2947H92.2642V17.6817H95.167V5.2947H99.9266Z" fill="white"/>
<path d="M55.1046 34.5195H47.1433V31.0774H54.4429V28.3394H47.1433V24.9179H55.0619V22.1325H44.2405V37.3049H55.1046V34.5195ZM70.4508 37.3049L65.6484 31.6662C68.1456 31.2812 69.7464 29.4696 69.7464 26.9333C69.7464 24.0574 67.6974 22.1325 64.6239 22.1325H57.7725V37.3049H60.6753V31.7362H62.1907L66.9077 37.3069L70.4508 37.3049ZM60.6753 28.9487V24.9179H64.6239C65.9686 24.9179 66.865 25.7331 66.865 26.9354C66.865 28.1335 65.9686 28.9487 64.6239 28.9487H60.6753ZM79.031 34.7686C76.4697 34.7686 74.4421 32.5946 74.4421 29.7187C74.4421 26.8427 76.4697 24.6914 79.031 24.6914C81.016 24.6914 82.7235 25.8463 83.2571 28.4732L86.0745 27.6353C85.3488 23.9915 82.4674 21.7928 79.031 21.7928C74.8263 21.7928 71.518 25.2802 71.518 29.7187C71.518 34.1798 74.8263 37.6445 79.031 37.6445C82.4674 37.6445 85.3701 35.4706 86.0745 31.5756L83.2571 30.9642C82.7235 33.6137 81.016 34.7686 79.031 34.7686ZM97.344 34.5195H91.944L94.1424 32.2344C96.2341 30.0584 97.2587 28.6317 97.2587 26.5257C97.2587 23.7177 95.2737 21.7928 92.3923 21.7928C89.4895 21.7928 87.4832 23.6497 87.3551 26.6389L90.0017 27.2277C90.1298 25.3029 90.9622 24.4423 92.3496 24.4423C93.5875 24.4423 94.4626 25.3276 94.4626 26.5936C94.4626 28.292 93.31 29.3111 92.4349 30.2395L87.6112 35.3121V37.3049H97.344V34.5195ZM105.199 21.7928C101.527 21.7928 99.0515 25.0085 99.0515 29.7187C99.0515 34.4536 101.527 37.6445 105.199 37.6445C108.87 37.6445 111.346 34.4536 111.346 29.7187C111.346 25.0085 108.87 21.7928 105.199 21.7928ZM105.199 34.8139C103.235 34.8139 101.997 32.7305 101.997 29.7187C101.997 26.7069 103.235 24.6235 105.199 24.6235C107.162 24.6235 108.4 26.7069 108.4 29.7187C108.4 32.7305 107.162 34.8139 105.199 34.8139Z" fill="white"/>
</g>
<defs>
<clipPath id="clip0_133_868">
<rect width="112.54" height="41.1733" fill="white" transform="translate(0.0587769 0.115097)"/>
</clipPath>
</defs>
</svg>
