<svg width="85" height="27" viewBox="0 0 85 27" fill="none" xmlns="http://www.w3.org/2000/svg">
<path fill-rule="evenodd" clip-rule="evenodd" d="M32.4337 0.523165L21.436 26.3578H14.2957L8.87885 5.70629C8.55056 4.41051 8.22227 4.00558 7.2374 3.43867C5.67802 2.54782 2.96962 1.73796 0.589508 1.25204L0.753654 0.523165H12.2438C13.7211 0.523165 15.0343 1.495 15.3626 3.19571L18.2351 18.1782L25.2934 0.604151H32.4337V0.523165ZM60.5026 17.9352C60.5026 11.1324 50.9822 10.7274 50.9822 7.73095C50.9822 6.75911 51.885 5.78728 53.8547 5.54432C54.8396 5.38235 57.4659 5.30136 60.5026 6.67813L61.6516 1.17106C60.0922 0.604151 58.0404 0.0372467 55.4141 0.0372467C48.6841 0.0372467 44.006 3.51966 43.9239 8.6218C43.9239 12.3472 47.2889 14.4528 49.8331 15.6676C52.4595 16.9634 53.3623 17.7733 53.3623 18.9071C53.3623 20.6078 51.2284 21.4176 49.3407 21.4176C45.8937 21.4986 43.9239 20.5268 42.3645 19.7979L41.1334 25.467C42.6928 26.1958 45.6474 26.8437 48.6841 26.8437C55.8245 26.7627 60.5026 23.2803 60.5026 17.9352ZM78.2303 26.3578H84.4678L78.969 0.523165H73.1418C71.8286 0.523165 70.7617 1.25204 70.2693 2.38585L60.1743 26.3578H67.3146L68.7099 22.4705H77.4096L78.2303 26.3578ZM70.5976 17.2064L74.1267 7.48799L76.1785 17.2064H70.5976ZM42.1183 0.523165L36.5374 26.3578H29.7253L35.3063 0.523165H42.1183Z" fill="white"/>
</svg>
