<svg width="127" height="31" viewBox="0 0 127 31" fill="none" xmlns="http://www.w3.org/2000/svg">
<g clip-path="url(#clip0_133_767)">
<path d="M41.4286 25.93V6.06978H48.3692C50.2122 5.95454 52.0552 6.41551 53.6237 7.41429C54.8785 8.37465 55.5451 9.87281 55.4275 11.4478C55.4275 12.3313 55.1922 13.1765 54.6824 13.9063C54.1335 14.6746 53.3884 15.2508 52.4865 15.5966C53.5061 15.827 54.408 16.4033 55.0354 17.2484C55.6628 18.0935 55.9765 19.0923 55.9372 20.1295C56.0549 21.7429 55.3883 23.3563 54.1335 24.4319C52.6042 25.5075 50.7612 26.0453 48.879 25.93H41.4286ZM44.9577 14.4441H48.4084C49.3495 14.4825 50.2514 14.2521 50.9965 13.7143C51.6631 13.1765 51.9768 12.3697 51.8983 11.563C51.9768 10.7563 51.6631 9.94964 51.0357 9.41184C50.2514 8.91245 49.3103 8.68196 48.3692 8.75879H44.9577V14.4441ZM44.9577 16.9795V23.2026H48.879C49.8201 23.241 50.7612 22.9721 51.5062 22.3959C52.0944 21.8581 52.4473 21.0514 52.4081 20.2447C52.5257 19.3612 52.2121 18.5161 51.5847 17.9014C50.9572 17.2868 50.0554 16.9795 49.1927 17.0947L44.9577 16.9795Z" fill="white"/>
<path d="M59.1135 7.33746C59.0742 6.87649 59.2703 6.41552 59.584 6.06979C59.9761 5.72406 60.4859 5.53198 60.9957 5.5704C61.5054 5.53198 62.0544 5.72406 62.4073 6.06979C62.721 6.41552 62.9171 6.87649 62.8779 7.33746C62.8779 7.79844 62.721 8.25941 62.4073 8.56672C62.0152 8.91245 61.5054 9.10453 60.9957 9.06611C60.4859 9.10453 59.9761 8.91245 59.584 8.56672C59.2703 8.25941 59.0742 7.79844 59.1135 7.33746ZM62.721 25.93H59.3095V11.1789H62.721V25.93Z" fill="white"/>
<path fill-rule="evenodd" clip-rule="evenodd" d="M70.6028 7.56795V11.1405H73.2692V13.599H70.6028V21.8965C70.5636 22.3191 70.6812 22.7801 70.9557 23.1258C71.3086 23.3947 71.7399 23.5483 72.1713 23.5099C72.5634 23.5099 72.9555 23.4715 73.3477 23.3947V25.9685C72.6418 26.1605 71.8968 26.2758 71.1518 26.2758C68.5245 26.2758 67.2305 24.8544 67.2305 21.9734V13.6374H64.7209V11.1789H67.2305V7.60636H70.6028V7.56795Z" fill="white"/>
<path fill-rule="evenodd" clip-rule="evenodd" d="M82.0529 23.5483C82.8371 23.5868 83.6214 23.3563 84.2488 22.8569C84.7977 22.3959 85.1114 21.7813 85.1507 21.0898H88.3661C88.3269 22.0118 88.0132 22.8953 87.4642 23.6636C86.9152 24.4703 86.1702 25.1233 85.2683 25.5459C84.3272 26.0069 83.2685 26.2758 82.2097 26.2373C80.3275 26.3142 78.4845 25.5843 77.1905 24.2014C75.8965 22.6648 75.2299 20.6673 75.3475 18.6697V18.324C75.2299 16.3648 75.8965 14.4441 77.1905 12.946C78.4845 11.563 80.3275 10.8332 82.2097 10.91C83.8174 10.8332 85.3859 11.371 86.6015 12.4466C87.7387 13.4838 88.4053 14.9435 88.4053 16.4801H85.0722C85.0722 15.6734 84.7585 14.9051 84.2096 14.3289C83.6214 13.7527 82.8371 13.4453 82.0136 13.5222C81.0333 13.4838 80.0922 13.9063 79.504 14.6746C78.8374 15.7118 78.4845 16.9795 78.6021 18.2087V18.7465C78.5237 20.0142 78.8374 21.2435 79.504 22.3191C80.0138 23.1642 81.0333 23.6252 82.0529 23.5483Z" fill="white"/>
<path d="M90.1699 18.4392C90.1699 17.0947 90.4444 15.7502 91.0325 14.521C91.5815 13.4069 92.4442 12.4466 93.5422 11.8319C94.6401 11.2173 95.8949 10.8716 97.1889 10.91C99.0319 10.8332 100.836 11.5246 102.13 12.8307C103.424 14.2136 104.169 16.0575 104.208 17.9398V18.7081C104.247 20.0526 103.934 21.3971 103.345 22.6264C102.796 23.7404 101.973 24.6624 100.875 25.277C99.777 25.93 98.4829 26.2374 97.1889 26.2374C95.2283 26.3142 93.3853 25.5075 92.0913 24.0861C90.7581 22.5496 90.0522 20.552 90.1699 18.5161V18.4392ZM93.5814 18.7465C93.5029 20.0142 93.8559 21.2435 94.5617 22.3191C95.1499 23.1642 96.1694 23.6636 97.2281 23.6252C98.2869 23.6636 99.3064 23.1642 99.8946 22.3191C100.6 21.1667 100.953 19.8221 100.875 18.4776C100.953 17.21 100.6 15.9807 99.8946 14.9435C99.2672 14.1368 98.2869 13.6374 97.2281 13.6374C96.1694 13.6374 95.1891 14.1368 94.5617 14.9435C93.8166 16.0575 93.4637 17.3636 93.5814 18.7465Z" fill="white"/>
<path d="M107.071 7.33746C107.031 6.87649 107.227 6.41552 107.541 6.06979C107.894 5.72406 108.404 5.53198 108.914 5.5704C109.423 5.53198 109.972 5.72406 110.325 6.06979C110.678 6.41552 110.835 6.87649 110.835 7.33746C110.835 7.79844 110.678 8.25941 110.325 8.56672C109.933 8.91245 109.423 9.10453 108.914 9.06611C108.404 9.10453 107.894 8.91245 107.502 8.56672C107.188 8.25941 107.031 7.79844 107.071 7.33746ZM110.678 25.93H107.267V11.1789H110.678V25.93Z" fill="white"/>
<path fill-rule="evenodd" clip-rule="evenodd" d="M117.462 11.1789L117.58 12.9075C118.638 11.6015 120.246 10.8716 121.971 10.9484C125.108 10.9484 126.716 12.7155 126.755 16.2496V26.0069H123.344V16.288C123.422 15.5197 123.187 14.7514 122.716 14.1368C122.167 13.6374 121.422 13.3685 120.677 13.4454C119.344 13.4454 118.128 14.2136 117.619 15.4045V25.8916H114.286V11.1789H117.462Z" fill="white"/>
<path fill-rule="evenodd" clip-rule="evenodd" d="M12.5289 30.3861C20.7243 32.4221 29.0374 27.5434 31.1156 19.5148C32.1352 15.5966 31.5078 11.4862 29.3903 8.06733C27.2728 4.61003 23.8613 2.15151 19.9008 1.19115C11.6662 -0.767986 3.39232 4.11065 1.35326 12.1777C-0.685797 20.2447 4.29421 28.3501 12.5289 30.3861ZM19.5479 9.75757C21.7046 10.4874 23.2731 11.5631 22.9594 13.5606L22.9986 13.6374C22.9202 14.8667 22.0183 15.8655 20.8027 16.096C21.587 16.4033 22.2144 17.0179 22.4889 17.7862C22.7634 18.5545 22.7241 19.3996 22.332 20.1295C21.4301 22.588 19.2734 22.8185 16.3717 22.2807L15.7051 25.0081L13.9797 24.5855L14.7248 21.9734L13.3915 21.6276L12.6857 24.3551L10.9996 23.9325L11.7054 21.1667L10.4898 20.8593L8.2939 20.3215L9.11737 18.4392L10.2937 18.5161C10.4506 18.5545 10.6074 18.5545 10.7643 18.4776C10.9211 18.4008 11.0388 18.2856 11.078 18.1319L12.2152 13.8295L12.9994 10.7563C13.0386 10.2954 12.6857 9.87282 12.2152 9.79599C12.2544 9.75757 10.9996 9.48867 10.9996 9.48867L11.4309 7.72161L13.7837 8.37465L14.8424 8.60514L15.509 5.91613L17.1952 6.33869L16.5286 8.98929L17.901 9.2966L18.5676 6.64601L20.2538 7.06856L19.5479 9.75757ZM14.1605 19.5984C15.5183 19.9839 18.5671 20.8495 19.0382 18.8618C19.5372 16.941 16.5361 16.2902 15.1321 15.9857C14.9917 15.9553 14.8673 15.9283 14.764 15.9039L13.8621 19.5148C13.9485 19.5382 14.0488 19.5667 14.1605 19.5984ZM15.4773 14.2941C16.6625 14.5983 19.1212 15.2293 19.5479 13.5222H19.6264C20.0539 11.742 17.5675 11.2305 16.3449 10.979C16.222 10.9537 16.1119 10.9311 16.0188 10.91L15.1561 14.2136C15.2474 14.2351 15.3556 14.2629 15.4773 14.2941Z" fill="white"/>
</g>
<defs>
<clipPath id="clip0_133_767">
<rect width="126.265" height="30.1937" fill="white" transform="translate(0.569 0.768585)"/>
</clipPath>
</defs>
</svg>
