<svg width="48" height="48" viewBox="0 0 48 48" fill="none" xmlns="http://www.w3.org/2000/svg">
<circle cx="24" cy="24" r="23.5" transform="matrix(-1 0 0 1 48 0)" stroke="#11100F"/>
<path d="M14.3077 24.5C14.0316 24.5 13.8077 24.2761 13.8077 24C13.8077 23.7239 14.0316 23.5 14.3077 23.5L14.3077 24.5ZM34.3536 23.6464C34.5489 23.8417 34.5489 24.1583 34.3536 24.3536L31.1716 27.5355C30.9764 27.7308 30.6598 27.7308 30.4645 27.5355C30.2693 27.3403 30.2693 27.0237 30.4645 26.8284L33.2929 24L30.4645 21.1716C30.2693 20.9763 30.2693 20.6597 30.4645 20.4645C30.6598 20.2692 30.9764 20.2692 31.1716 20.4645L34.3536 23.6464ZM14.3077 23.5L34 23.5L34 24.5L14.3077 24.5L14.3077 23.5Z" fill="#11100F"/>
</svg>
