<svg width="24" height="24" viewBox="0 0 24 24" fill="none" xmlns="http://www.w3.org/2000/svg">
<path d="M19.9537 14.6667C19.6355 17.9842 16.3162 22 12.1561 22C7.84522 22 4.43881 18.678 4.05567 14.6667C3.67483 10.6793 5.30921 8.83292 7.08673 6.34909C7.16345 6.24188 7.33596 6.29726 7.33917 6.42906C7.41755 9.65381 8.39567 9.021 8.86852 11.7052C8.89726 11.8684 9.23372 11.867 9.25985 11.7034C10.1507 6.12586 12.1278 8.25363 12.6773 2.32683C12.6883 2.20783 12.8379 2.15288 12.9155 2.24383C15.4771 5.24855 16.3156 7.44661 14.5484 12.502C14.5108 12.6096 14.6128 12.7143 14.7173 12.6688C16.3484 11.9583 17.6969 10.1717 17.8731 8.39035C17.8857 8.26276 18.0532 8.2074 18.1297 8.31027C19.1256 9.64942 20.2425 11.6553 19.9537 14.6667Z" fill="white"/>
</svg>
