<svg width="132" height="49" viewBox="0 0 132 49" fill="none" xmlns="http://www.w3.org/2000/svg">
<path d="M16.7569 20.6644C16.7569 21.3227 16.5375 23.2974 15.0016 24.6139C13.2463 25.9304 10.1745 26.3692 8.19976 26.3692C7.32211 26.3692 6.44445 26.3692 5.78621 26.1498C4.0309 25.9304 2.05618 25.4915 1.17853 23.9556C0.520286 23.078 0.300873 21.9809 0.300873 20.8838H5.78621C5.78621 21.1033 5.78621 21.7615 6.22504 22.2003C6.66387 22.4197 7.32211 22.8586 8.19976 22.8586C8.41918 22.8586 9.51624 22.8586 10.1745 22.2003C11.0521 21.5421 11.0521 20.445 11.0521 20.2256V18.2509C10.8327 18.6897 10.6133 18.9091 10.3939 18.9091C9.51624 19.7868 8.19976 20.0062 7.10269 20.0062C5.5668 20.0062 4.0309 19.5674 2.93384 18.6897C1.83677 17.812 0.300873 16.0567 0.300873 12.5461C0.300873 11.8879 0.300873 9.03551 2.27559 7.06079C3.59208 5.7443 5.5668 5.08606 7.32211 5.08606C7.76093 5.08606 9.51624 5.08606 10.8327 6.18313C11.0521 6.40254 11.2716 6.40254 11.491 7.06079V5.52489H16.7569V20.6644ZM9.51624 9.47433C9.51624 9.47433 9.07742 9.25492 8.41918 9.25492C8.19976 9.25492 7.76093 9.47433 7.54152 9.47433C6.66387 9.91316 6.00563 10.7908 6.00563 12.7655C6.00563 14.082 6.22504 14.9597 6.66387 15.1791L7.32211 15.8373H8.41918C8.63859 15.8373 9.07742 15.8373 9.51624 15.6179C10.6133 15.1791 10.8327 13.6432 10.8327 12.5461C10.8327 11.4491 10.8327 10.1326 9.51624 9.47433ZM28.1664 20.6644V19.5674C27.947 19.5674 27.7276 19.7868 27.0693 20.2256C26.4111 20.445 25.0946 20.8838 23.3393 20.8838C22.9005 20.8838 21.8034 20.8838 20.9257 20.6644C18.951 19.7868 17.854 18.2509 17.854 16.0567C17.854 15.3985 18.0734 13.4238 19.8287 12.1073C21.1452 11.4491 22.6811 11.2296 24.217 11.0102C25.0946 10.7908 25.9723 10.7908 26.8499 10.5714C27.2887 10.352 27.5082 10.352 27.947 10.352V9.47433C27.7276 9.03551 27.2887 8.59668 25.9723 8.59668H25.0946C24.217 8.81609 23.9975 9.69375 23.9975 9.91316L18.2928 10.1326C18.2928 9.69375 18.5122 9.47433 18.5122 9.25492C18.7316 8.59668 18.951 7.49961 20.2675 6.62196C21.3646 5.7443 23.1199 5.08606 26.4111 5.08606C28.8246 5.08606 32.1158 5.30548 33.2129 7.93844C33.6517 8.59668 33.6517 9.03551 33.6517 10.5714V18.6897C33.6517 19.7868 33.8712 20.0062 34.0906 20.6644H28.1664ZM25.7528 14.3014C25.0946 14.5208 24.217 14.7403 23.5587 15.1791C23.5587 15.3985 23.3393 15.6179 23.3393 15.8373C23.3393 16.4956 23.7781 17.1538 24.8752 17.1538C25.314 17.1538 25.9723 16.9344 26.4111 16.715C27.947 15.8373 27.947 14.3014 27.947 13.6432C27.2887 13.8626 26.4111 14.082 25.7528 14.3014ZM56.0319 20.6644V12.7655C56.0319 12.1073 56.2513 10.1326 53.8378 10.1326C53.399 10.1326 52.0825 10.1326 51.8631 11.6685C51.6437 11.8879 51.6437 12.1073 51.6437 12.5461V20.6644H45.7195V11.4491C45.2807 10.352 44.1836 10.1326 43.5253 10.1326C43.3059 10.1326 41.9895 10.352 41.5506 11.4491C41.5506 11.6685 41.3312 11.8879 41.3312 12.3267V20.6644H35.407V5.52489H41.1118V7.71903C41.5506 7.06079 41.77 6.84137 41.9895 6.62196C42.6477 5.96372 43.7448 5.08606 45.9389 5.08606C46.3777 5.08606 49.0107 5.08606 50.3272 6.84137C50.5466 7.06079 50.766 7.2802 51.2048 7.93844C51.4242 7.2802 51.6437 7.06079 51.8631 6.84137C52.7407 6.18313 53.8378 5.08606 56.2513 5.08606C56.6902 5.08606 57.3484 5.08606 58.4455 5.30548C59.1037 5.52489 61.0784 6.18313 61.7367 8.37727C61.9561 9.25492 61.9561 10.1326 61.9561 11.0102V20.6644H56.0319ZM76.8762 20.0062C75.7791 20.6644 74.6821 21.1033 73.3656 21.1033C71.8297 21.1033 70.7326 20.445 70.2938 20.2256L69.6356 19.5674V20.6644H63.9308V0.0395508H69.855V6.62196L70.5132 5.96372C71.3909 5.30548 72.4879 5.08606 73.585 5.08606C75.5597 5.08606 77.0956 5.7443 78.4121 7.06079C79.2898 8.15785 80.1674 9.69375 80.1674 12.7655C80.1674 13.6432 80.1674 18.0315 76.8762 20.0062ZM73.585 10.352C73.1462 9.47433 72.2685 9.47433 72.0491 9.47433C71.8297 9.47433 71.1715 9.47433 70.7326 9.91316C69.855 10.5714 69.6356 11.8879 69.6356 12.985C69.6356 14.082 69.855 15.3985 70.7326 16.2762C70.7326 16.2762 71.3909 16.715 72.0491 16.715C72.2685 16.715 72.9268 16.4956 73.585 16.0567C74.0238 15.3985 74.2432 14.5208 74.2432 12.985C74.2432 12.1073 74.2432 11.0102 73.585 10.352ZM81.2645 0.0395508H87.4081V20.6644H81.2645V0.0395508ZM89.1634 0.0395508H95.0875V3.989H89.1634V0.0395508ZM89.1634 5.52489H95.0875V20.6644H89.1634V5.52489ZM107.155 20.6644V12.3267C107.155 12.1073 107.155 11.6685 106.936 11.4491C106.936 10.7908 106.497 10.1326 104.961 10.1326C102.767 10.1326 102.767 11.8879 102.767 12.5461V20.6644H96.8428V5.52489H102.548V7.49961C102.986 7.06079 102.986 6.84137 103.206 6.62196C104.303 5.52489 106.058 5.08606 107.594 5.08606C108.033 5.08606 110.008 5.08606 111.324 6.40254C112.202 7.06079 112.641 7.93844 112.86 9.03551C113.079 9.47433 113.079 9.91316 113.079 11.0102V20.6644H107.155ZM130.633 20.6644C130.633 21.3227 130.633 23.2974 128.877 24.6139C127.122 25.9304 124.27 26.3692 122.075 26.3692C121.417 26.3692 120.54 26.3692 119.662 26.1498C118.126 25.9304 116.151 25.4915 115.054 23.9556C114.396 23.078 114.396 21.9809 114.396 20.8838H119.881C119.881 21.1033 119.662 21.7615 120.32 22.2003C120.54 22.4197 121.198 22.8586 122.075 22.8586C122.295 22.8586 123.611 22.8586 124.27 22.2003C125.147 21.5421 124.928 20.445 124.928 20.2256V18.2509C124.708 18.6897 124.708 18.9091 124.489 18.9091C123.611 19.7868 122.295 20.0062 121.198 20.0062C119.442 20.0062 118.126 19.5674 116.809 18.6897C115.712 17.812 114.396 16.0567 114.396 12.5461C114.396 11.8879 114.396 9.03551 116.151 7.06079C117.468 5.7443 119.662 5.08606 121.417 5.08606C121.856 5.08606 123.611 5.08606 124.708 6.18313C125.147 6.40254 125.147 6.40254 125.586 7.06079V5.52489H130.852V19.7868C130.633 20.0062 130.633 20.445 130.633 20.6644ZM123.611 9.47433C123.392 9.47433 122.953 9.25492 122.514 9.25492C122.075 9.25492 121.856 9.47433 121.417 9.47433C120.54 9.91316 120.101 10.7908 120.101 12.7655C120.101 14.082 120.32 14.9597 120.759 15.1791L121.417 15.8373H122.295C122.514 15.8373 122.953 15.8373 123.611 15.6179C124.708 15.1791 124.928 13.6432 124.928 12.5461C124.928 11.4491 124.708 10.1326 123.611 9.47433ZM31.0188 43.4834C27.7276 43.4834 26.6305 42.3864 26.1917 40.8505C25.9723 40.1922 25.9723 39.7534 25.9723 39.0952V31.8545H23.9975V28.5633H26.1917V23.7362H32.1158V28.5633H34.7488V31.8545H32.1158L31.8964 37.5593C31.8964 38.2175 32.1158 39.0952 33.6517 39.0952H34.7488V43.264C34.31 43.264 32.5547 43.4834 31.0188 43.4834ZM58.8843 36.901C58.8843 36.901 58.8843 37.5593 59.1037 37.9981C59.3231 38.6563 59.762 39.7534 61.5173 39.7534C62.3949 39.7534 62.8337 39.3146 63.2726 39.0952C63.7114 38.6563 64.1502 37.9981 64.1502 37.7787L69.1967 39.7534C68.9773 39.9728 68.7579 40.4116 68.3191 40.8505C67.4414 41.9475 66.1249 42.6058 65.6861 43.0446C64.8085 43.264 63.2726 43.9223 61.0784 43.9223C59.9814 43.9223 58.6649 43.7029 57.5678 43.264C54.496 41.9475 52.7407 38.8758 52.7407 35.5845C52.7407 32.5128 54.2766 30.538 55.1543 29.8798C57.3484 27.6857 60.2008 27.4662 61.0784 27.4662C62.1755 27.4662 65.2473 27.6857 67.4414 30.0992C68.0997 30.7575 68.7579 31.8545 68.9773 32.9516C69.4162 34.2681 69.4162 35.3651 69.4162 36.901H58.8843ZM63.2726 32.7322C62.8337 31.6351 61.7367 31.4157 61.2978 31.4157C60.859 31.4157 60.4202 31.6351 60.2008 31.6351C59.1037 32.0739 59.1037 33.3904 58.8843 33.6098H63.2726V32.7322ZM80.3868 32.9516C79.7286 32.9516 77.315 32.7322 76.4374 34.7069V43.264H70.2938V28.1245H76.218V29.441L76.8762 28.7827C78.4121 27.9051 79.5092 27.9051 81.2645 27.9051V32.9516H80.3868ZM91.5769 43.264V42.167C91.3575 42.3864 91.1381 42.6058 90.4799 42.8252C89.8216 43.264 88.5051 43.7029 86.5304 43.7029C86.311 43.7029 85.2139 43.7029 84.1169 43.264C82.1421 42.6058 81.2645 40.8505 81.2645 38.8758C81.2645 37.9981 81.2645 36.2428 83.2392 34.9263C84.5557 34.0487 86.0916 33.8292 87.6275 33.6098C88.5051 33.6098 89.3828 33.3904 90.2604 33.171C90.4799 33.171 90.9187 32.9516 91.3575 32.9516C91.3575 32.9516 91.3575 32.5128 91.1381 32.2933C91.1381 31.6351 90.6993 31.1963 89.3828 31.1963H88.5051C87.4081 31.4157 87.4081 32.2933 87.4081 32.5128L81.7033 32.7322C81.7033 32.5128 81.9227 32.0739 81.9227 31.8545C81.9227 31.1963 82.3615 30.3186 83.4586 29.2216C84.7751 28.3439 86.5304 27.6857 89.8216 27.6857C92.2352 27.6857 95.307 28.1245 96.6234 30.538C96.8428 31.1963 97.0623 31.8545 97.0623 33.171V41.5087C97.0623 42.6058 97.0623 42.8252 97.5011 43.264H91.5769ZM88.944 36.901C88.2857 37.1204 87.4081 37.3399 86.9692 37.9981C86.9692 37.9981 86.7498 38.2175 86.7498 38.6563C86.7498 39.0952 87.1887 39.7534 88.2857 39.7534C88.7245 39.7534 89.1634 39.534 89.6022 39.3146C91.3575 38.4369 91.3575 36.901 91.3575 36.2428C90.4799 36.4622 89.8216 36.6816 88.944 36.901ZM108.472 43.7029C108.033 43.7029 106.497 43.7029 105.181 42.8252C104.961 42.6058 104.961 42.6058 104.522 42.3864V48.7494H98.8176V28.1245H104.522V29.441L105.181 28.7827C105.839 28.3439 106.936 27.9051 108.691 27.9051C113.299 27.9051 115.274 31.6351 115.274 35.804C115.274 39.9728 113.299 43.7029 108.472 43.7029ZM108.691 32.9516C108.033 32.2933 107.375 32.0739 106.936 32.0739C106.716 32.0739 106.278 32.2933 105.839 32.5128C104.522 33.171 104.522 34.7069 104.522 35.804C104.522 37.1204 104.742 38.6563 105.839 39.0952C106.278 39.534 106.716 39.534 106.936 39.534C107.155 39.534 107.594 39.534 108.033 39.0952C109.13 38.4369 109.349 37.1204 109.349 35.804C109.349 34.9263 109.13 33.8292 108.691 32.9516ZM126.464 44.1417C126.025 45.4582 125.367 46.9941 124.27 47.8717C123.172 48.7494 121.856 48.7494 120.54 48.7494H119.004L117.248 48.53V44.3611H119.004C119.881 44.3611 120.32 44.1417 120.32 43.7029C120.32 43.4834 120.101 42.8252 119.881 42.167L115.054 28.1245H121.198L123.392 37.9981C123.392 37.9981 125.586 28.3439 125.805 28.1245H131.949L126.464 44.1417ZM51.6437 31.4157C51.4242 30.3186 50.766 29.441 50.3272 29.0021C49.2301 27.9051 47.6942 27.4662 46.1583 27.4662C43.9642 27.4662 42.6477 28.3439 41.9895 29.0021L41.3312 29.6604V22.6391H35.407V43.264H41.3312V32.5128H46.5971V43.264H51.8631V33.3904C51.8631 32.7322 51.6437 32.2933 51.6437 31.4157Z" fill="#3B3648"/>
<path d="M41.3304 32.5137L44.6216 33.6107V41.729L41.3304 43.2649V32.5137Z" fill="#3B3648"/>
</svg>
