<svg width="66" height="73" viewBox="0 0 66 73" fill="none" xmlns="http://www.w3.org/2000/svg">
<path fill-rule="evenodd" clip-rule="evenodd" d="M31.0587 48.8841V43.1626C32.203 43.3534 33.1566 43.3534 34.3009 43.3534C40.7853 43.3534 46.5068 41.6369 50.7025 38.7762L42.5017 39.1576C41.5482 39.3483 40.976 38.9669 40.4039 38.3947C39.8317 37.8226 39.4503 37.2504 39.641 36.2968C39.641 34.7711 40.7853 33.8175 42.311 33.8175H61.9548C62.9084 33.8175 63.6713 34.199 64.4341 35.1525C65.0063 35.9154 65.197 36.869 64.8156 37.8226L61.7641 49.2656C61.192 50.982 59.4755 52.1263 57.5683 51.7449L56.6148 51.5542C55.6612 51.3635 54.8983 50.7913 54.3262 49.8377C53.754 49.0749 53.5633 47.9306 53.9447 46.977L55.2797 43.5441C49.9397 46.7863 42.5017 48.8841 34.4916 48.8841H31.0587ZM31.0587 13.6016V9.59653H34.4916C41.5482 9.59653 48.2232 11.1223 53.3726 13.983C54.1354 14.3644 54.5169 14.9366 54.5169 15.6995C54.7076 16.4623 54.5169 17.0345 53.9447 17.6066L53.5633 17.7973C52.8004 18.5602 51.6561 18.7509 50.7025 18.1788C46.5068 15.318 40.7853 13.4109 34.3009 13.4109C33.1566 13.4109 32.203 13.6016 31.0587 13.6016ZM5.50273 0.442139H31.0587V57.2757H5.50273C3.02342 57.2757 0.925537 55.3685 0.925537 52.8892V5.01934C0.925537 2.54002 3.02342 0.442139 5.50273 0.442139ZM31.0587 9.59653V13.6016C19.9972 14.5552 11.4149 20.8488 11.4149 28.4775C11.4149 35.9154 19.9972 42.2091 31.0587 43.1626V48.8841C15.9921 47.7398 4.35843 39.3483 4.35843 29.2403C4.35843 19.1324 15.9921 10.7408 31.0587 9.59653ZM11.4149 67.1929H5.31202V68.7187H9.6985C9.50778 69.2908 8.93563 70.0537 8.36348 70.4351C7.79133 70.8165 7.02847 71.198 6.07488 71.0073C2.45127 70.6258 1.6884 65.6672 4.73987 63.9507C5.69345 63.3786 7.21918 63.3786 8.36348 64.1415C9.6985 64.9043 7.98205 64.9043 10.8428 64.9043C10.6521 63.9507 9.50778 62.8064 8.5542 62.425C7.21918 62.0436 5.69345 62.0436 4.35843 62.425C2.45127 63.3786 0.734821 65.6672 1.49769 68.7187C2.06984 71.0073 4.35843 72.9144 7.21918 72.533C9.12635 72.1516 10.4614 70.8165 11.0335 69.2908C11.2242 68.9094 11.6057 67.7651 11.4149 67.1929ZM54.5169 67.0022V64.5229C55.6612 64.5229 56.8055 64.5229 56.8055 65.6672C56.8055 67.0022 55.6612 67.0022 54.5169 67.0022ZM52.0376 72.3423H54.5169V69.1001C54.7076 69.2908 56.2333 71.9608 56.424 72.3423H59.4755C59.2848 72.1516 57.3776 69.4815 56.9962 68.9094C57.3776 68.7187 57.7591 68.7187 58.3312 68.1465C58.5219 67.9558 58.9034 67.5744 59.0941 67.0022C59.6662 65.095 58.9034 62.425 56.0426 62.425C54.8983 62.2343 53.3726 62.2343 52.0376 62.2343V72.3423ZM42.5017 68.5279C39.0688 68.5279 40.2131 68.3372 39.4503 69.2908C38.6874 69.863 37.9245 70.2444 36.7802 69.863C34.3009 69.1001 34.3009 65.2858 36.971 64.7136C37.9245 64.5229 38.6874 64.7136 39.4503 65.4765C40.2131 66.2393 39.0688 66.0486 42.5017 66.0486C42.5017 65.4765 42.1203 64.7136 41.7389 64.3322C40.7853 62.8064 39.0688 62.0436 36.971 62.2343C34.4916 62.425 32.3938 64.5229 32.3938 67.1929C32.3938 70.0537 34.3009 72.1516 36.7802 72.533C38.8781 72.7237 40.5946 71.9608 41.7389 70.2444C41.9296 69.863 42.5017 69.1001 42.5017 68.5279ZM21.1415 72.3423H22.4765V63.76C22.6672 63.9507 24.5744 69.2908 24.7651 70.2444C24.9558 70.6258 25.528 72.1516 25.7187 72.3423H26.6723C27.0537 71.3887 27.8166 69.1001 28.198 67.9558C28.5794 67.3836 28.7701 66.6208 29.1516 65.8579L29.9144 63.76L29.7237 72.3423H31.2495V62.2343H28.9609C28.7701 63.1879 27.2444 67.0022 26.863 68.1465C26.863 68.3372 26.2908 69.863 26.1001 70.0537L23.2394 62.425L21.1415 62.2343V72.3423ZM46.8882 65.6672C46.8882 65.8579 47.8418 68.7187 47.8418 68.7187H45.9346L46.8882 65.6672ZM42.1203 72.3423H44.5996L45.1718 70.8165H48.414L48.9861 72.3423H51.6561C51.6561 72.1516 49.9397 67.7651 49.749 67.3836C49.3675 66.4301 49.1768 65.6672 48.7954 64.9043C48.6047 64.3322 48.0325 62.6157 47.8418 62.2343H45.9346L44.0275 67.3836C43.646 67.9558 42.1203 71.9608 42.1203 72.3423ZM65.7692 66.0486L62.9084 66.2393V64.5229H65.7692V62.425H60.4291V72.3423H65.7692V70.0537H62.9084V68.3372H65.7692V66.0486ZM15.8014 64.3322C15.8014 64.5229 17.1364 67.7651 17.1364 67.9558H14.2757C14.2757 67.7651 15.6107 64.5229 15.8014 64.3322ZM11.0335 72.3423H12.5592L13.7035 69.4815H17.7086C17.8993 69.863 18.09 70.4351 18.2807 70.8165C18.2807 71.198 18.6622 72.1516 18.8529 72.3423H20.3786C20.3786 71.9608 18.6622 67.9558 18.4715 67.3836C18.09 66.8115 16.5643 62.6157 16.3736 62.2343H15.0386L11.0335 72.3423ZM65.7692 66.0486V68.3372H62.9084V70.0537H65.7692V72.3423H60.4291V62.425H65.7692V64.5229C65.9599 64.5229 65.9599 64.5229 65.9599 63.9507C65.9599 63.5693 65.9599 62.6157 65.7692 62.2343H60.4291C60.4291 62.425 60.2384 71.9608 60.4291 72.3423H65.7692L65.9599 70.0537H62.9084V68.3372H65.7692C65.9599 68.1465 65.9599 67.5744 65.9599 67.1929C65.9599 67.0022 65.9599 66.2393 65.7692 66.0486Z" fill="#3B3648"/>
</svg>
