<svg width="124" height="55" viewBox="0 0 124 55" fill="none" xmlns="http://www.w3.org/2000/svg">
<path d="M7.15098 0.719971H116.052C118.016 0.719971 119.841 1.45771 121.104 2.56432C122.367 3.67094 123.068 5.14642 123.068 6.86782V48.7961C123.068 50.5175 122.367 51.993 121.104 53.2226C119.841 54.3292 118.016 54.944 116.052 54.944H7.15098C5.18628 54.944 3.50225 54.3292 2.23923 53.2226V53.0996C0.976202 51.993 0.134186 50.5175 0.134186 48.7961V6.86782C0.134186 5.14642 0.976202 3.67094 2.23923 2.56432C3.50225 1.45771 5.18628 0.719971 7.15098 0.719971ZM116.052 1.94954H7.15098C5.60729 1.94954 4.20393 2.56432 3.22158 3.42502C2.23923 4.28572 1.53755 5.51529 1.53755 6.86782V48.7961C1.53755 50.1487 2.23923 51.3782 3.22158 52.2389C4.20393 53.0996 5.60729 53.7144 7.15098 53.7144H116.052C117.595 53.7144 118.999 53.0996 119.981 52.2389C121.104 51.3782 121.665 50.1487 121.665 48.7961V6.86782C121.665 5.51529 121.104 4.28572 119.981 3.42502C118.999 2.56432 117.595 1.94954 116.052 1.94954Z" fill="#3B3648"/>
<path d="M21.0446 24.6962H23.0093V18.3025C23.4303 18.4254 23.5707 18.4254 23.9917 18.4254C25.5354 18.4254 27.2194 17.8107 28.2018 16.7041C28.9034 15.8434 29.3245 14.8597 29.3245 13.5072C29.3245 12.1546 28.7631 10.9251 27.9211 10.1873C27.0791 9.44959 25.6757 9.08072 23.9917 9.08072C22.869 9.08072 21.8866 9.20368 21.0446 9.32663V24.6962ZM23.0093 10.6792C23.29 10.5562 23.711 10.5562 24.2724 10.5562C26.5177 10.5562 27.2194 11.9087 27.2194 13.5072C27.2194 15.7204 25.8161 16.95 23.8514 16.95C23.5707 16.95 23.29 16.95 23.0093 16.827V10.6792ZM31.5698 24.6962H33.6749V17.9336H34.3765C36.2009 17.9336 36.9026 18.7943 37.3236 20.8846C37.6043 22.8519 38.0253 24.3274 38.306 24.6962H40.2707C40.1303 24.3274 39.7093 22.9749 39.2883 20.7616C38.8673 18.7943 38.306 17.6877 36.9026 17.3188V17.1959C38.727 16.5811 39.8496 15.2286 39.8496 13.2613C39.8496 12.0317 39.4286 10.9251 38.5866 10.1873C37.6043 9.44959 36.3413 9.08072 34.5169 9.08072C33.5345 9.08072 32.4118 9.20368 31.5698 9.32663V24.6962ZM33.6749 10.5562H34.6572C36.9026 10.5562 37.7446 11.6628 37.7446 13.5072C37.7446 15.3515 36.4816 16.5811 34.5169 16.5811H33.6749V10.5562ZM46.8664 8.95776C43.7791 8.95776 41.674 11.7858 41.674 16.95C41.674 22.2371 43.6387 24.9422 46.5858 24.9422C49.3925 24.9422 51.7782 22.7289 51.7782 16.827C51.7782 11.9087 49.9538 8.95776 46.8664 8.95776ZM46.7261 10.5562C48.9715 10.5562 49.6732 13.999 49.6732 16.95C49.6732 19.9009 48.9715 23.3437 46.7261 23.3437C44.4807 23.3437 43.7791 20.1468 43.7791 16.95C43.7791 13.7531 44.4807 10.5562 46.7261 10.5562ZM58.9353 24.6962L63.1454 9.20368H60.9L59.216 16.4581C58.795 18.3025 58.374 20.3928 58.0933 22.483H57.953C57.6723 20.5157 57.111 18.1795 56.69 16.4581L55.0059 9.20368H52.7606L56.8303 24.6962H58.9353ZM70.0219 20.0239L71.2849 24.6962H73.2496L69.3202 9.20368H67.0748L63.0051 24.6962H64.9698L66.0925 20.0239H70.0219ZM66.3731 18.6714L67.3555 14.7367C67.6362 13.6301 67.7765 12.2776 68.0572 11.171H68.1975C68.3378 12.2776 68.6185 13.5072 68.8992 14.7367L69.7412 18.6714H66.3731ZM75.495 24.6962C76.0563 24.8192 76.758 24.8192 78.1614 24.8192C80.1261 24.8192 81.8101 24.4503 82.7924 23.4667C83.6345 22.7289 84.0555 21.6223 84.0555 20.3928C84.0555 18.3025 82.9328 16.827 80.8277 16.3352C82.5118 15.7204 83.4941 14.3679 83.4941 12.7694C83.4941 11.6628 83.2135 10.8021 82.3714 10.1873C81.3891 9.32663 80.1261 9.08072 78.442 9.08072C77.3193 9.08072 76.337 9.20368 75.495 9.32663V24.6962ZM77.4597 10.5562C77.7404 10.5562 78.1614 10.4332 78.5824 10.4332C80.8277 10.4332 81.5294 11.5399 81.5294 13.0153C81.5294 14.6138 80.1261 15.7204 78.442 15.7204H77.4597V10.5562ZM77.4597 17.1959H78.442C80.2664 17.1959 82.0908 18.1795 82.0908 20.3928C82.0908 22.3601 80.6874 23.4667 78.5824 23.4667C78.021 23.4667 77.7404 23.3437 77.4597 23.3437V17.1959ZM86.4412 24.6962H93.5983V23.2208H88.5462V9.20368H86.4412V24.6962ZM98.0891 24.6962V18.0566L102.159 9.20368H100.054L98.5101 13.0153C98.0891 14.2449 97.6681 15.3515 97.2471 16.5811C96.826 15.3515 96.405 14.122 95.8437 13.0153L94.3 9.20368H92.195L96.1244 18.1795V24.6962H98.0891ZM44.7614 46.7055H46.7261V39.697H51.2169V38.0986H46.7261V32.6884H51.4975V31.09H44.7614V46.7055ZM58.6547 42.0332L59.9177 46.7055H61.8824L57.953 31.09H55.7076L51.6379 46.7055H53.6026L54.7253 42.0332H58.6547ZM55.0059 40.5577L55.9883 36.6231C56.269 35.6394 56.5496 34.2869 56.69 33.0573H56.8303C56.9706 34.2869 57.2513 35.5165 57.532 36.6231L58.5143 40.5577H55.0059ZM64.1278 31.09V46.7055H66.2328V31.09H64.1278ZM69.4605 46.7055H71.4252V39.9429H72.2673C73.9513 39.9429 74.7933 40.6807 75.074 42.8939C75.495 44.7382 75.7757 46.2137 76.0563 46.7055H78.1614C77.8807 46.2137 77.6 44.9841 77.179 42.7709C76.758 40.6807 76.0563 39.574 74.7933 39.3281V39.2052C76.4773 38.4674 77.6 37.2379 77.6 35.2705C77.6 34.041 77.179 32.9344 76.337 32.1966C75.495 31.3359 74.0916 31.09 72.2673 31.09C71.2849 31.09 70.3026 31.09 69.4605 31.3359V46.7055ZM71.4252 32.5655C71.7059 32.5655 72.1269 32.4425 72.5479 32.4425C74.653 32.5655 75.495 33.6721 75.495 35.3935C75.495 37.3608 74.232 38.5904 72.2673 38.5904H71.4252V32.5655Z" fill="#3B3648"/>
</svg>
