<svg width="59" height="54" viewBox="0 0 59 54" fill="none" xmlns="http://www.w3.org/2000/svg">
<path d="M35.8264 25.448H12.5108C11.9421 25.448 11.3734 25.0215 11.3734 24.3107V13.5059C11.3734 12.9372 11.7999 12.3685 12.5108 12.3685H35.9686C36.5373 12.3685 37.1059 12.795 37.1059 13.5059V24.3107C36.9638 25.0215 36.5373 25.448 35.8264 25.448ZM13.506 23.3155H34.8312V14.6432H13.506V23.3155Z" fill="white"/>
<path d="M47.342 43.2193H1.1372C0.710693 43.2193 0.426356 43.0771 0.284188 42.6506C0.142019 42.3663 -0.00014931 41.9398 0.284188 41.6554L6.1131 29.7133V8.10366C6.1131 7.53499 6.5396 6.96631 7.25044 6.96631H41.6552C42.2239 6.96631 42.7926 7.39282 42.7926 8.10366V29.7133L48.6215 41.6554C48.7636 41.9398 48.7636 42.3663 48.6215 42.6506C48.0528 42.9349 47.6263 43.2193 47.342 43.2193ZM2.70105 41.0867H45.4938L40.3757 30.4241C40.3757 30.2819 40.2335 30.1398 40.2335 29.9976V9.24101H7.96129V29.9976C7.96129 30.1398 7.96129 30.2819 7.81912 30.4241L2.70105 41.0867Z" fill="white"/>
<path d="M16.7758 35.5423H12.5108C11.9421 35.5423 11.3734 35.1158 11.3734 34.4049C11.3734 33.8363 11.7999 33.2676 12.5108 33.2676H16.7758C17.3445 33.2676 17.9132 33.6941 17.9132 34.4049C17.771 35.1158 17.3445 35.5423 16.7758 35.5423Z" fill="white"/>
<path d="M26.3011 35.5423H22.036C21.4673 35.5423 20.8987 35.1158 20.8987 34.4049C20.8987 33.8363 21.3252 33.2676 22.036 33.2676H26.3011C26.8697 33.2676 27.4384 33.6941 27.4384 34.4049C27.4384 35.1158 26.8697 35.5423 26.3011 35.5423Z" fill="white"/>
<path d="M35.8266 35.5423H31.5615C30.9928 35.5423 30.4242 35.1158 30.4242 34.4049C30.4242 33.8363 30.8507 33.2676 31.5615 33.2676H35.8266C36.3952 33.2676 36.9639 33.6941 36.9639 34.4049C36.9639 35.1158 36.5374 35.5423 35.8266 35.5423Z" fill="white"/>
<path d="M47.3421 53.3132H1.13735C0.568674 53.3132 0 52.8867 0 52.1758V41.9397C0 41.371 0.426505 40.8024 1.13735 40.8024H47.3421C47.9108 40.8024 48.4795 41.2289 48.4795 41.9397V52.1758C48.3373 52.8867 47.9108 53.3132 47.3421 53.3132ZM2.13253 51.1807H46.2048V43.0771H2.13253V51.1807Z" fill="white"/>
<path d="M41.371 9.24095H6.96623C6.53972 9.24095 6.25539 9.09879 6.11322 8.67229C5.97105 8.38795 5.97105 7.96143 6.11322 7.67709L10.0939 0.568665C10.2361 0.284328 10.6626 0 11.0891 0H37.6746C38.1011 0 38.3855 0.14216 38.6698 0.568665L42.6505 7.67709C42.7927 7.96143 42.7927 8.38795 42.6505 8.67229C42.0818 8.95662 41.7975 9.24095 41.371 9.24095ZM8.81442 7.10842H39.665L36.9638 2.13253H11.5156L8.81442 7.10842Z" fill="white"/>
<path d="M47.3421 30.9927H41.3711C40.8024 30.9927 40.2337 30.5662 40.2337 29.8553V22.8891C40.2337 22.3204 40.6602 21.7517 41.3711 21.7517H47.3421C47.9108 21.7517 48.4795 22.1782 48.4795 22.8891V29.8553C48.3373 30.5662 47.9108 30.9927 47.3421 30.9927ZM42.5084 28.8601H46.347V24.0264H42.5084V28.8601Z" fill="white"/>
<path d="M53.8819 27.5807H47.3422C46.7735 27.5807 46.2048 27.1542 46.2048 26.4434C46.2048 25.8747 46.6313 25.306 47.3422 25.306H52.8867V15.9229C52.8867 15.3542 53.3132 14.7855 54.0241 14.7855C54.5927 14.7855 55.1614 15.212 55.1614 15.9229V26.4434C54.8771 27.012 54.4506 27.5807 53.8819 27.5807Z" fill="white"/>
<path d="M53.8819 17.0602C51.0386 17.0602 48.7639 14.7855 48.7639 11.9421C48.7639 9.09878 51.0386 6.8241 53.8819 6.8241C56.7253 6.8241 59 9.09878 59 11.9421C59 14.7855 56.7253 17.0602 53.8819 17.0602ZM53.8819 8.81445C52.1759 8.81445 50.8964 10.2361 50.8964 11.8C50.8964 13.506 52.3181 14.7855 53.8819 14.7855C55.588 14.7855 56.8675 13.3638 56.8675 11.8C56.8675 10.2361 55.4458 8.81445 53.8819 8.81445Z" fill="white"/>
</svg>
