<svg width="50" height="53" viewBox="0 0 50 53" fill="none" xmlns="http://www.w3.org/2000/svg">
<path d="M30.3221 53H1.01921C0.509592 53 0.12738 52.6178 0.12738 51.9808V1.01925C0.12738 0.509639 0.509592 0 1.01921 0H30.3221C30.8317 0 31.3413 0.382235 31.3413 1.01925V20.8942C31.3413 21.4038 30.9591 21.9135 30.3221 21.9135C27.137 21.9135 24.0793 23.1875 21.786 25.4808C19.4928 27.774 18.2187 30.7043 18.2187 34.0168C18.2187 34.5265 17.8365 35.0361 17.1995 35.0361H12.9952C13.1226 38.2211 14.2692 41.4063 16.1803 44.0817C16.6899 44.8462 17.3269 45.6106 18.0913 46.2476C21.4038 49.5601 25.6081 51.3438 30.1947 51.3438C30.7043 51.3438 31.2139 51.726 31.2139 52.363C31.3413 52.6178 30.8317 53 30.3221 53ZM2.03844 51.0889H22.0408C20.1298 50.1971 18.3461 48.9231 16.8173 47.3942C16.0529 46.6298 15.4158 45.738 14.7788 44.9736C12.4856 41.7885 11.2115 37.8389 11.2115 33.8894C11.2115 33.3798 11.5937 32.8702 12.2307 32.8702H16.5625C16.8173 29.5577 18.2187 26.3726 20.6394 23.9519C23.0601 21.5313 26.1178 20.1298 29.5577 19.875V1.91106H2.03844V51.0889Z" fill="white"/>
<path d="M17.4544 47.6491C17.1996 47.6491 16.9448 47.5217 16.8174 47.3943C16.053 46.6298 15.4159 45.738 14.7789 44.9736C12.4856 41.7885 11.2116 37.839 11.2116 33.8895C11.2116 33.3798 11.5938 32.8702 12.2308 32.8702H17.4544C17.964 32.8702 18.4736 33.2524 18.4736 33.8895C18.4736 37.0745 19.7477 40.1323 22.0409 42.4255C22.4231 42.8077 22.4231 43.4447 22.0409 43.8269L18.3462 47.5217C17.964 47.5217 17.7092 47.6491 17.4544 47.6491ZM13.1227 34.9087C13.2501 38.0938 14.3967 41.2789 16.3078 43.9543C16.69 44.464 17.0722 44.9736 17.4544 45.4832L19.7477 43.1899C17.7092 40.8966 16.5626 38.0938 16.3078 35.0361H13.1227V34.9087Z" fill="white"/>
<path d="M30.3221 9.68276H1.01923C0.509615 9.68276 0 9.30056 0 8.66354C0 8.15393 0.382211 7.64429 1.01923 7.64429H30.3221C30.8317 7.64429 31.3413 8.02652 31.3413 8.66354C31.3413 9.30056 30.8317 9.68276 30.3221 9.68276Z" fill="white"/>
<path d="M15.5432 45.3559H1.01921C0.509592 45.3559 0.12738 44.9737 0.12738 44.3366C0.12738 43.827 0.509592 43.3174 1.01921 43.3174H15.4158C15.9255 43.3174 16.4351 43.6996 16.4351 44.3366C16.4351 44.9737 16.0529 45.3559 15.5432 45.3559Z" fill="white"/>
<path d="M18.7283 5.86061H12.7403C12.2307 5.86061 11.7211 5.47842 11.7211 4.8414C11.7211 4.33178 12.1033 3.82214 12.7403 3.82214H18.7283C19.2379 3.82214 19.7475 4.20438 19.7475 4.8414C19.6201 5.47842 19.2379 5.86061 18.7283 5.86061Z" fill="white"/>
<path d="M21.1489 25.6082C20.8941 25.6082 20.6393 25.4808 20.5119 25.3534L16.8172 21.6587C16.435 21.2765 16.435 20.6395 16.8172 20.2572C20.3845 16.6899 25.2259 14.6515 30.322 14.6515C30.8316 14.6515 31.3412 15.0337 31.3412 15.6707V20.8943C31.3412 21.4039 30.959 21.9135 30.322 21.9135C27.1369 21.9135 24.0792 23.1875 21.786 25.4808C21.6586 25.6082 21.4037 25.6082 21.1489 25.6082ZM18.8557 21.0217L21.1489 23.315C23.4422 21.2765 26.2451 20.1299 29.3028 19.8751V16.69C25.4807 16.9448 21.786 18.4736 18.8557 21.0217Z" fill="white"/>
<path d="M39.4951 25.6082C39.2403 25.6082 38.9855 25.4808 38.8581 25.3534C36.5648 23.0601 33.6346 21.7861 30.3221 21.7861C29.8124 21.7861 29.3028 21.4039 29.3028 20.7669V15.5433C29.3028 15.0337 29.685 14.524 30.3221 14.524C35.4182 14.524 40.2596 16.5625 43.8269 20.1298C44.2091 20.5121 44.2091 21.149 43.8269 21.5313L40.1322 25.226C40.0047 25.6082 39.7499 25.6082 39.4951 25.6082ZM31.3413 20.0024C34.399 20.2572 37.2019 21.4039 39.4951 23.4423L41.7884 21.1491C38.8581 18.4736 35.1634 16.9447 31.3413 16.8173V20.0024Z" fill="white"/>
<path d="M48.5407 34.9087H43.3172C42.8075 34.9087 42.2979 34.5265 42.2979 33.8895C42.2979 30.7044 41.0239 27.6467 38.7306 25.3534C38.3484 24.9712 38.3484 24.3342 38.7306 23.952L42.4253 20.2572C42.8075 19.875 43.4446 19.875 43.8268 20.2572C47.3941 23.8245 49.4325 28.6659 49.4325 33.7621C49.4325 34.3991 49.0503 34.9087 48.5407 34.9087ZM44.209 32.9976H47.5215C47.2667 29.0481 45.7378 25.3534 43.1898 22.4231L40.8965 24.7164C42.8076 27.0096 43.9542 29.9399 44.209 32.9976Z" fill="white"/>
<path d="M17.3268 34.9086H12.1032C11.5936 34.9086 11.084 34.5264 11.084 33.8894C11.084 28.7932 13.1225 23.9519 16.6898 20.3846C17.072 20.0023 17.709 20.0023 18.0912 20.3846L21.7859 24.0793C22.1681 24.4615 22.1681 25.0985 21.7859 25.4807C19.4927 27.774 18.2186 30.7043 18.2186 34.0168C18.346 34.399 17.8364 34.9086 17.3268 34.9086ZM13.1225 32.9975H16.435C16.6898 29.9398 17.8364 27.137 19.8749 24.8437L17.5816 22.5504C14.9061 25.3533 13.3773 29.048 13.1225 32.9975Z" fill="white"/>
<path d="M30.3221 53C29.8124 53 29.3028 52.6178 29.3028 51.9808V46.7572C29.3028 46.2476 29.685 45.738 30.3221 45.738C33.5072 45.738 36.5648 44.464 38.8581 42.1707C39.2403 41.7885 39.8773 41.7885 40.2596 42.1707L43.9543 45.8654C44.3365 46.2476 44.3365 46.8846 43.9543 47.2668C40.2596 50.9616 35.4182 53 30.3221 53ZM31.3413 47.7765V51.089C35.2908 50.8342 38.8581 49.3053 41.7884 46.7572L39.4951 44.4639C37.2019 46.375 34.2716 47.5216 31.3413 47.7765Z" fill="white"/>
<path d="M43.1897 47.6491C42.9349 47.6491 42.6801 47.5218 42.5527 47.3944L38.858 43.6997C38.4758 43.3174 38.4758 42.6804 38.858 42.2982C41.1512 40.0049 42.4253 37.0746 42.4253 33.7621C42.4253 33.2525 42.8075 32.7429 43.4445 32.7429H48.6681C49.1777 32.7429 49.6873 33.1251 49.6873 33.7621C49.6873 38.8583 47.6488 43.6996 44.0815 47.2669C43.6993 47.5218 43.4445 47.6491 43.1897 47.6491ZM40.769 43.0626L43.0623 45.3559C45.7378 42.4256 47.2666 38.7309 47.394 34.9088H44.2089C43.9541 37.839 42.8075 40.7694 40.769 43.0626Z" fill="white"/>
<path d="M30.3219 47.7765C27.3916 47.7765 24.5888 46.8846 22.1681 45.101C21.5311 44.7188 21.0214 44.2092 20.5118 43.6996C17.8363 41.0241 16.4349 37.5842 16.4349 33.8895C16.4349 30.1947 17.8363 26.6274 20.5118 24.0793C23.1873 21.4039 26.6272 20.0024 30.3219 20.0024C34.0166 20.0024 37.5839 21.4039 40.132 24.0793C42.8075 26.7548 44.2089 30.1947 44.2089 33.8895C44.2089 37.5842 42.8075 41.1515 40.132 43.6996C37.5839 46.375 34.0166 47.7765 30.3219 47.7765ZM30.3219 21.9135C27.1368 21.9135 24.0791 23.1875 21.7859 25.4808C19.4926 27.7741 18.2186 30.7044 18.2186 34.0169C18.2186 37.202 19.4926 40.2596 21.7859 42.5529C22.2955 43.0625 22.6777 43.4447 23.3147 43.8269C25.3532 45.3558 27.7738 46.1202 30.3219 46.1202C33.507 46.1202 36.5647 44.8462 38.858 42.5529C41.1512 40.2596 42.4253 37.3294 42.4253 34.0169C42.4253 30.8318 41.1512 27.7741 38.858 25.4808C36.5647 23.1875 33.507 21.9135 30.3219 21.9135Z" fill="white"/>
<path d="M30.322 53C25.2259 53 20.3845 50.9616 16.8172 47.3943C16.435 47.0121 16.435 46.375 16.8172 45.9928L20.5119 42.2981C20.8941 41.9159 21.5311 41.9159 21.9134 42.2981C22.423 42.8077 22.8052 43.19 23.4422 43.5722C25.4807 45.101 27.9013 45.8654 30.4494 45.8654C30.959 45.8654 31.4686 46.2477 31.4686 46.8847V52.1082C31.3412 52.6178 30.8316 53 30.322 53ZM18.8557 46.7573C21.786 49.4327 25.4807 50.9616 29.4302 51.089V47.7765C26.8821 47.6491 24.334 46.7573 22.2956 45.2284C21.9134 44.9736 21.6586 44.7188 21.2763 44.464L18.8557 46.7573Z" fill="white"/>
</svg>
