<svg width="114" height="56" viewBox="0 0 114 56" fill="none" xmlns="http://www.w3.org/2000/svg">
<path d="M0.358887 11.4662C0.358887 5.13358 5.49247 0 11.8251 0H101.834C108.167 0 113.301 5.13358 113.301 11.4662V43.5714C113.301 49.904 108.167 55.0376 101.834 55.0376H11.8251C5.49247 55.0376 0.358887 49.904 0.358887 43.5714V11.4662Z" fill="#261939"/>
<path d="M33.6472 23.537C32.3415 20.3273 26.9014 19.5929 20.9988 21.6873L18.3876 20.0553C17.5715 19.5929 16.6467 20.1641 16.5923 21.0889V23.7546C11.5058 26.8011 8.56809 31.1532 9.81933 34.2541C11.261 37.8174 17.7619 38.307 24.3445 35.3693C30.9271 32.3772 35.0888 27.1003 33.6472 23.537ZM19.1764 22.1226L25.4325 26.0667C25.895 26.3387 25.9494 27.0731 25.4597 27.3723L19.1492 31.2076C18.6596 31.4796 17.9795 31.1532 18.0068 30.446L17.9795 22.8026C18.0068 22.177 18.6324 21.7962 19.1764 22.1226ZM15.8579 36.4573C13.0018 36.2397 11.8594 34.3629 12.621 31.7788C12.621 32.214 12.6754 32.622 12.8386 33.0029C13.9538 35.7501 18.9588 36.1309 24.0453 33.8461C24.1541 33.7917 24.2629 33.7373 24.3445 33.7101C21.4884 35.5597 18.3332 36.6478 15.8579 36.4573ZM27.7174 29.5212C25.1877 32.7308 20.5908 34.9613 17.4899 34.7437C14.3891 34.4989 13.8994 31.6972 16.4563 28.4875C16.5107 28.4331 16.5651 28.3515 16.6195 28.2971V32.35C16.5923 33.3837 17.5987 33.8733 18.306 33.4653L27.6086 27.7531C28.343 27.2907 28.2614 26.2299 27.5814 25.8219L23.8005 23.6458C24.8341 23.3466 25.8134 23.1834 26.6838 23.265C29.7847 23.4826 30.2471 26.2843 27.7174 29.5212ZM31.2535 24.8698C31.2263 24.8426 31.2263 24.7882 31.2263 24.761C30.3287 22.5578 26.9014 21.8778 22.9573 22.8842L22.3045 22.4762C24.2629 21.6329 26.1942 21.1977 27.799 21.3337C30.1927 21.5241 31.3895 22.9114 31.2535 24.8698Z" fill="white"/>
<path d="M98.8746 30.9085L98.4938 30.5821C98.1401 31.0173 97.7865 31.3437 97.4601 31.5885C97.1337 31.8333 96.8889 32.0509 96.6985 32.0237C96.6169 32.0237 96.5353 31.9149 96.4537 31.8605C96.3993 31.8061 96.3449 31.7245 96.3449 31.6429C96.3449 31.5069 96.3449 31.3437 96.3721 31.2077C96.3993 31.0717 96.4265 30.9357 96.4537 30.7997L98.3305 24.4891C98.3849 24.2987 98.4122 24.1355 98.4394 23.9723C98.4666 23.8091 98.4938 23.7003 98.4938 23.5915C98.4938 23.2379 98.4122 22.9931 98.249 22.8299C98.0857 22.6666 97.8409 22.585 97.4873 22.585C96.8345 22.585 95.9641 22.9659 94.8489 23.6731C93.7608 24.4075 92.5368 25.4411 91.2312 26.774L93.8152 17.5257H93.1352C92.6184 17.7433 92.0472 17.8793 91.476 18.0153C90.8775 18.1241 90.2519 18.2057 89.5719 18.2329L89.4359 18.8313H90.2791C90.8231 18.8313 91.1768 18.8857 91.2856 18.9673C91.3944 19.049 91.4488 19.2122 91.4488 19.457C91.4488 19.5386 91.4488 19.6202 91.4216 19.7018C91.4216 19.7834 91.3944 19.865 91.3672 19.9466L88.8647 29.0044C87.9127 30.4733 87.015 31.1533 86.471 31.5069C85.927 31.8605 85.383 32.1053 84.8118 32.1053C84.1046 32.1053 83.5333 31.7789 83.1253 31.3165C82.7173 30.8541 82.4997 30.2013 82.4997 29.3852C82.4997 28.6508 82.6357 27.9436 82.8805 27.182C83.1525 26.4204 83.5061 25.7131 83.9958 25.0603C84.3766 24.5163 84.839 24.0811 85.3558 23.7547C85.8726 23.4283 86.3894 23.2923 86.9062 23.2923C87.1511 23.2923 87.3414 23.3195 87.4774 23.4011C87.6135 23.4827 87.6951 23.5915 87.6951 23.7003C87.6951 23.7819 87.6407 23.9451 87.4774 24.2171C87.3414 24.4891 87.2598 24.7339 87.2598 24.9515C87.2598 25.2507 87.3415 25.4955 87.5319 25.6859C87.6951 25.8763 87.9399 25.9579 88.2119 25.9579C88.5655 25.9579 88.8647 25.8219 89.1095 25.5499C89.3543 25.2779 89.4903 24.9515 89.4903 24.5979C89.4903 23.9723 89.2455 23.4827 88.7559 23.1019C88.2663 22.7211 87.6134 22.5306 86.7974 22.5306C86.0086 22.5306 85.2742 22.6938 84.5126 23.0475C83.7782 23.3739 83.0981 23.8907 82.4997 24.5163C81.8469 25.2235 81.3301 26.0123 80.9493 26.8828C80.5685 27.7532 80.3781 28.6236 80.3781 29.4668C80.3781 29.63 80.3781 29.766 80.4053 29.9292C79.5892 30.6093 78.8276 31.1533 78.1748 31.5069C77.4404 31.8877 76.7876 32.1597 76.2164 32.1597C75.6451 32.1597 75.1827 31.9149 74.8835 31.5885C74.5843 31.2621 74.4211 30.7997 74.4211 30.1741C74.4211 29.9836 74.4211 29.766 74.4755 29.5212C74.5027 29.2764 74.5571 29.0316 74.6115 28.7596C76.6787 28.5964 78.338 28.1068 79.6164 27.318C80.8949 26.5292 81.5205 25.5499 81.5205 24.4619C81.5205 23.8635 81.3029 23.3739 80.8677 23.0203C80.4325 22.6666 79.834 22.5034 79.0724 22.5034C78.2564 22.5034 77.4676 22.6939 76.6788 23.0747C75.9171 23.4555 75.1827 23.9995 74.5299 24.7339C73.8499 25.4955 73.3331 26.3659 72.9251 27.318C72.5443 28.2972 72.3539 29.2492 72.3267 30.2013C71.8914 30.7453 71.5378 31.1533 71.2386 31.3981C70.9122 31.6973 70.6402 31.8333 70.3954 31.8333C70.205 31.8333 70.069 31.7789 69.9602 31.6429C69.8514 31.5069 69.797 31.3437 69.797 31.0989C69.797 30.9901 69.8242 30.8813 69.8242 30.7453C69.8514 30.6093 69.8786 30.4733 69.933 30.3101L71.7554 23.2107H73.6323L73.8227 22.4218H72.0275L72.9251 18.7225H72.245C71.7282 19.8378 71.1298 20.7082 70.477 21.3338C69.8242 21.9594 69.0626 22.3674 68.2193 22.5578L68.1921 22.6394C67.9473 22.4762 67.6481 22.3946 67.2945 22.3946C66.8321 22.3946 66.4513 22.5306 66.1793 22.8027C65.8801 23.0747 65.7441 23.4555 65.7441 23.9179C65.7441 24.3259 65.9617 24.6795 66.3697 25.0059C66.7777 25.3051 66.9681 25.6043 66.9681 25.8219C66.9681 26.1211 66.8593 26.5564 66.6145 27.182C66.3697 27.8076 65.9073 28.7868 65.2545 30.1196C65.1185 29.3852 64.928 28.3788 64.7104 27.1548C64.1664 24.0539 63.704 22.5306 63.3504 22.5034C63.296 22.5034 62.8064 22.5578 61.936 22.6939C61.392 22.7755 60.848 22.8571 60.3039 22.9115L60.3583 22.7482H57.3118L56.9854 24.0267C56.8766 23.4827 56.6862 23.0475 56.3598 22.7755C56.0334 22.5034 55.5982 22.3674 55.0542 22.3674C54.483 22.3674 53.8574 22.5306 53.2317 22.9115C52.6061 23.2651 52.0077 23.7819 51.4093 24.4619C50.6749 25.3051 50.0764 26.2571 49.6412 27.3452C49.2332 28.3516 49.0156 29.3036 48.9884 30.2285C48.7164 30.6365 48.526 30.9085 48.4172 31.0173C48.254 31.1805 48.118 31.2621 48.0092 31.2621C47.9004 31.2621 47.7916 31.2077 47.7372 31.1261C47.6828 31.0445 47.6556 30.9085 47.6556 30.7725C47.6556 30.7181 47.6828 30.6093 47.71 30.4461C47.7372 30.3373 47.7644 30.2557 47.7916 30.1741L51.0829 17.1993C50.3485 17.3625 49.5596 17.4985 48.7436 17.6073C47.9276 17.7161 47.0572 17.8249 46.1595 17.8793V18.4233H46.3499C46.6763 18.4233 46.894 18.4777 47.03 18.5865C47.166 18.6953 47.2476 18.8313 47.2476 19.049C47.2476 19.2122 47.1932 19.5658 47.0572 20.1098C47.03 20.273 47.0028 20.3818 46.9756 20.4634L45.5339 26.0123C45.5611 25.7947 45.5611 25.5771 45.5611 25.3595C45.5611 24.3803 45.3435 23.6459 44.8811 23.1019C44.4459 22.585 43.7931 22.313 42.9499 22.313C42.3514 22.313 41.753 22.5034 41.209 22.9115C40.6378 23.2923 40.0394 23.9451 39.4138 24.8155L40.0394 22.585C39.305 22.7211 38.5161 22.8571 37.7273 22.9387C36.9385 23.0475 36.0953 23.1291 35.1976 23.2107V23.7547C35.6329 23.7547 35.9321 23.8091 36.0953 23.9179C36.2585 24.0267 36.3401 24.1899 36.3401 24.4619C36.3401 24.5435 36.3129 24.6523 36.3129 24.8155C36.2857 24.9787 36.2585 25.1147 36.2041 25.2779L33.8104 34.9614C33.62 35.7774 33.4296 36.2942 33.2392 36.4846C33.0488 36.675 32.7768 36.7838 32.396 36.7838C32.3688 36.7838 32.3416 36.7838 32.3144 36.7838C32.2872 36.7838 32.26 36.7838 32.2328 36.7838V37.3822H38.1897V36.811C37.6729 36.7838 37.3193 36.7022 37.1289 36.5934C36.9657 36.4846 36.8841 36.267 36.8841 35.9678C36.8841 35.8046 36.8841 35.6686 36.9113 35.5054C36.9385 35.3422 36.9657 35.2062 37.0201 35.043L37.6729 32.6221C37.9177 32.8125 38.1897 32.9485 38.4617 33.0573C38.7609 33.1661 39.0873 33.1933 39.4138 33.1933C40.2298 33.1933 41.0186 32.9757 41.753 32.5133C42.4875 32.0509 43.1675 31.3709 43.8203 30.4733C44.2555 29.8476 44.6363 29.1948 44.9083 28.4876L44.7995 28.8956L44.7723 29.0316C44.4459 30.3101 44.2827 31.0717 44.2827 31.3709C44.2827 31.9693 44.4459 32.4317 44.7451 32.7581C45.0443 33.0845 45.5067 33.2477 46.0779 33.2477C46.7308 33.2477 47.3564 33.0029 47.9276 32.5133C48.2812 32.2141 48.662 31.8061 49.0428 31.2621C49.1516 31.7517 49.342 32.1597 49.6412 32.4861C50.1036 32.9757 50.7293 33.2205 51.4909 33.2205C52.2525 33.2205 52.9325 32.9757 53.5581 32.5133C54.1838 32.0509 54.755 31.3437 55.299 30.3645C55.2446 30.7181 55.1902 30.9901 55.163 31.2077C55.1358 31.4253 55.1086 31.6157 55.1086 31.7517C55.1086 32.2413 55.2446 32.5949 55.5438 32.8397C55.843 33.0845 56.251 33.2205 56.8222 33.2205C57.5023 33.2205 58.1278 32.9757 58.6991 32.5133C59.2703 32.0509 59.8415 31.2893 60.4127 30.3101L59.8959 29.902C59.8143 30.0108 59.7327 30.1741 59.5967 30.3645C59.1615 31.0445 58.7807 31.3981 58.5087 31.3981C58.3999 31.3981 58.3455 31.3437 58.2639 31.2621C58.2095 31.1533 58.1823 31.0445 58.1823 30.8813C58.1823 30.7181 58.3183 30.1469 58.5903 29.1404V29.1132L60.0863 23.6459C60.1951 23.6731 60.2767 23.7275 60.3583 23.8091C60.5215 23.9723 60.6575 24.3259 60.8207 24.8427C60.9839 25.4683 61.1743 26.3115 61.3919 27.3996C61.6096 28.4876 61.8 29.6844 62.0176 30.9901C62.1264 31.6157 62.1808 32.1325 62.2352 32.5405C62.2896 32.9485 62.3168 33.3021 62.3168 33.5741C62.3168 33.955 62.1536 34.3358 61.8272 34.7438C61.528 35.1518 61.2287 35.3422 60.9839 35.3422C60.8479 35.3422 60.5759 35.2062 60.1679 34.9342C59.7599 34.6622 59.3791 34.499 59.0255 34.499C58.5631 34.499 58.2095 34.635 57.9103 34.907C57.611 35.179 57.4751 35.5326 57.4751 35.9406C57.4751 36.403 57.6383 36.7838 57.9919 37.0286C58.3455 37.3006 58.8079 37.4366 59.4063 37.4366C60.3039 37.4366 61.2288 36.9742 62.208 36.0494C63.1872 35.1246 64.248 33.6557 65.4449 31.6701C66.4785 29.902 67.3217 28.3244 67.9201 26.9372C68.5185 25.5227 68.8178 24.5163 68.8178 23.8907C68.8178 23.5915 68.7634 23.3195 68.6546 23.0747H70.0418L68.1649 30.4189C68.1105 30.6637 68.0561 30.8813 68.0289 31.0717C68.0017 31.2621 67.9745 31.4525 67.9745 31.6157C67.9745 32.0781 68.0833 32.4317 68.3281 32.7037C68.5729 32.9757 68.8994 33.1117 69.3074 33.1117C69.8242 33.1117 70.3954 32.8669 71.021 32.3773C71.5106 31.9965 71.973 31.5069 72.4899 30.8813C72.5987 31.4797 72.8162 31.9693 73.1699 32.3229C73.6595 32.8669 74.3667 33.1389 75.2643 33.1389C76.1892 33.1389 77.114 32.9213 78.066 32.4317C78.882 32.0509 79.7253 31.4797 80.6229 30.7181C80.7861 31.2349 81.0309 31.6973 81.3845 32.0509C82.0373 32.7581 82.9077 33.1117 83.9414 33.1117C84.8934 33.1117 85.791 32.8669 86.5798 32.3773C87.1511 32.0237 87.6951 31.5341 88.2119 30.9085L87.5863 33.1117C87.7495 33.0845 87.8855 33.0845 88.0487 33.0573C88.2119 33.0573 88.3479 33.0573 88.5111 33.0573C88.6743 33.0573 88.4567 33.0573 88.5927 33.0573C88.7559 33.0573 89.2455 33.0845 89.4087 33.1117L90.6871 28.6236C90.8231 28.1884 91.0408 27.7804 91.3128 27.3724C91.612 26.9644 92.0744 26.502 92.7 25.9307C93.4072 25.3051 94.0056 24.8155 94.5496 24.4619C95.0937 24.1083 95.4745 23.9451 95.7465 23.9451C95.9097 23.9451 96.0457 23.9995 96.1545 24.0811C96.2633 24.1627 96.2905 24.2987 96.2905 24.4619C96.2905 24.5163 96.2905 24.5979 96.2633 24.6523C96.2633 24.7339 96.2361 24.8427 96.1817 24.9787L94.2504 31.5069C94.196 31.6429 94.1688 31.7517 94.1416 31.8877C94.1144 31.9965 94.1144 32.1053 94.1144 32.2141C94.1144 32.4861 94.196 32.7037 94.3864 32.8669C94.5769 33.0301 94.8217 33.1117 95.1753 33.1117C95.6649 33.1117 96.2361 32.8941 96.8345 32.4861C97.5961 32.3229 98.2217 31.7245 98.8746 30.9085ZM76.6788 24.6795C77.4404 23.8635 78.2564 23.4555 79.1268 23.4555C79.4532 23.4555 79.6708 23.5371 79.8341 23.6731C79.9973 23.8363 80.0788 24.0539 80.0788 24.3803C80.0788 25.3051 79.5892 26.1211 78.5828 26.8556C77.6036 27.5628 76.3796 27.9708 74.9107 28.0252C75.3459 26.6108 75.9171 25.4955 76.6788 24.6795ZM41.7802 27.5628C41.5354 28.4604 41.209 29.3308 40.801 30.2285C40.4746 30.9357 40.121 31.4797 39.7674 31.8333C39.4138 32.2141 39.0602 32.4045 38.7337 32.4045C38.5161 32.4045 38.3529 32.3501 38.2169 32.2141C38.0809 32.0781 38.0265 31.9149 38.0265 31.6973C38.0265 31.5885 38.0537 31.3981 38.1081 31.1261C38.1625 30.8813 38.2169 30.5821 38.2985 30.2557L38.8697 28.1612C39.2233 26.8284 39.6042 25.8763 40.0122 25.2235C40.4202 24.5979 40.8826 24.2715 41.3722 24.2715C41.5898 24.2715 41.7802 24.3803 41.9162 24.5979C42.0522 24.8155 42.1338 25.0875 42.1338 25.4683C42.1338 25.9851 42.025 26.6924 41.7802 27.5628ZM56.1966 26.5836C55.979 27.3724 55.707 28.2156 55.3534 29.086C55.027 29.8476 54.6734 30.4461 54.2926 30.8813C53.9117 31.3165 53.5581 31.5069 53.2045 31.5069C52.9597 31.5069 52.7693 31.3981 52.6333 31.2077C52.4973 30.9901 52.4157 30.7181 52.4157 30.3645C52.4157 29.7932 52.5517 29.086 52.7965 28.2428C53.0413 27.4268 53.3949 26.5836 53.8573 25.7131C54.2382 25.0059 54.5646 24.4891 54.8638 24.1627C55.163 23.8635 55.4622 23.7003 55.7614 23.7003C55.979 23.7003 56.1694 23.7819 56.2782 23.9723C56.4142 24.1627 56.4686 24.4075 56.4686 24.7067C56.523 25.1691 56.4142 25.7675 56.1966 26.5836Z" fill="white"/>
<path d="M67.0225 36.5934C66.9137 36.539 66.7777 36.4574 66.5873 36.3758C66.4241 36.2942 66.2608 36.2397 66.1248 36.1581C65.9072 36.0493 65.7984 35.8861 65.7984 35.7229C65.7984 35.4237 65.9889 35.2877 66.3425 35.2877C66.6145 35.2877 66.7777 35.3965 66.8049 35.6413V35.8861H67.3489V35.8317C67.3489 35.5053 67.2945 35.2877 67.1585 35.1517C66.9953 35.0157 66.7233 34.9341 66.3425 34.9341C66.0433 34.9341 65.7984 34.9885 65.608 35.0701C65.3632 35.2061 65.2544 35.4237 65.2544 35.7229C65.2544 35.9949 65.3632 36.2126 65.5808 36.3758C65.6896 36.4574 65.7984 36.5118 65.9616 36.5934L66.3425 36.7566C66.4785 36.811 66.5873 36.8654 66.6689 36.947C66.8049 37.0286 66.8593 37.1646 66.8593 37.3278C66.8593 37.5726 66.7505 37.7086 66.5601 37.763C66.4784 37.7902 66.3697 37.8174 66.2609 37.8174C65.9617 37.8174 65.7984 37.7086 65.744 37.491C65.7168 37.4094 65.7168 37.3278 65.7168 37.2462V37.083H65.1728V37.4638C65.2 37.7086 65.3088 37.899 65.4992 38.0078C65.6624 38.1166 65.9344 38.171 66.2337 38.171C66.9953 38.171 67.3761 37.8718 67.3761 37.3278C67.4305 36.9742 67.2945 36.7566 67.0225 36.5934Z" fill="white"/>
<path d="M69.4433 35.0157C69.2529 34.9613 69.0897 34.9341 68.8721 34.9341C68.6817 34.9341 68.4913 34.9613 68.3009 35.0157C68.0561 35.0973 67.8929 35.2333 67.8385 35.4237C67.7841 35.5325 67.7569 35.7229 67.7569 35.9949V37.0558C67.7569 37.4638 67.8113 37.7358 67.9473 37.8718C68.1105 38.0622 68.4097 38.171 68.8993 38.171C69.5521 38.171 69.9057 37.9534 69.9601 37.5454C69.9873 37.4094 69.9873 37.2462 69.9873 37.0558V35.9949C69.9873 35.7501 69.9601 35.5597 69.9057 35.4237C69.8513 35.2333 69.6881 35.0973 69.4433 35.0157ZM69.4433 37.0286C69.4433 37.1646 69.4433 37.2734 69.4161 37.3822C69.3889 37.5454 69.3073 37.6814 69.1441 37.7358C69.0625 37.763 68.9537 37.7902 68.8721 37.7902C68.7633 37.7902 68.6545 37.763 68.5729 37.7086C68.4641 37.6542 68.4097 37.5998 68.3553 37.5182C68.3281 37.4366 68.3009 37.2734 68.3009 37.0014V35.9405C68.3009 35.8317 68.3009 35.7229 68.3281 35.6413C68.3553 35.4509 68.4369 35.3421 68.6273 35.2877C68.7089 35.2605 68.7905 35.2333 68.8993 35.2333C69.1441 35.2333 69.3073 35.3149 69.3889 35.4509C69.4433 35.5325 69.4705 35.6957 69.4705 35.9405L69.4433 37.0286Z" fill="white"/>
<path d="M72.109 37.083C72.109 37.1918 72.109 37.3006 72.0818 37.3822C72.0546 37.6814 71.8642 37.8174 71.5378 37.8174C71.2114 37.8174 71.021 37.6542 71.021 37.355V34.9885H70.477V37.1102C70.477 37.3006 70.477 37.4366 70.477 37.5182C70.477 37.6542 70.5586 37.7902 70.6402 37.899C70.8306 38.0894 71.1298 38.171 71.5378 38.171C71.9458 38.171 72.245 38.0894 72.4354 37.899C72.5442 37.7902 72.5986 37.6814 72.6258 37.5454C72.6258 37.4366 72.653 37.3278 72.653 37.1374V35.0157H72.109V37.083Z" fill="white"/>
<path d="M75.1827 37.5454L75.1555 37.1646C75.1555 37.0558 75.1283 36.947 75.1283 36.8654C75.1012 36.7294 75.0195 36.6478 74.9107 36.5934C74.8291 36.5662 74.6931 36.539 74.5299 36.5118C74.8019 36.4574 75.0195 36.403 75.1011 36.2942C75.2099 36.1582 75.2644 35.995 75.2644 35.7774C75.2644 35.3421 75.0739 35.0973 74.6659 35.0157C74.5571 34.9885 74.4483 34.9885 74.3395 34.9885H73.1155V38.1166H73.6595V36.7022H74.0403C74.1491 36.7022 74.2307 36.7022 74.3123 36.7294C74.5027 36.7838 74.6115 36.9198 74.6387 37.1374L74.6659 37.4366L74.6931 37.7086C74.6931 37.7902 74.7204 37.8718 74.7204 37.9262L74.7747 38.1166H75.3188C75.2644 38.0078 75.2644 37.9262 75.2372 37.8718C75.21 37.7902 75.2099 37.6814 75.1827 37.5454ZM74.0403 36.3486H73.6595V35.3421H74.0675C74.3123 35.3421 74.4755 35.3693 74.5571 35.4237C74.6659 35.4781 74.7475 35.6141 74.7475 35.7774C74.7475 35.9406 74.7203 36.0494 74.6931 36.131C74.6387 36.2398 74.5299 36.2942 74.3667 36.3214C74.2579 36.3486 74.1763 36.3486 74.0403 36.3486Z" fill="white"/>
<path d="M77.2772 37.219L77.25 37.4094C77.2228 37.6814 77.0596 37.8174 76.7603 37.8174C76.5427 37.8174 76.3795 37.7358 76.2979 37.627C76.2707 37.5726 76.2435 37.4094 76.2435 37.1918V35.7229C76.2435 35.6685 76.2707 35.5869 76.3251 35.5325C76.4067 35.3965 76.5699 35.3421 76.8148 35.3421C77.114 35.3421 77.25 35.4781 77.25 35.7229V35.9405H77.794V35.8317C77.794 35.7501 77.794 35.6685 77.794 35.5869C77.7396 35.2061 77.4132 35.0157 76.8148 35.0157C76.3795 35.0157 76.0803 35.1245 75.8899 35.3421C75.8083 35.4237 75.7539 35.5597 75.7539 35.6957C75.7267 35.8045 75.7267 35.9405 75.7267 36.0765V37.3278C75.7267 37.8446 75.9443 38.1166 76.3795 38.1982C76.5155 38.2254 76.6515 38.2254 76.7875 38.2254C76.9508 38.2254 77.114 38.1982 77.25 38.171C77.3588 38.1438 77.4676 38.0894 77.5492 38.0078C77.6852 37.8718 77.7668 37.7086 77.794 37.4638V37.1646H77.25L77.2772 37.219Z" fill="white"/>
<path d="M78.8004 36.675L79.9428 36.7022V36.3486H78.8004V35.3421H80.0244V34.9885H78.2836L78.2563 38.1166H80.0516V37.763H78.8004V36.675Z" fill="white"/>
<path d="M83.0981 35.043C82.9077 34.9886 82.7445 34.9614 82.5269 34.9614C82.3365 34.9614 82.1461 34.9886 81.9557 35.043C81.7109 35.1246 81.5477 35.2606 81.4933 35.451C81.4389 35.5598 81.4117 35.7502 81.4117 36.0222V37.083C81.4117 37.491 81.466 37.763 81.6021 37.899C81.7653 38.0894 82.0645 38.1982 82.5541 38.1982C83.2069 38.1982 83.5605 37.9806 83.6149 37.5726C83.6421 37.4366 83.6421 37.2734 83.6421 37.083V36.0222C83.6421 35.7774 83.6149 35.587 83.5605 35.451C83.4789 35.2606 83.3429 35.1246 83.0981 35.043ZM83.0981 37.0558C83.0981 37.1918 83.0981 37.3006 83.0709 37.4094C83.0437 37.5726 82.9621 37.7086 82.7989 37.763C82.7173 37.7902 82.6085 37.8174 82.5269 37.8174C82.4181 37.8174 82.3093 37.7902 82.2277 37.7358C82.1189 37.6814 82.0645 37.627 82.0373 37.5454C82.0101 37.4638 81.9829 37.3006 81.9829 37.0286V35.9678C81.9829 35.859 81.9829 35.7502 82.0101 35.6686C82.0373 35.4782 82.1189 35.3694 82.3093 35.315C82.3909 35.2878 82.4725 35.2606 82.5813 35.2606C82.8261 35.2606 82.9893 35.3422 83.0709 35.4782C83.1253 35.5598 83.1525 35.723 83.1525 35.9678L83.0981 37.0558Z" fill="white"/>
<path d="M84.1045 38.1166H84.6486V36.7022H85.7638V36.3486H84.6486V35.3421H85.8182V34.9885H84.1045V38.1166Z" fill="white"/>
<path d="M88.8919 36.6206C88.7831 36.5662 88.6471 36.4846 88.4567 36.403C88.2935 36.3214 88.1303 36.267 87.9943 36.1854C87.7766 36.0766 87.6678 35.9134 87.6678 35.7502C87.6678 35.451 87.8582 35.315 88.2119 35.315C88.4839 35.315 88.6471 35.4238 88.6743 35.6686V35.9134H89.2183V35.859C89.2183 35.5326 89.1639 35.315 89.0279 35.179C88.8647 35.043 88.5927 34.9614 88.2119 34.9614C87.9127 34.9614 87.6679 35.0158 87.4774 35.0974C87.2326 35.2334 87.1238 35.451 87.1238 35.7502C87.1238 36.0222 87.2326 36.2398 87.4502 36.403C87.5591 36.4846 87.6951 36.539 87.8311 36.6206L88.2119 36.7838C88.3479 36.8382 88.4567 36.8926 88.5383 36.9742C88.6743 37.0558 88.7287 37.1918 88.7287 37.355C88.7287 37.5998 88.6199 37.7358 88.4295 37.7902C88.3479 37.8174 88.2391 37.8446 88.1303 37.8446C87.831 37.8446 87.6679 37.7358 87.6134 37.5182C87.5863 37.4366 87.5862 37.355 87.5862 37.2734V37.1102H87.0422V37.491C87.0694 37.7358 87.1782 37.9262 87.3687 38.035C87.5319 38.1438 87.7766 38.1982 88.1031 38.1982C88.8647 38.1982 89.2455 37.899 89.2455 37.355C89.2727 37.0014 89.1367 36.7838 88.8919 36.6206Z" fill="white"/>
<path d="M91.2855 37.083C91.2855 37.1918 91.2855 37.3006 91.2583 37.3822C91.2311 37.6814 91.0407 37.8174 90.7143 37.8174C90.3879 37.8174 90.1975 37.6542 90.1975 37.355V34.9885H89.6535V37.1102C89.6535 37.3006 89.6535 37.4366 89.6535 37.5182C89.6535 37.6542 89.7351 37.7902 89.8167 37.899C90.0071 38.0894 90.3063 38.171 90.7143 38.171C91.1223 38.171 91.4215 38.0894 91.6119 37.899C91.7207 37.7902 91.7751 37.6814 91.7751 37.5454C91.7751 37.4366 91.8023 37.3278 91.8023 37.1374V35.0157H91.2583L91.2855 37.083Z" fill="white"/>
<path d="M93.4072 34.9614C92.972 34.9614 92.6728 35.0702 92.4824 35.2878C92.4008 35.3694 92.3464 35.5054 92.3464 35.6414C92.3192 35.7502 92.3192 35.8862 92.3192 36.0222V37.2734C92.3192 37.7902 92.5368 38.0622 92.972 38.1438C93.108 38.171 93.244 38.171 93.38 38.171C93.5432 38.171 93.7064 38.1438 93.8424 38.1166C93.9512 38.0894 94.06 38.035 94.1416 37.9534C94.2776 37.8174 94.3592 37.6542 94.3864 37.4094V37.1102H93.8424V37.219L93.8152 37.4094C93.788 37.6814 93.6248 37.8174 93.3256 37.8174C93.108 37.8174 92.9448 37.7358 92.8632 37.627C92.8088 37.5726 92.8088 37.4094 92.8088 37.1918V35.723C92.8088 35.6686 92.836 35.587 92.8904 35.5326C92.972 35.3966 93.1352 35.3422 93.38 35.3422C93.6792 35.3422 93.8152 35.4782 93.8152 35.723V35.9406H94.3592V35.8318C94.3592 35.7502 94.3592 35.6686 94.3592 35.587C94.3592 35.1518 94.0328 34.9614 93.4072 34.9614Z" fill="white"/>
<path d="M96.4537 37.2462L96.4265 37.4366C96.3993 37.7086 96.2361 37.8446 95.9369 37.8446C95.7193 37.8446 95.5833 37.763 95.4745 37.6542C95.4473 37.5998 95.42 37.4366 95.42 37.219V35.7502C95.42 35.6958 95.4473 35.6142 95.5017 35.5598C95.5833 35.4238 95.7465 35.3694 95.9913 35.3694C96.2905 35.3694 96.4265 35.5054 96.4265 35.7502V35.9678H96.9705V35.859C96.9705 35.7774 96.9705 35.6958 96.9705 35.6142C96.9161 35.2334 96.5897 35.043 95.9913 35.043C95.556 35.043 95.2568 35.1518 95.0664 35.3694C94.9848 35.451 94.9304 35.587 94.9304 35.723C94.9032 35.8318 94.9032 35.9678 94.9032 36.1038V37.355C94.9032 37.8718 95.1208 38.1438 95.5561 38.2254C95.6921 38.2526 95.8281 38.2526 95.9641 38.2526C96.1273 38.2526 96.2905 38.2254 96.4265 38.1982C96.5353 38.171 96.6441 38.1166 96.7257 38.035C96.8617 37.899 96.9433 37.7358 96.9705 37.491V37.1918H96.4265L96.4537 37.2462Z" fill="white"/>
<path d="M97.9769 36.7022H99.1193V36.3485H97.9769V35.3693H99.1737V35.0157H97.4601L97.4329 38.1438H99.2281V37.7902H97.9769V36.7022Z" fill="white"/>
<path d="M101.295 36.6206C101.187 36.5662 101.051 36.4846 100.86 36.403C100.697 36.3214 100.534 36.267 100.398 36.1854C100.18 36.0766 100.071 35.9134 100.071 35.7502C100.071 35.451 100.262 35.315 100.615 35.315C100.887 35.315 101.051 35.4238 101.078 35.6686V35.9134H101.622V35.859C101.622 35.5326 101.567 35.315 101.431 35.179C101.268 35.043 100.996 34.9614 100.615 34.9614C100.316 34.9614 100.071 35.0158 99.881 35.0974C99.6362 35.2334 99.5273 35.451 99.5273 35.7502C99.5273 36.0222 99.6362 36.2398 99.8538 36.403C99.9626 36.4846 100.071 36.539 100.235 36.6206L100.615 36.7838C100.751 36.8382 100.86 36.8926 100.942 36.9742C101.078 37.0558 101.132 37.1918 101.132 37.355C101.132 37.5998 101.023 37.7358 100.833 37.7902C100.751 37.8174 100.643 37.8446 100.534 37.8446C100.235 37.8446 100.071 37.7358 100.017 37.5182C99.9898 37.4366 99.9898 37.355 99.9898 37.2734V37.1102H99.4457V37.491C99.4729 37.7358 99.5817 37.9262 99.7721 38.035C99.9354 38.1438 100.18 38.1982 100.507 38.1982C101.268 38.1982 101.649 37.899 101.649 37.355C101.676 37.0286 101.567 36.7838 101.295 36.6206Z" fill="white"/>
<path d="M103.771 36.6206C103.662 36.5662 103.526 36.4846 103.335 36.403C103.172 36.3214 103.009 36.267 102.873 36.1854C102.655 36.0766 102.547 35.9134 102.547 35.7502C102.547 35.451 102.737 35.315 103.091 35.315C103.363 35.315 103.526 35.4238 103.553 35.6686V35.9134H104.097V35.859C104.097 35.5326 104.043 35.315 103.907 35.179C103.743 35.043 103.471 34.9614 103.091 34.9614C102.791 34.9614 102.547 35.0158 102.356 35.0974C102.111 35.2334 102.003 35.451 102.003 35.7502C102.003 36.0222 102.111 36.2398 102.329 36.403C102.438 36.4846 102.547 36.539 102.71 36.6206L103.091 36.7838C103.227 36.8382 103.335 36.8926 103.417 36.9742C103.553 37.0558 103.607 37.1918 103.607 37.355C103.607 37.5998 103.499 37.7358 103.308 37.7902C103.227 37.8174 103.118 37.8446 103.009 37.8446C102.71 37.8446 102.547 37.7358 102.492 37.5182C102.465 37.4366 102.465 37.355 102.465 37.2734V37.1102H101.921V37.491C101.948 37.7358 102.057 37.9262 102.247 38.035C102.411 38.1438 102.655 38.1982 102.982 38.1982C103.743 38.1982 104.124 37.899 104.124 37.355C104.151 37.0286 104.015 36.7838 103.771 36.6206Z" fill="white"/>
</svg>
