<svg width="113" height="56" viewBox="0 0 113 56" fill="none" xmlns="http://www.w3.org/2000/svg">
<path d="M0 12.3028C0 5.97025 5.13358 0.83667 11.4662 0.83667H101.476C107.808 0.83667 112.942 5.97025 112.942 12.3028V44.4081C112.942 50.7407 107.808 55.8743 101.476 55.8743H11.4662C5.13358 55.8743 0 50.7407 0 44.4081V12.3028Z" fill="#261939"/>
<path fill-rule="evenodd" clip-rule="evenodd" d="M102.814 29.1614L105.489 33.5226H102.436L99.9065 29.4231H99.8773V33.5226H97.1153V22.9105H101.244C102.203 22.8523 103.163 23.143 103.919 23.6955C104.616 24.306 104.994 25.2073 104.936 26.1377C104.965 26.8355 104.733 27.5333 104.326 28.1148C103.977 28.6672 103.424 29.0451 102.814 29.1614ZM101.883 25.6434C101.767 25.469 101.622 25.3236 101.447 25.2364C101.244 25.1492 101.04 25.062 100.837 25.0329C100.604 25.0038 100.372 24.9747 100.139 24.9747H99.8773V27.6205H100.139C100.372 27.6205 100.604 27.5914 100.837 27.5623C101.04 27.5333 101.244 27.4751 101.447 27.3588C101.622 27.2716 101.767 27.1262 101.883 26.9518C102.087 26.5738 102.087 26.0796 101.883 25.6434ZM95.3999 22.9105V25.2655H92.1145V26.9809H95.3709V29.394H92.1145V31.1094H95.3709V33.5226H89.3234V22.9105H95.3999ZM49.4044 25.2655H46.148V26.9809H49.4044V29.394H46.148V31.1094H49.4044V33.5226H43.3568V22.9105H49.4044V25.2655ZM39.1411 33.5226L36.6116 29.4231H36.5826V33.5226H33.8205V22.9105H37.9491C38.9085 22.8523 39.868 23.143 40.6239 23.6955C41.3217 24.306 41.6996 25.2073 41.6415 26.1377C41.6706 26.8355 41.4379 27.5333 41.0309 28.1148C40.6239 28.6672 40.0133 29.0451 39.3155 29.1324L42.223 33.4935L39.1411 33.5226ZM38.6177 25.6434C38.5014 25.469 38.3561 25.3236 38.1817 25.2364C37.9781 25.1492 37.7746 25.062 37.5711 25.0329C37.3385 25.0038 37.1059 24.9747 36.8733 24.9747H36.5826V27.6205H36.8442C37.0768 27.6205 37.3094 27.5914 37.542 27.5623C37.7455 27.5333 37.9491 27.4751 38.1526 27.3588C38.327 27.2716 38.4724 27.1262 38.5887 26.9518C38.8213 26.5738 38.8213 26.0796 38.6177 25.6434ZM56.6438 23.3175C57.2544 23.5792 57.7777 23.9571 58.2429 24.4514C58.7081 24.9457 59.057 25.5271 59.3187 26.1668C59.842 27.5042 59.842 28.9579 59.3187 30.2953C59.057 30.935 58.7081 31.4874 58.2429 31.9816C57.7777 32.4468 57.2544 32.8539 56.6438 33.1155C56.0333 33.3772 55.3937 33.5226 54.725 33.5226H51.1197V22.9105H54.725C55.3937 22.9105 56.0333 23.0558 56.6438 23.3175ZM53.6492 25.2655V31.1966H54.2307C54.6086 31.1966 54.9575 31.1385 55.3355 31.0222C56.0333 30.7896 56.5857 30.2372 56.8473 29.5394C56.9927 29.1324 57.08 28.6672 57.08 28.2311C57.1381 27.417 56.8473 26.632 56.324 26.0505C55.8007 25.5271 55.0447 25.2364 54.2888 25.2655H53.6492ZM71.2101 25.2655H68.9132V33.5226H66.1511V25.2655H63.8543V22.9395H71.181V25.2655H71.2101ZM75.6584 33.5226H72.8964V22.8814H75.6584V33.5226ZM78.8275 24.3932C79.3218 23.9281 79.8742 23.5501 80.5139 23.3175C81.2116 23.0558 81.9385 22.9395 82.6654 22.9395C83.5957 22.9105 84.5261 23.1721 85.3402 23.6373C86.1252 24.1316 86.7358 24.8584 87.1138 25.7307L84.7006 26.7483C84.5552 26.2831 84.2644 25.876 83.8865 25.5853C83.5085 25.2945 83.0433 25.1492 82.5781 25.1492C82.2002 25.1492 81.8222 25.2364 81.5024 25.4108C81.1825 25.5853 80.8918 25.8179 80.6883 26.1377C80.4557 26.4575 80.3103 26.7773 80.194 27.1553C79.9614 27.9112 79.9614 28.6962 80.194 29.4231C80.3103 29.772 80.4848 30.1209 80.6883 30.4407C80.8918 30.7314 81.1825 30.964 81.5024 31.1385C81.8512 31.3129 82.2292 31.4002 82.6072 31.4002C83.1305 31.4292 83.6248 31.2548 84.0319 30.964C84.4098 30.6442 84.6424 30.179 84.6715 29.6848H82.5781V27.6496H87.6661C87.6661 28.3764 87.5789 29.1033 87.4626 29.8301C87.3173 30.4698 87.0556 31.0513 86.6776 31.5746C86.2415 32.2142 85.6309 32.7085 84.9331 33.0574C84.2063 33.3772 83.4213 33.5517 82.6363 33.5517C81.9095 33.5517 81.2116 33.4354 80.5139 33.1737C79.8742 32.9411 79.3218 32.5631 78.8567 32.0979C78.3915 31.6327 78.0135 31.0513 77.7809 30.4407C77.5192 29.772 77.4029 29.0451 77.4029 28.3183C77.4029 27.5623 77.5192 26.8355 77.7809 26.1377C77.9553 25.4399 78.3333 24.8584 78.8275 24.3932Z" fill="#F6F6F6"/>
<path fill-rule="evenodd" clip-rule="evenodd" d="M22.3652 25.2364C22.3652 25.5272 22.3652 25.847 21.9291 25.9923C21.6674 26.0796 21.3477 25.7016 21.3186 25.469C21.4639 25.2946 21.6384 25.1492 21.8419 25.091C22.2489 24.9166 22.3652 24.8875 22.3652 25.2364ZM14.6024 25.9923C14.1372 25.847 14.1663 25.5272 14.1663 25.2364C14.1663 24.8875 14.2826 24.9166 14.6896 25.062C14.8931 25.1492 15.0676 25.2655 15.213 25.4399C15.213 25.7307 14.8931 26.0796 14.6024 25.9923ZM24.8365 34.453C25.0982 34.3076 25.3599 34.1332 25.5634 33.9296C26.6101 32.7957 26.8136 31.5165 26.959 30.0046C26.9881 29.6266 26.988 29.2196 27.0171 28.8126C27.0171 28.7544 27.0171 28.4637 27.0462 28.4637C27.1334 28.5509 27.1916 28.6672 27.2497 28.7835C27.366 29.1324 27.4532 29.5103 27.4823 29.8592C27.5986 30.5861 27.6277 31.342 27.5405 32.0689C27.5114 32.3305 27.4242 32.5631 27.2788 32.7957C26.6101 33.9006 25.8832 34.9182 25.1855 35.9939C25.1273 36.0811 25.0982 35.9067 25.0401 35.8776L24.9819 35.8195C24.8365 35.7322 24.7493 35.7322 24.6912 35.7904C24.6621 35.8485 24.633 35.8776 24.633 35.9358C24.4586 36.2847 24.1678 36.8661 23.9643 37.2441C23.9352 37.3023 23.848 37.3313 23.7899 37.3023C23.7608 37.2732 23.7317 37.2441 23.7317 37.186C23.7317 36.7789 23.7317 36.3719 23.7317 35.9358C23.7317 35.6741 23.7317 35.3543 23.3829 35.3543C23.034 35.3543 23.0339 35.645 23.0339 35.9358C23.0339 36.1684 23.0339 36.43 23.0339 36.6917C23.0339 36.7498 22.9758 36.808 22.9177 36.808C22.8886 36.808 22.8595 36.808 22.8595 36.7789C22.5688 36.5463 22.249 36.3719 21.9001 36.2556C21.3477 36.023 20.708 36.1102 20.2137 36.43L20.301 36.3719C20.708 35.9939 21.2895 35.8485 21.871 35.9648C22.0164 35.9939 22.1908 36.023 22.3362 35.9939C22.3943 35.9939 22.4525 35.9358 22.4525 35.8776V35.8485C22.2489 35.2671 21.5511 33.1737 22.9467 32.4468C22.9758 32.4178 23.0049 32.3887 23.0049 32.3596C23.063 31.9817 23.7608 30.2953 21.8419 29.2196C21.5512 29.4813 21.1732 30.1209 20.708 30.4989C21.5511 30.6733 21.9873 30.1791 22.3943 29.8302C22.2199 30.7896 21.464 30.8768 20.8825 31.2257C21.4058 30.9931 21.9291 31.3129 22.5397 30.9931C22.1036 31.8363 21.2022 31.4292 20.6789 31.8654C21.2022 32.2143 21.6674 32.0107 22.1617 31.9526C22.3071 31.9235 22.4234 31.9526 22.5688 31.9817C22.4525 32.1561 22.3362 32.3015 22.1908 32.4178C22.0163 32.5631 21.7838 32.6504 21.5802 32.7376C21.3476 32.7957 21.1151 32.8248 20.8825 32.7667C20.2138 32.5631 19.545 32.3015 18.8763 32.0398C18.76 31.9817 18.6437 31.8654 18.6146 31.72C18.5855 31.5165 18.6146 31.2839 18.6146 31.0513C18.5565 30.7605 18.76 30.4989 19.0217 30.4407C19.6613 30.2663 20.1847 29.8883 20.5917 29.365C20.708 29.1905 20.8243 28.9579 20.8534 28.7544C20.8534 28.5509 20.8243 28.3474 20.7371 28.1438C20.708 27.9985 20.708 27.824 20.7371 27.6787V27.6205L20.8825 27.039C20.9406 26.8646 21.0278 26.6901 21.1732 26.6029L21.2023 26.5738C21.2313 26.5738 21.2313 26.5448 21.2604 26.5448C21.5221 26.3994 21.7838 26.3122 22.0454 26.2249C23.0049 25.847 23.7608 25.0329 24.0806 24.0444C24.1969 23.7245 24.226 23.3466 24.1678 23.0268C24.0806 23.2012 23.9353 23.5792 23.848 23.7827C23.7318 24.0734 23.441 24.277 23.1212 24.2479C22.249 24.2479 21.3767 24.3933 20.8825 25.3236C20.6789 25.8179 20.301 26.2249 19.8358 26.4575C19.8358 26.1959 19.8649 25.9342 19.9521 25.6725C19.545 25.4981 19.6904 25.2655 19.923 25.0329C20.2137 24.7131 20.5336 24.3933 20.8534 24.0444C20.5917 23.9862 20.33 23.8408 20.1556 23.6373H21.9001C21.9001 23.6082 21.9001 23.6082 21.9001 23.5792C21.3767 23.492 20.8533 23.2884 20.3881 23.0268C21.2022 22.5325 22.8595 22.7651 23.1503 22.6779C23.1503 22.6197 22.9176 22.5616 22.685 22.4743C22.1326 22.329 21.9291 22.2999 21.3767 22.1255C20.8243 21.9801 20.301 21.7475 19.8067 21.4858H22.0745C21.2895 21.0497 20.4463 20.759 19.5741 20.6427C19.0798 20.6136 18.7019 20.6136 18.4111 20.6136C18.0913 20.6136 17.7424 20.6136 17.2482 20.6427C16.3759 20.759 15.5037 21.0497 14.7478 21.4858H17.0156C16.5213 21.7475 15.998 21.9801 15.4455 22.1255C14.8931 22.2708 14.6896 22.329 14.1372 22.4743C13.9046 22.5616 13.672 22.5906 13.672 22.6779C13.9628 22.7651 15.62 22.5325 16.4341 23.0268C15.9689 23.2884 15.4456 23.4629 14.9222 23.5792C14.9222 23.6082 14.9222 23.6082 14.9222 23.6373H16.6667C16.4631 23.8408 16.2305 23.9571 15.9689 24.0444C16.2887 24.3933 16.5795 24.7131 16.8993 25.0329C17.1319 25.2655 17.2772 25.4981 16.8702 25.6725C16.9574 25.9342 16.9865 26.1959 16.9865 26.4575C16.5213 26.2249 16.1433 25.8179 15.9398 25.3236C15.4455 24.3933 14.6024 24.2479 13.7011 24.2479C13.3813 24.277 13.0905 24.1025 12.9743 23.7827C12.887 23.5792 12.7416 23.2012 12.6544 23.0268C12.5963 23.3757 12.6253 23.7245 12.7416 24.0444C13.0615 25.0329 13.7883 25.847 14.7769 26.2249C15.0385 26.3122 15.3292 26.4285 15.5618 26.5448C15.5909 26.5448 15.5909 26.5738 15.62 26.5738L15.6491 26.6029C15.7945 26.7192 15.9107 26.8646 15.9398 27.039L16.0852 27.6205V27.6787C16.1433 27.824 16.1433 27.9985 16.0852 28.1438C16.027 28.3474 15.9689 28.5509 15.9689 28.7544C16.027 28.987 16.1142 29.1905 16.2305 29.365C16.6085 29.8883 17.1609 30.2663 17.8006 30.4407C18.0913 30.4989 18.2657 30.7605 18.2076 31.0513C18.1785 31.2839 18.2367 31.5165 18.2076 31.72C18.1785 31.8654 18.0622 31.9817 17.9459 32.0398C17.2772 32.3015 16.6085 32.5631 15.9398 32.7667C15.7072 32.8248 15.4746 32.8248 15.242 32.7376C15.0094 32.6794 14.8059 32.5631 14.6315 32.4178C14.4861 32.2724 14.3698 32.127 14.2535 31.9817C14.3989 31.9526 14.5152 31.9526 14.6606 31.9526C15.1257 32.0107 15.62 32.1852 16.1433 31.8654C15.5909 31.4002 14.7187 31.8363 14.2825 30.9931C14.8931 31.3129 15.4165 31.0222 15.9398 31.2257C15.3292 30.8768 14.5733 30.7896 14.4279 29.8302C14.835 30.1791 15.2711 30.6733 16.1142 30.4989C15.649 30.0918 15.2711 29.4813 14.9804 29.2196C13.0614 30.2953 13.7592 31.9817 13.8174 32.3596C13.8174 32.3887 13.8464 32.4468 13.8755 32.4468C15.2711 33.1737 14.5733 35.2671 14.3698 35.8485C14.3698 35.8776 14.3698 35.9358 14.3698 35.9648C14.3989 35.9939 14.4279 36.023 14.457 36.023C14.6024 36.023 14.7768 36.023 14.9222 35.9939C15.4746 35.8776 16.0561 36.023 16.4922 36.401L16.5794 36.4591C16.0852 36.1102 15.4455 36.0521 14.8931 36.2847C14.5442 36.401 14.2244 36.5754 13.9337 36.808C13.8755 36.8371 13.7883 36.8371 13.7592 36.7789C13.7592 36.7498 13.7302 36.7498 13.7302 36.7208C13.7302 36.43 13.7302 36.1974 13.7302 35.9648C13.7302 35.7032 13.7011 35.3834 13.3813 35.3834C13.0324 35.3834 13.0323 35.7032 13.0323 35.9648C13.0323 36.3719 13.0323 36.7789 13.0323 37.215C13.0323 37.2732 12.9742 37.3313 12.9161 37.3313C12.887 37.3313 12.8288 37.3023 12.7998 37.2732C12.5962 36.8952 12.3055 36.3137 12.1311 35.9648C12.102 35.9067 12.0729 35.8776 12.0729 35.8195C11.9857 35.7613 11.9275 35.7904 11.7822 35.8485L11.7241 35.9067C11.695 35.9358 11.6368 36.1102 11.5787 36.023C10.8809 34.9472 10.154 33.9296 9.4853 32.8248C9.369 32.5922 9.28179 32.3596 9.22364 32.098C9.13641 31.3711 9.16547 30.6152 9.28177 29.8883C9.31085 29.5103 9.39809 29.1614 9.51439 28.8126C9.57254 28.6963 9.63066 28.58 9.71788 28.4927C9.74695 28.4927 9.74697 28.7835 9.74697 28.8416C9.77604 29.2487 9.74699 29.6266 9.80514 30.0337C9.92144 31.5455 10.1249 32.8248 11.2007 33.9587C11.4042 34.1913 11.6659 34.3658 11.9276 34.482C11.9857 34.5111 12.0729 34.482 12.0729 34.4239C12.0729 34.3948 12.0729 34.3657 12.0729 34.3367C11.7531 33.697 11.4042 33.0283 11.1426 32.3596C10.8809 31.6618 10.7064 30.935 10.5029 30.2372C10.4738 30.179 10.532 30.1209 10.5901 30.0918C10.6192 30.0918 10.6483 30.0918 10.6483 30.0918C10.7936 30.15 10.9972 30.2372 11.1716 30.2953C11.2298 30.3244 11.317 30.2953 11.317 30.2372C11.317 30.2081 11.317 30.179 11.317 30.15C11.1135 29.4522 10.4738 27.4461 10.4738 27.4461C10.5029 27.5042 10.8809 28.0566 10.91 28.0857C11.2298 28.58 11.4915 29.1033 11.7241 29.6266C11.8404 29.9174 11.9276 30.1209 11.9566 30.2081C11.9857 30.2663 11.9857 30.2953 11.9566 30.3535C11.4042 30.8187 11.8403 31.6909 12.0729 31.9526C12.3927 32.3305 12.6253 32.7667 12.7416 33.2609C12.7707 33.3482 12.8289 33.4935 12.8579 33.6389C12.887 33.697 12.9452 33.7261 13.0033 33.697C13.0614 33.668 13.0905 33.6389 13.0905 33.5807C13.0614 32.9702 12.9452 32.127 12.7416 31.9235C12.4218 31.6328 12.48 30.6152 12.8579 30.4407C13.1778 30.2663 13.265 30.0918 13.0905 29.8011C13.0614 29.7429 13.0615 29.6557 13.1196 29.6266L14.6315 28.7544C14.6896 28.7253 14.7187 28.6381 14.6896 28.58C14.6605 28.5509 14.6315 28.5218 14.6024 28.5218C14.079 28.4637 13.5557 28.6381 13.1487 28.9579C12.8289 29.1324 12.4218 29.0452 12.2474 28.7253C12.2183 28.6963 12.1892 28.6381 12.1892 28.58C12.1601 28.4927 12.1311 28.4346 12.102 28.3474C12.0729 28.2892 12.1311 28.2311 12.2183 28.202C12.9452 28.0275 13.0615 27.9694 13.1196 27.7659C13.1196 27.7077 13.0905 27.6496 13.0323 27.6205C13.0323 27.6205 13.0324 27.6205 13.0033 27.6205C12.7416 27.6496 12.4799 27.6205 12.2474 27.5333C12.102 27.3879 12.0148 27.2135 11.9857 27.0099C11.9566 26.9518 12.0148 26.8937 12.0729 26.8646C12.102 26.8646 12.1311 26.8646 12.1602 26.8646C12.4218 26.9809 12.48 26.9809 12.6253 26.8646C12.6835 26.8355 12.6835 26.7483 12.6544 26.6901C12.6253 26.6611 12.5963 26.6029 12.5381 26.5738C11.9857 26.1377 11.1716 23.8118 11.2007 23.114C10.9972 23.2884 10.8227 23.5501 10.7355 23.8118C10.154 23.5792 9.71792 23.492 9.80514 22.7069L10.4448 23.0268C10.4448 23.0268 10.4738 22.7942 10.1249 22.5034C9.39808 21.8929 9.2818 21.0788 9.25272 20.2066C9.22365 19.7704 9.54346 19.3925 9.9505 19.3634C10.1249 19.3634 10.2703 19.3925 10.4157 19.4797C11.8403 20.1484 13.7883 20.8171 15.3874 20.6136H15.4455C16.4632 20.4101 17.4808 20.2938 18.4984 20.2938C19.516 20.2938 20.5336 20.4101 21.5512 20.6136H21.6093C23.2084 20.8171 25.1854 20.1484 26.581 19.4797C26.959 19.2471 27.4242 19.3634 27.6568 19.7414C27.744 19.8867 27.773 20.0612 27.773 20.2066C27.744 21.0788 27.6277 21.8929 26.9009 22.5034C26.552 22.7942 26.581 23.0268 26.581 23.0268L27.2207 22.7069C27.3079 23.521 26.8717 23.5792 26.2903 23.8118C26.203 23.5501 26.0286 23.2884 25.8251 23.114C25.8541 23.8118 25.011 26.1377 24.4876 26.5738C24.4586 26.6029 24.4005 26.632 24.3714 26.6901C24.3423 26.7192 24.3423 26.7483 24.3423 26.7774C24.3423 26.8064 24.3714 26.8355 24.4005 26.8646C24.5458 26.9809 24.604 26.9809 24.8656 26.8646C24.9238 26.8355 25.011 26.8646 25.011 26.9227C25.011 26.9518 25.011 26.9809 25.011 27.0099C24.9819 27.2135 24.8947 27.3879 24.7493 27.5333C24.5167 27.6205 24.2551 27.6496 23.9934 27.6205C23.9353 27.6205 23.8771 27.6787 23.8771 27.7368C23.8771 27.7368 23.8771 27.7368 23.8771 27.7659C23.9062 27.9985 24.0225 28.0275 24.7784 28.202C24.8365 28.2311 24.8947 28.2601 24.8947 28.3474C24.8656 28.4346 24.8366 28.4927 24.8075 28.58C24.6912 28.9289 24.3132 29.1324 23.9643 29.0161C23.9062 28.987 23.8771 28.987 23.819 28.9579C23.4119 28.6381 22.8886 28.4927 22.3652 28.5218C22.3071 28.5218 22.2489 28.58 22.278 28.6672C22.278 28.6963 22.3071 28.7253 22.3362 28.7544L23.848 29.6266C23.9062 29.6557 23.9352 29.7429 23.8771 29.8011C23.7027 30.0918 23.7899 30.2663 24.1097 30.4407C24.4586 30.6152 24.5167 31.6328 24.226 31.9235C24.0225 32.127 23.9062 32.9411 23.8771 33.5807C23.8771 33.6389 23.9353 33.697 23.9934 33.697C24.0516 33.697 24.0806 33.668 24.1097 33.6098C24.1679 33.4644 24.1969 33.3191 24.226 33.2319C24.3423 32.7667 24.5749 32.3015 24.8947 31.9235C25.1273 31.6618 25.5634 30.7896 25.011 30.3244C24.9819 30.2953 24.9819 30.2372 25.011 30.1791C25.0691 30.0628 25.1564 29.8592 25.2436 29.5976C25.4762 29.0742 25.7379 28.5509 26.0577 28.0566C26.0868 27.9985 26.4647 27.4461 26.4938 27.417C26.4938 27.417 25.8542 29.4231 25.6507 30.1209C25.6216 30.1791 25.6797 30.2372 25.7378 30.2663C25.7669 30.2663 25.796 30.2663 25.8251 30.2663C25.9704 30.2081 26.174 30.1209 26.3484 30.0628C26.4066 30.0337 26.4647 30.0627 26.4938 30.15C26.4938 30.179 26.4938 30.2081 26.4938 30.2081C26.2903 30.935 26.1158 31.6328 25.8542 32.3305C25.5925 32.9993 25.2436 33.6389 24.9238 34.3076C24.8947 34.3658 24.9237 34.453 24.9819 34.482C24.7493 34.453 24.8075 34.453 24.8365 34.453ZM14.9222 29.1033L14.864 29.1324C14.8931 29.1324 14.9222 29.1324 14.9222 29.1033ZM12.0729 20.4682C10.4157 20.3229 10.7064 21.573 11.0262 22.2999L11.2879 22.736C11.317 22.7651 11.317 22.7651 11.317 22.7942C11.724 23.7827 12.0729 25.876 14.079 26.6611C13.9918 26.6029 13.9337 26.5738 13.8465 26.5157C13.265 26.0214 12.7998 25.4109 12.4509 24.7421C11.5496 22.9395 11.7822 21.8056 11.695 21.3695C11.8694 21.4277 12.4799 21.573 12.5962 21.6021C12.5962 21.573 11.5205 21.1079 11.2007 20.9334C11.3461 20.8462 11.4914 20.788 11.6659 20.759C12.3637 20.6717 12.6253 20.9043 13.0905 20.9625C13.4103 20.9916 13.7011 20.9625 13.9918 20.9043L12.0729 20.4682ZM21.6093 29.1033C21.6384 29.1033 21.6384 29.1324 21.6674 29.1324L21.6093 29.1033ZM25.1855 22.8232C25.2145 22.7942 25.2145 22.7651 25.2436 22.7651L25.5053 22.329C25.8251 21.6021 26.1449 20.3519 24.4586 20.4973L22.4815 20.9916C22.7723 21.0788 23.0921 21.0788 23.3829 21.0497C23.848 20.9916 24.1097 20.759 24.8075 20.8462C24.9819 20.8753 25.1273 20.9334 25.2726 21.0206C24.9528 21.1951 23.8771 21.6603 23.8771 21.6893C23.9934 21.6603 24.604 21.5149 24.7784 21.4568C24.6621 21.9219 24.8947 23.0268 24.0225 24.8294C23.6736 25.4981 23.2084 26.1086 22.6269 26.6029C22.5397 26.6611 22.4815 26.7192 22.3943 26.7483C24.4295 25.9051 24.7784 23.8118 25.1855 22.8232ZM18.2658 29.2196C18.0332 29.2196 17.7715 29.2196 17.4226 29.2196C17.1319 29.2196 16.8121 29.1614 16.5504 29.0452C16.405 28.9289 16.3178 28.7544 16.3469 28.5509C16.3759 28.2892 16.6957 28.1148 16.6957 28.1148C16.6957 28.6963 17.19 28.8707 18.2658 28.8707C19.3415 28.8707 19.8358 28.6963 19.8358 28.1148C19.8358 28.1148 20.1556 28.2892 20.1847 28.5509C20.2137 28.7253 20.1556 28.9289 19.9811 29.0452C19.6904 29.1614 19.3996 29.2196 19.1089 29.2196C18.76 29.2196 18.4984 29.2196 18.2658 29.2196ZM18.2658 35.5578C18.2948 36.3428 16.9574 36.401 15.8235 35.7322C15.7653 35.4997 15.8817 35.0635 15.7654 34.9763C15.5619 34.8309 15.2711 35.0054 15.0676 35.1508C14.8641 35.2961 14.7478 35.5287 14.5442 35.6741C14.6315 34.4821 15.8235 33.3772 17.6843 33.29C17.8878 33.29 18.0913 33.2609 18.2948 33.2609C18.4983 33.2609 18.7019 33.2609 18.9054 33.29C20.7371 33.4063 21.9582 34.4821 22.0454 35.6741C21.8419 35.5287 21.7256 35.2961 21.5221 35.1508C21.3185 35.0054 21.0278 34.86 20.8243 34.9763C20.6789 35.0635 20.8243 35.4706 20.7662 35.7322C19.5741 36.401 18.2367 36.3137 18.2658 35.5578Z" fill="#D71920"/>
</svg>
