<svg width="64" height="64" viewBox="0 0 64 64" fill="none" xmlns="http://www.w3.org/2000/svg">
<rect width="64" height="64" rx="5" transform="matrix(-1 0 0 1 64 0)" fill="#29493B"/>
<path d="M19 33C18.4477 33 18 32.5523 18 32C18 31.4477 18.4477 31 19 31L19 33ZM44.7071 31.2929C45.0976 31.6834 45.0976 32.3166 44.7071 32.7071L38.3431 39.0711C37.9526 39.4616 37.3195 39.4616 36.9289 39.0711C36.5384 38.6805 36.5384 38.0474 36.9289 37.6569L42.5858 32L36.9289 26.3431C36.5384 25.9526 36.5384 25.3195 36.9289 24.9289C37.3195 24.5384 37.9526 24.5384 38.3431 24.9289L44.7071 31.2929ZM19 31L44 31L44 33L19 33L19 31Z" fill="#F7F7F7"/>
</svg>
