<svg width="43" height="43" viewBox="0 0 43 43" fill="none" xmlns="http://www.w3.org/2000/svg">
<rect x="0.5" y="0.5" width="42" height="42" stroke="#F4F4F4"/>
<path d="M9 21C8.44772 21 8 21.4477 8 22C8 22.5523 8.44772 23 9 23V21ZM34.7071 22.7071C35.0976 22.3166 35.0976 21.6834 34.7071 21.2929L28.3431 14.9289C27.9526 14.5384 27.3195 14.5384 26.9289 14.9289C26.5384 15.3195 26.5384 15.9526 26.9289 16.3431L32.5858 22L26.9289 27.6569C26.5384 28.0474 26.5384 28.6805 26.9289 29.0711C27.3195 29.4616 27.9526 29.4616 28.3431 29.0711L34.7071 22.7071ZM9 23H34V21H9V23Z" fill="#F4F4F4"/>
</svg>
