<svg width="159" height="49" viewBox="0 0 159 49" fill="none" xmlns="http://www.w3.org/2000/svg">
<path d="M8.50362 0.0395508H150.442C152.826 0.0395508 154.944 1.07593 156.533 2.3714C157.857 3.92597 158.916 5.99873 158.916 8.33058V40.4583C158.916 42.7902 157.857 44.8629 156.533 46.4175C154.944 47.9721 152.826 48.7494 150.442 48.7494H8.50362C6.12032 48.7494 4.00183 47.9721 2.41296 46.4175C1.08891 44.8629 0.0296631 42.7902 0.0296631 40.4583V8.33058C0.0296631 5.99873 1.08891 3.92597 2.41296 2.3714C4.00183 1.07593 6.12032 0.0395508 8.50362 0.0395508ZM150.442 2.11231H8.50362C6.64995 2.11231 5.06108 2.88959 4.00183 3.92597C2.94259 4.96235 2.14815 6.51692 2.14815 8.33058V40.4583C2.14815 42.272 2.94259 43.8266 4.00183 44.8629C5.06108 46.1584 6.64995 46.6766 8.50362 46.6766H150.442C152.296 46.6766 153.885 46.1584 154.944 44.8629C156.004 43.8266 156.798 42.272 156.798 40.4583V8.33058C156.798 6.51692 156.004 4.96235 154.944 3.92597C153.885 2.88959 152.296 2.11231 150.442 2.11231ZM57.7585 18.6944H59.3474V14.0307H60.6715C61.9955 14.0307 62.5251 14.808 62.7899 16.1034C63.0548 17.658 63.3196 18.4353 63.5844 18.6944H65.1732C64.9084 18.4353 64.6436 17.3989 64.114 15.8443C63.8492 14.808 63.5844 14.0307 62.5251 13.5125C63.8492 13.2534 64.6436 12.217 64.6436 10.6624C64.6436 9.88515 64.3788 9.10787 63.8492 8.58968C63.0548 8.07149 62.2603 7.81239 60.6715 7.81239C59.6122 7.81239 58.553 7.81239 57.7585 8.07149V18.6944ZM59.3474 9.10787C59.6122 8.84877 59.877 8.84877 60.6715 8.84877C62.2603 8.84877 63.3196 9.62606 63.3196 10.9215C63.3196 12.217 62.2603 12.9943 60.6715 12.9943H59.3474V9.10787ZM72.588 12.4761H68.0862V9.10787H72.8528V7.81239H66.7621V18.6944H73.1176V17.658H68.0862V13.7716H72.588V12.4761ZM74.1768 18.1762C74.9713 18.6944 76.0305 18.9535 77.0898 18.9535C79.7379 18.9535 81.0619 17.3989 81.0619 15.8443C81.0619 14.2898 80.0027 13.2534 78.149 12.7352C76.5601 11.9579 76.0305 11.4397 76.0305 10.4033C76.0305 9.88515 76.5601 8.84877 78.149 8.84877C79.2082 8.84877 79.7379 9.10787 80.2675 9.36696L80.5323 8.33058C80.0027 8.07149 79.2082 7.81239 78.149 7.81239C76.0305 7.81239 74.4416 9.10787 74.4416 10.6624C74.4416 12.217 75.7657 13.2534 77.3546 13.7716C78.9434 14.2898 79.4731 14.808 79.4731 15.8443C79.4731 17.1398 78.6786 17.9171 77.3546 17.9171C76.2953 17.9171 75.2361 17.3989 74.7065 17.1398L74.1768 18.1762ZM82.9156 18.6944H84.5045V14.5489H85.5637C86.8878 14.5489 88.2118 14.0307 89.0063 13.2534C89.5359 12.7352 89.8007 11.9579 89.8007 10.9215C89.8007 10.1442 89.5359 9.36696 89.0063 8.84877C88.2118 8.07149 87.1526 7.81239 85.8285 7.81239C84.5045 7.81239 83.71 7.81239 82.9156 8.07149V18.6944ZM84.5045 9.10787C84.7693 9.10787 85.2989 8.84877 85.8285 8.84877C87.4174 8.84877 88.4766 9.62606 88.4766 11.1806C88.4766 12.4761 87.4174 13.5125 85.5637 13.5125C85.0341 13.5125 84.7693 13.2534 84.5045 13.2534V9.10787ZM96.421 7.81239C93.2432 7.81239 91.1248 9.88515 91.1248 13.5125C91.1248 16.8807 93.2432 18.9535 96.1562 18.9535C99.0691 18.9535 101.452 16.8807 101.452 13.2534C101.452 9.88515 99.3339 7.81239 96.421 7.81239ZM96.1562 8.84877C98.5395 8.84877 99.8635 11.1806 99.8635 13.2534C99.8635 15.8443 98.5395 17.9171 96.1562 17.9171C94.0377 17.9171 92.7136 15.8443 92.7136 13.5125C92.7136 10.9215 93.7729 8.84877 96.1562 8.84877ZM104.63 18.6944V14.0307C104.63 12.217 104.63 10.9215 104.365 9.62606C105.16 10.9215 105.689 11.9579 106.484 13.2534L110.191 18.6944H111.515V7.81239H110.191V12.4761C110.191 14.2898 110.191 15.5852 110.456 16.8807C109.926 15.8443 109.132 14.808 108.337 13.5125L104.895 7.81239H103.306V18.6944H104.63ZM113.634 18.1762C114.163 18.6944 115.223 18.9535 116.282 18.9535C118.93 18.9535 120.254 17.3989 120.254 15.8443C120.254 14.2898 119.195 13.2534 117.341 12.7352C115.752 11.9579 115.223 11.4397 115.223 10.4033C115.223 9.88515 115.752 8.84877 117.341 8.84877C118.4 8.84877 118.93 9.10787 119.46 9.36696L119.724 8.33058C119.195 8.07149 118.4 7.81239 117.341 7.81239C115.223 7.81239 113.634 9.10787 113.634 10.6624C113.634 12.217 114.958 13.2534 116.811 13.7716C118.136 14.2898 118.665 14.808 118.665 15.8443C118.665 17.1398 117.871 17.9171 116.547 17.9171C115.487 17.9171 114.428 17.3989 113.899 17.1398L113.634 18.1762ZM122.108 7.81239V18.6944H123.697V7.81239H122.108ZM126.08 18.6944C126.609 18.9535 127.404 18.9535 128.463 18.9535C130.317 18.9535 131.376 18.6944 132.171 17.9171C132.7 17.3989 133.23 16.6216 133.23 15.5852C133.23 14.0307 131.906 13.2534 130.846 12.9943C132.171 12.4761 132.7 11.6988 132.7 10.6624C132.7 9.62606 132.435 9.10787 131.906 8.58968C131.111 8.07149 130.317 7.81239 128.728 7.81239C127.669 7.81239 126.874 7.81239 126.08 8.07149V18.6944ZM127.669 9.10787C127.934 8.84877 128.198 8.84877 128.993 8.84877C130.317 8.84877 131.376 9.36696 131.376 10.6624C131.376 11.6988 130.317 12.4761 128.993 12.4761H127.669V9.10787ZM127.669 13.5125H128.728C130.317 13.5125 131.641 14.2898 131.641 15.5852C131.641 17.1398 130.317 17.9171 128.728 17.9171C128.198 17.9171 127.934 17.658 127.669 17.658V13.5125ZM135.083 18.6944H141.439V17.658H136.672V7.81239H135.083V18.6944ZM148.589 12.4761H144.352V9.10787H148.854V7.81239H143.028V18.6944H149.118V17.658H144.352V13.7716H148.589V12.4761ZM70.7343 30.0945H64.3788V33.4628H67.0269V37.3492C66.7621 37.6083 65.9677 37.6083 65.1732 37.6083C61.9955 37.6083 59.877 35.2764 59.877 31.6491C59.877 27.5036 62.2603 25.4308 65.4381 25.4308C67.2917 25.4308 68.351 25.949 69.4102 26.4672L70.2047 23.099C69.4102 22.5808 67.5565 22.0626 65.4381 22.0626C59.877 22.0626 55.9049 25.6899 55.9049 31.6491C55.9049 34.4992 56.6993 36.831 58.2882 38.6447C59.877 40.1992 61.9955 40.9765 65.1732 40.9765C67.2917 40.9765 69.675 40.4583 70.7343 39.9401V30.0945ZM82.386 36.0537L83.71 40.7174H87.6822L82.6508 22.3217H77.6194L72.588 40.7174H76.2953L77.6194 36.0537H82.386ZM78.149 32.9446L79.2082 29.0582C79.4731 28.0218 79.7379 26.4672 80.0027 25.4308C80.2675 26.4672 80.5323 27.7627 80.7971 29.0582L81.8564 32.9446H78.149ZM104.365 40.7174H108.073L107.278 22.3217H102.247L100.393 28.54C99.8635 30.6127 99.3339 32.9446 98.8043 35.0173C98.5395 32.9446 98.0098 30.6127 97.4802 28.54L95.8914 22.3217H90.5951L89.5359 40.7174H93.2432L93.5081 33.7219C93.5081 31.39 93.7729 28.54 93.7729 26.2081C94.3025 28.54 94.8321 31.1309 95.3617 33.4628L97.2154 40.4583H100.128L102.247 33.2037C102.776 31.1309 103.571 28.54 104.101 26.2081V33.7219L104.365 40.7174ZM110.986 22.3217V40.7174H114.958V22.3217H110.986ZM121.578 40.7174V27.2445C122.372 29.3173 123.432 31.6491 124.491 33.7219L128.198 40.7174H132.171V22.3217H128.728V27.7627C128.728 30.3536 128.728 32.9446 128.993 35.5355C128.198 33.4628 127.139 31.1309 126.08 29.0582L122.637 22.3217H118.136V40.7174H121.578ZM149.383 30.0945H143.293V33.4628H145.676V37.3492C145.411 37.6083 144.881 37.6083 143.822 37.6083C140.909 37.6083 138.526 35.2764 138.526 31.6491C138.526 27.5036 140.909 25.4308 144.087 25.4308C145.941 25.4308 147.265 25.949 148.059 26.4672L148.854 23.099C148.059 22.5808 146.47 22.0626 144.352 22.0626C138.791 22.0626 134.554 25.6899 134.554 31.6491C134.554 34.4992 135.348 36.831 136.937 38.6447C138.526 40.1992 140.644 40.9765 143.822 40.9765C145.941 40.9765 148.324 40.4583 149.383 39.9401V30.0945ZM28.6293 40.4583H22.009V27.7627H20.1553C17.5072 28.0218 16.1832 29.0582 15.3887 32.9446C14.5943 36.831 13.7999 39.6811 13.2702 40.4583H6.64995C7.17957 39.1629 8.23881 35.0173 9.03325 31.39C9.82768 28.54 10.8869 26.2081 13.0054 25.4308V25.1717C10.3573 24.3945 7.70919 21.5444 7.70919 17.3989C7.70919 14.2898 8.76844 12.217 10.3573 10.6624C12.4758 8.84877 15.6535 8.07149 19.8905 8.07149C23.3331 8.07149 26.5108 8.33058 28.6293 8.84877V11.6988C31.5422 9.36696 35.2496 8.07149 39.7514 8.07149C43.4587 8.07149 46.3716 8.84877 47.6957 9.62606L46.3716 15.3261C44.7828 14.5489 42.9291 14.0307 39.4865 14.0307C34.1903 14.0307 29.9533 17.3989 29.9533 24.3945C29.9533 31.1309 33.6607 35.0173 39.2217 35.0173C40.5458 35.0173 41.8699 34.7583 42.3995 34.4992V27.7627H37.8977V22.0626H48.7549V38.9038C46.6365 39.6811 42.9291 40.7174 38.9569 40.7174C34.4551 40.7174 31.2774 39.6811 28.6293 37.8674V40.4583ZM22.009 13.7716C21.7442 13.7716 20.6849 13.5125 19.0961 13.5125C16.1832 13.5125 14.3295 15.067 14.3295 17.9171C14.3295 20.7671 16.1832 22.5808 19.6257 22.5808H22.009V13.7716Z" fill="#3B3648"/>
</svg>
