<svg xmlns="http://www.w3.org/2000/svg" xmlns:xlink="http://www.w3.org/1999/xlink">
 
  <symbol id="m" width="24" height="24" viewBox="0 0 24 24" fill="none" xmlns="http://www.w3.org/2000/svg">
    <path d="M3.6001 7.19998C3.6001 6.2452 3.97938 5.32952 4.65451 4.65439C5.32964 3.97926 6.24532 3.59998 7.2001 3.59998H16.8001C17.7549 3.59998 18.6706 3.97926 19.3457 4.65439C20.0208 5.32952 20.4001 6.2452 20.4001 7.19998V16.8C20.4001 17.7548 20.0208 18.6704 19.3457 19.3456C18.6706 20.0207 17.7549 20.4 16.8001 20.4H12.7753C13.2866 19.95 13.696 19.3961 13.9762 18.7753C14.2564 18.1545 14.4009 17.4811 14.4001 16.8V14.4C14.4001 13.1269 13.8944 11.906 12.9942 11.0059C12.094 10.1057 10.8731 9.59998 9.6001 9.59998H7.2001C6.51899 9.59917 5.84556 9.74368 5.22475 10.0239C4.60395 10.3041 4.05007 10.7135 3.6001 11.2248V7.19998ZM7.2001 10.8C6.24532 10.8 5.32964 11.1793 4.65451 11.8544C3.97938 12.5295 3.6001 13.4452 3.6001 14.4V16.8C3.6001 17.7548 3.97938 18.6704 4.65451 19.3456C5.32964 20.0207 6.24532 20.4 7.2001 20.4H9.6001C10.5549 20.4 11.4706 20.0207 12.1457 19.3456C12.8208 18.6704 13.2001 17.7548 13.2001 16.8V14.4C13.2001 13.4452 12.8208 12.5295 12.1457 11.8544C11.4706 11.1793 10.5549 10.8 9.6001 10.8H7.2001Z" fill="#2849B7"/>
  </symbol>

    <svg id="person" width="24" height="24" viewBox="0 0 24 24" fill="none" xmlns="http://www.w3.org/2000/svg">
     <path d="M16 11C17.66 11 18.99 9.66 18.99 8C18.99 6.34 17.66 5 16 5C14.34 5 13 6.34 13 8C13 9.66 14.34 11 16 11ZM8 11C9.66 11 10.99 9.66 10.99 8C10.99 6.34 9.66 5 8 5C6.34 5 5 6.34 5 8C5 9.66 6.34 11 8 11ZM8 13C5.67 13 1 14.17 1 16.5V19H15V16.5C15 14.17 10.33 13 8 13ZM16 13C15.71 13 15.38 13.02 15.03 13.05C16.19 13.89 17 15.02 17 16.5V19H23V16.5C23 14.17 18.33 13 16 13Z" fill="#2849B7"/>
  </svg>

</svg>
