<svg xmlns="http://www.w3.org/2000/svg" xmlns:xlink="http://www.w3.org/1999/xlink">
 
  <symbol id="dyw" width="32" height="32" viewBox="0 0 32 32" fill="none" xmlns="http://www.w3.org/2000/svg">
    <path d="M20.8065 6.47464L23.6385 3.64131C23.9462 3.32563 24.3135 3.0742 24.7191 2.90159C25.1247 2.72898 25.5606 2.63864 26.0014 2.63581C26.4422 2.63298 26.8792 2.71771 27.287 2.8851C27.6948 3.05248 28.0653 3.29918 28.377 3.61088C28.6887 3.92258 28.9354 4.29308 29.1028 4.70088C29.2701 5.10868 29.3549 5.54565 29.352 5.98646C29.3492 6.42726 29.2589 6.86311 29.0863 7.26873C28.9137 7.67434 28.6622 8.04164 28.3465 8.34931L25.5172 11.1786C26.4909 13.1027 26.8589 15.2765 26.5728 17.4139C26.2867 19.5512 25.3599 21.5517 23.9145 23.152C24.1017 23.8596 24.0503 24.6093 23.7683 25.2848C23.4863 25.9603 22.9895 26.5239 22.3547 26.8885C21.72 27.2531 20.9828 27.3983 20.2572 27.3015C19.5316 27.2048 18.8582 26.8715 18.3412 26.3533L5.68788 13.7C5.17563 13.1867 4.84496 12.5203 4.74611 11.8019C4.64726 11.0836 4.78565 10.3526 5.14023 9.72005C5.49482 9.08752 6.04622 8.58806 6.71062 8.29757C7.37502 8.00708 8.1161 7.94145 8.82121 8.11064C10.4189 6.65735 12.4198 5.72293 14.5597 5.43083C16.6997 5.13873 18.8778 5.5027 20.8065 6.47464ZM24.4199 9.44798L26.9319 6.93598C27.1812 6.68667 27.3212 6.34855 27.3212 5.99598C27.3212 5.64341 27.1812 5.30528 26.9319 5.05598C26.6826 4.80667 26.3444 4.66662 25.9919 4.66662C25.6393 4.66662 25.3012 4.80667 25.0519 5.05598L22.5385 7.57064C23.2404 8.11683 23.8719 8.74786 24.4185 9.44931L24.4199 9.44798ZM7.10121 10.408C6.97777 10.5314 6.87984 10.678 6.81304 10.8393C6.74623 11.0005 6.71184 11.1734 6.71184 11.348C6.71184 11.5226 6.74623 11.6954 6.81304 11.8567C6.87984 12.018 6.97777 12.1645 7.10121 12.288L19.7545 24.94C19.878 25.0634 20.0245 25.1613 20.1858 25.2281C20.3471 25.295 20.52 25.3293 20.6945 25.3293C20.8691 25.3293 21.042 25.295 21.2033 25.2281C21.3646 25.1613 21.5111 25.0634 21.6345 24.94C21.758 24.8165 21.8559 24.67 21.9227 24.5087C21.9895 24.3474 22.0239 24.1745 22.0239 24C22.0239 23.8254 21.9895 23.6525 21.9227 23.4913C21.8559 23.33 21.758 23.1834 21.6345 23.06L8.98121 10.4066C8.85777 10.2832 8.71122 10.1853 8.54994 10.1185C8.38865 10.0517 8.21579 10.0173 8.04121 10.0173C7.86664 10.0173 7.69377 10.0517 7.53249 10.1185C7.3712 10.1853 7.22465 10.2832 7.10121 10.4066V10.408ZM10.3732 23.04C10.4715 22.9484 10.5503 22.838 10.6049 22.7154C10.6596 22.5927 10.689 22.4603 10.6913 22.326C10.6937 22.1917 10.669 22.0584 10.6187 21.9338C10.5684 21.8093 10.4936 21.6962 10.3986 21.6013C10.3036 21.5063 10.1905 21.4314 10.066 21.3811C9.94149 21.3309 9.80812 21.3062 9.67385 21.3085C9.53958 21.3109 9.40716 21.3403 9.2845 21.3949C9.16183 21.4496 9.05143 21.5284 8.95988 21.6266L6.29321 24.2933C6.19496 24.3849 6.11616 24.4953 6.0615 24.6179C6.00685 24.7406 5.97746 24.873 5.97509 25.0073C5.97272 25.1416 5.99742 25.2749 6.04772 25.3994C6.09801 25.524 6.17287 25.6371 6.26783 25.732C6.36279 25.827 6.4759 25.9018 6.60042 25.9521C6.72493 26.0024 6.85831 26.0271 6.99258 26.0248C7.12685 26.0224 7.25926 25.993 7.38193 25.9384C7.5046 25.8837 7.615 25.8049 7.70655 25.7066L10.3732 23.04ZM13.7065 24.96C13.8938 25.1475 13.999 25.4016 13.999 25.6666C13.999 25.9316 13.8938 26.1858 13.7065 26.3733L11.0399 29.04C10.8503 29.2166 10.5996 29.3128 10.3405 29.3082C10.0814 29.3036 9.83427 29.1987 9.65105 29.0155C9.46783 28.8323 9.36288 28.5851 9.35831 28.326C9.35374 28.0669 9.44991 27.8162 9.62655 27.6266L12.2932 24.96C12.4807 24.7727 12.7349 24.6675 12.9999 24.6675C13.2649 24.6675 13.519 24.7727 13.7065 24.96ZM7.03988 19.7066C7.13813 19.6151 7.21693 19.5047 7.27159 19.382C7.32624 19.2594 7.35563 19.1269 7.358 18.9927C7.36037 18.8584 7.33567 18.725 7.28538 18.6005C7.23508 18.476 7.16022 18.3629 7.06526 18.2679C6.97031 18.173 6.85719 18.0981 6.73268 18.0478C6.60816 17.9975 6.47479 17.9728 6.34052 17.9752C6.20625 17.9776 6.07383 18.0069 5.95116 18.0616C5.8285 18.1163 5.7181 18.1951 5.62655 18.2933L2.95988 20.96C2.86163 21.0515 2.78283 21.1619 2.72817 21.2846C2.67352 21.4073 2.64413 21.5397 2.64176 21.6739C2.63939 21.8082 2.66409 21.9416 2.71438 22.0661C2.76468 22.1906 2.83954 22.3037 2.93449 22.3987C3.02945 22.4937 3.14257 22.5685 3.26708 22.6188C3.3916 22.6691 3.52497 22.6938 3.65924 22.6914C3.79351 22.6891 3.92593 22.6597 4.0486 22.605C4.17126 22.5504 4.28166 22.4716 4.37321 22.3733L7.03988 19.7066ZM22.7945 21.3813C24.1132 19.7148 24.7737 17.6218 24.6505 15.5003C24.5273 13.3787 23.629 11.3763 22.1263 9.87359C20.6236 8.37088 18.6212 7.47258 16.4996 7.34938C14.378 7.22617 12.2851 7.88665 10.6185 9.20531L22.7945 21.3813Z" fill="white"/>
  </symbol>

  <symbol id="wifi" width="32" height="32" viewBox="0 0 32 32" fill="none" xmlns="http://www.w3.org/2000/svg">
    <path d="M2.66675 12.6433C3.05587 12.2744 3.45999 11.9217 3.87808 11.586C11.3581 5.58266 22.2547 5.93533 29.3334 12.6433" stroke="white" stroke-width="2" stroke-linecap="round" stroke-linejoin="round"/>
    <path d="M25.3334 17.1994C20.1787 12.0447 11.8214 12.0447 6.66675 17.1994M21.3334 21.5427C18.3881 18.5967 13.6121 18.5967 10.6667 21.5427" stroke="white" stroke-width="2" stroke-linecap="round" stroke-linejoin="round"/>
    <path fill-rule="evenodd" clip-rule="evenodd" d="M16.0002 26.6667C16.4422 26.6667 16.8661 26.4911 17.1787 26.1786C17.4912 25.866 17.6668 25.4421 17.6668 25C17.6668 24.558 17.4912 24.1341 17.1787 23.8215C16.8661 23.509 16.4422 23.3334 16.0002 23.3334C15.5581 23.3334 15.1342 23.509 14.8217 23.8215C14.5091 24.1341 14.3335 24.558 14.3335 25C14.3335 25.4421 14.5091 25.866 14.8217 26.1786C15.1342 26.4911 15.5581 26.6667 16.0002 26.6667Z" fill="white"/>
  </symbol>

  <symbol id="conder" width="32" height="32" viewBox="0 0 32 32" fill="none" xmlns="http://www.w3.org/2000/svg">
    <path d="M29.3334 14.6667V4.8C29.3334 4.58783 29.2491 4.38434 29.0991 4.23431C28.9491 4.08429 28.7456 4 28.5334 4H3.46675C3.25457 4 3.05109 4.08429 2.90106 4.23431C2.75103 4.38434 2.66675 4.58783 2.66675 4.8V14.6667M29.3334 14.6667H2.66675M29.3334 14.6667L28.2801 18.112C28.1133 18.6582 27.7756 19.1364 27.3167 19.4763C26.8578 19.8162 26.3018 19.9998 25.7307 20H24.0001M2.66675 14.6667L3.72008 18.112C3.88684 18.6582 4.22454 19.1364 4.68347 19.4763C5.14241 19.8162 5.69833 19.9998 6.26941 20H8.00008M24.0001 9.33333H25.3334M12.6667 19.3333C12.6667 19.3333 12.6667 28.6667 8.00008 28.6667M19.3334 19.3333C19.3334 19.3333 19.3334 28.6667 24.0001 28.6667M16.0001 19.3333V28.6667" stroke="white" stroke-width="1.5" stroke-linecap="round" stroke-linejoin="round"/>
  </symbol>
 
  <symbol id="window" width="32" height="32" viewBox="0 0 32 32" fill="none" xmlns="http://www.w3.org/2000/svg">
    <path d="M28.6667 2.66663H3.33341C3.1566 2.66663 2.98703 2.73686 2.86201 2.86189C2.73699 2.98691 2.66675 3.15648 2.66675 3.33329V28.6666C2.66675 28.8434 2.73699 29.013 2.86201 29.138C2.98703 29.2631 3.1566 29.3333 3.33341 29.3333H28.6667C28.8436 29.3333 29.0131 29.2631 29.1382 29.138C29.2632 29.013 29.3334 28.8434 29.3334 28.6666V3.33329C29.3334 3.15648 29.2632 2.98691 29.1382 2.86189C29.0131 2.73686 28.8436 2.66663 28.6667 2.66663ZM11.3334 28H4.00008V3.99996H11.3334V28ZM28.0001 28H12.6667V16.6666H28.0001V28ZM28.0001 15.3333H12.6667V3.99996H28.0001V15.3333Z" fill="white"/>
  </symbol>
 
</svg>
