<svg xmlns="http://www.w3.org/2000/svg" xmlns:xlink="http://www.w3.org/1999/xlink">

  <symbol id="group-1" viewBox="0 0 567 76" fill="none" xmlns="http://www.w3.org/2000/svg">
    <path d="M564.585 75.2918H525.674C524.962 75.2918 524.391 74.8576 524.106 74.2786C523.821 73.6997 523.964 72.976 524.249 72.397L550.332 39.2511L523.251 4.65776L496.028 39.2511L522.111 72.397C522.539 72.976 522.539 73.6997 522.254 74.2786C521.969 74.8576 521.398 75.2918 520.686 75.2918H-4.28961C-5.28732 75.2918 -5.99997 74.5681 -5.99997 73.5549C-5.99997 72.5417 -5.28732 71.818 -4.28961 71.818H517.265L492.607 40.409C492.18 39.8301 492.18 38.8169 492.607 38.2379L521.968 0.749728C522.681 -0.118724 523.964 -0.118724 524.677 0.749728L554.038 38.2379C554.465 38.8169 554.465 39.8301 554.038 40.409L529.38 71.818H564.728C565.725 71.818 566.438 72.5417 566.438 73.5549C566.295 74.5681 565.583 75.2918 564.585 75.2918Z" fill="#EB266F"/>
  </symbol>

  <symbol id="group-2" viewBox="0 0 97 77" fill="none" xmlns="http://www.w3.org/2000/svg">
    <path d="M94.0872 76.2924H51.4707C50.7581 76.2924 50.1879 75.8582 49.9029 75.1344C47.9075 69.9237 46.4822 60.9497 45.7695 54.2916C45.0569 60.9497 43.6316 69.9237 41.6361 75.1344C41.3511 75.8582 40.781 76.2924 40.0683 76.2924H1.87022C0.872506 76.2924 0.159882 75.5687 0.159882 74.5555C0.159882 73.5423 0.872506 72.8186 1.87022 72.8186H38.928C40.4959 68.4763 41.4936 61.8182 42.2063 56.1732C39.2131 62.5419 32.9418 66.8841 25.5302 66.8841C16.8359 66.8841 9.13929 60.5155 7.42892 51.831C7.14386 50.673 7.00131 49.3704 7.00131 48.2124C7.00131 37.9357 15.2681 29.396 25.5302 29.396C27.2406 29.396 28.6659 29.6855 29.9487 29.9749C28.5234 27.3696 27.3831 23.8958 27.3831 19.5535C27.3831 9.27684 35.6499 0.737061 45.912 0.737061C56.0317 0.737061 64.441 9.1321 64.441 19.5535C64.441 24.0405 63.3007 27.3696 61.8754 29.9749C63.1582 29.6855 64.5835 29.396 66.2938 29.396C76.4135 29.396 84.8227 37.791 84.8227 48.2124C84.8227 49.5151 84.6802 50.8178 84.3952 51.9757C82.6848 60.6602 74.9882 67.0289 66.2938 67.0289C58.8823 67.0289 52.6109 62.6866 49.6178 56.318C50.3304 61.9629 51.3282 68.6211 52.896 72.9633H94.3723C95.37 72.9633 96.0826 73.687 96.0826 74.7002C95.7976 75.5687 95.0849 76.2924 94.0872 76.2924ZM49.3328 44.8834C49.6178 44.8834 49.9029 45.0281 50.188 45.1729C50.7581 45.4623 51.0431 46.186 51.0431 46.765C51.0431 47.1992 51.0431 47.6335 51.0431 48.0677C51.0431 56.4627 57.742 63.4103 66.1513 63.4103C73.2778 63.4103 79.5491 58.1996 80.9744 51.252C81.1169 50.2388 81.2595 49.2256 81.2595 48.3572C81.2595 39.8174 74.5606 32.8698 66.1513 32.8698C61.3053 32.8698 58.5972 34.8962 57.3145 35.7646C56.7443 36.1988 55.319 37.212 54.1788 36.0541C53.8937 35.7646 53.6087 35.1857 53.6087 34.7514C53.6087 33.883 54.1788 33.4487 54.8914 32.725C56.6018 30.9881 60.7352 27.0801 60.7352 19.4088C60.7352 11.0137 54.0362 4.06613 45.627 4.06613C37.3602 4.06613 30.5188 10.869 30.5188 19.4088C30.5188 26.9354 34.6522 30.9881 36.3625 32.725C37.0752 33.4487 37.6453 33.883 37.6453 34.7514C37.6453 35.1857 37.5028 35.7646 37.0752 36.0541C35.9349 37.212 34.6521 36.1988 33.9395 35.7646C32.6567 34.7514 29.9487 32.725 25.2452 32.725C16.9784 32.725 10.137 39.5279 10.137 48.0677C10.137 48.0677 10.137 48.2124 10.137 48.3572C10.137 49.2256 10.2795 50.2388 10.422 51.252C11.8473 58.3444 18.1187 63.5551 25.2452 63.5551C33.5119 63.5551 40.3533 56.7522 40.3533 48.2124C40.3533 47.7782 40.3533 47.344 40.3533 46.9098C40.3533 46.3308 40.6384 45.6071 41.2085 45.3176C41.7786 45.0281 42.4913 44.8834 42.9189 45.3176C43.0614 45.4623 43.3465 45.6071 43.489 45.6071C44.0591 45.8966 44.6293 46.3308 45.1994 46.4755C45.3419 46.4755 45.627 46.6203 45.7695 46.765C45.912 46.6203 46.0546 46.4755 46.3396 46.4755C46.9097 46.3308 47.6224 45.8966 48.1925 45.4623L48.6201 45.1729C48.6201 45.0281 49.0477 44.8834 49.3328 44.8834Z" fill="#6B2068"/>
  </symbol>

  <symbol id="group-3" viewBox="0 0 92 73" fill="none" xmlns="http://www.w3.org/2000/svg">
    <path d="M90.3133 72.2923H48.9796C48.2669 72.2923 47.6968 71.858 47.4117 71.2791C47.1267 70.7001 47.2692 69.8316 47.6968 69.3974C52.2578 64.4762 57.8164 59.1207 63.9452 53.6205C74.4925 44.2123 83.1868 35.5278 83.1868 24.2379C83.1868 10.9217 74.0649 4.55301 65.5131 4.40827C57.6739 4.11878 48.6945 8.17156 47.6968 16.2771C47.5543 17.1456 46.8416 17.7245 45.9864 17.7245C45.1313 17.7245 44.4186 17.0008 44.2761 16.2771C43.2784 8.17156 34.299 4.11878 26.4598 4.40827C17.908 4.69775 8.78611 11.0664 8.78611 24.2379C8.78611 35.6725 17.4804 44.3571 28.0277 53.6205C34.1565 59.1207 39.7151 64.4762 44.2761 69.3974C44.7037 69.8316 44.8462 70.7001 44.5611 71.2791C44.2761 71.858 43.706 72.2923 42.9933 72.2923H1.8021C0.804391 72.2923 0.0917664 71.5685 0.0917664 70.5554C0.0917664 69.5422 0.804391 68.8184 1.8021 68.8184H39.0025C35.1542 64.7657 30.5932 60.5682 25.7472 56.2259C14.6298 46.2387 5.36535 36.9752 5.36535 24.0932C5.36535 9.18475 15.9126 1.0792 26.3173 0.789716C35.0116 0.500232 42.5657 4.40827 45.8439 10.4874C49.1221 4.40827 56.6762 0.500232 65.3705 0.789716C75.7752 1.0792 86.3225 9.18475 86.3225 24.0932C86.3225 36.9752 77.058 46.2387 65.9406 56.2259C61.0946 60.5682 56.5337 64.7657 52.6854 68.8184H89.8857C90.8834 68.8184 91.5961 69.5422 91.5961 70.5554C92.0237 71.5685 91.311 72.2923 90.3133 72.2923Z" fill="#EB266F"/>
  </symbol>

  <symbol id="group-4" viewBox="0 0 537 79" fill="none" xmlns="http://www.w3.org/2000/svg">
    <path d="M540.715 78.3054L50.0607 77.2922C49.4906 77.2922 48.9204 77.0027 48.4929 76.4238C46.3549 72.5157 45.2147 66.7261 44.3595 61.2259C43.5043 66.7261 42.3641 72.5157 40.2261 76.4238C39.9411 77.0027 39.3709 77.2922 38.6583 77.2922H2.17057C1.17286 77.2922 0.460236 76.5685 0.460236 75.5553C0.460236 74.5421 1.17286 73.8184 2.17057 73.8184H37.6606C38.9434 71.2131 39.7985 67.5945 40.3687 63.976C36.9479 66.7261 32.2444 68.1735 27.1133 68.1735C16.7086 68.1735 8.29939 59.6337 8.29939 49.0675C8.29939 37.1987 17.1362 28.9484 27.3984 19.3954C39.656 7.81607 42.7916 1.01319 42.7916 1.01319C43.0767 0.434226 43.6468 0 44.3595 0C45.0721 0 45.6423 0.434226 45.9273 1.01319C45.9273 1.01319 49.063 7.96081 61.3206 19.3954C71.5827 28.9484 80.4196 37.1987 80.4196 49.0675C80.4196 59.6337 72.0103 68.1735 61.6056 68.1735C56.4746 68.1735 51.9136 66.5813 48.3504 63.976C49.063 67.5945 49.9182 71.2131 51.0584 73.8184L540.715 74.8316C541.712 74.8316 542.425 75.5553 542.425 76.5685C542.425 77.5817 541.57 78.3054 540.715 78.3054ZM45.7848 56.7389C46.3549 56.7389 46.925 57.0283 47.2101 57.6073C49.7756 61.9496 55.3343 64.6997 61.6056 64.6997C70.1574 64.6997 76.9989 57.6073 76.9989 49.0675C76.9989 38.7909 69.0172 31.2643 59.0401 21.856C50.6308 14.04 46.3549 8.25029 44.3595 5.06597C42.3641 8.25029 38.0882 14.04 29.6789 21.856C19.7018 31.2643 11.7201 38.6461 11.7201 49.0675C11.7201 57.7521 18.7041 64.6997 27.1133 64.6997C33.3847 64.6997 38.9433 61.9496 41.5089 57.6073C41.9365 56.8836 42.7916 56.5941 43.5043 56.8836C43.7894 57.0283 44.0744 57.1731 44.2169 57.4626C44.3595 57.1731 44.6445 57.0283 44.9296 56.8836C45.3572 56.8836 45.6423 56.7389 45.7848 56.7389Z" fill="#6B2068"/>
  </symbol>

</svg>
