<svg width="64" height="64" viewBox="0 0 64 64" fill="none" xmlns="http://www.w3.org/2000/svg">
<circle cx="32" cy="32" r="32" fill="#101010"/>
<path d="M16.6956 31C16.1434 31 15.6956 31.4477 15.6956 32C15.6956 32.5523 16.1434 33 16.6956 33L16.6956 31ZM48.0115 32.7071C48.402 32.3166 48.402 31.6834 48.0115 31.2929L41.6475 24.9289C41.257 24.5384 40.6238 24.5384 40.2333 24.9289C39.8428 25.3195 39.8428 25.9526 40.2333 26.3431L45.8901 32L40.2333 37.6569C39.8428 38.0474 39.8428 38.6805 40.2333 39.0711C40.6238 39.4616 41.257 39.4616 41.6475 39.0711L48.0115 32.7071ZM16.6956 33L47.3043 33L47.3043 31L16.6956 31L16.6956 33Z" fill="#1A9534"/>
</svg>
