<svg width="40" height="40" viewBox="0 0 40 40" fill="none" xmlns="http://www.w3.org/2000/svg">
<path d="M20.2266 3.74998C11.0875 3.62655 3.62658 11.0875 3.75001 20.2265C3.87189 28.9914 11.0086 36.1281 19.7735 36.25C28.9141 36.375 36.3734 28.914 36.2484 19.775C36.1281 11.0086 28.9914 3.87186 20.2266 3.74998ZM18.9149 18.7867L22.9422 14.1773C23.1604 13.9277 23.4688 13.7749 23.7996 13.7526C24.1305 13.7303 24.4566 13.8404 24.7063 14.0586C24.9559 14.2768 25.1087 14.5852 25.131 14.916C25.1533 15.2468 25.0432 15.573 24.825 15.8226L20.7977 20.432C20.6896 20.5556 20.5583 20.6568 20.4112 20.7297C20.2641 20.8025 20.104 20.8457 19.9402 20.8567C19.7764 20.8678 19.612 20.8464 19.4565 20.7939C19.3009 20.7414 19.1572 20.6588 19.0336 20.5508C18.91 20.4427 18.8088 20.3114 18.736 20.1643C18.6631 20.0172 18.6199 19.8571 18.6089 19.6933C18.5979 19.5295 18.6192 19.3651 18.6717 19.2096C18.7242 19.054 18.8068 18.9103 18.9149 18.7867ZM15.8789 25.8844C15.6445 26.1186 15.3267 26.2502 14.9953 26.2502C14.6639 26.2502 14.3461 26.1186 14.1117 25.8844L10.3656 22.1344C10.2496 22.0182 10.1576 21.8804 10.0948 21.7287C10.0321 21.577 9.9998 21.4144 9.99987 21.2502C9.99994 21.086 10.0324 20.9235 10.0952 20.7718C10.1581 20.6202 10.2503 20.4824 10.3664 20.3664C10.4826 20.2504 10.6204 20.1583 10.7721 20.0956C10.9238 20.0328 11.0864 20.0006 11.2506 20.0006C11.4147 20.0007 11.5773 20.0331 11.7289 20.096C11.8806 20.1589 12.0184 20.251 12.1344 20.3672L15.8844 24.1172C16.1179 24.3523 16.2485 24.6705 16.2475 25.0019C16.2465 25.3333 16.1139 25.6507 15.8789 25.8844ZM29.6914 15.8226L20.9508 25.8226C20.8382 25.9517 20.7003 26.0562 20.5456 26.1297C20.3909 26.2032 20.2227 26.2442 20.0516 26.25H20.0094C19.8451 26.25 19.6825 26.2177 19.5307 26.1548C19.379 26.0919 19.2411 25.9998 19.125 25.8836L15.3797 22.1336C15.1454 21.899 15.0138 21.581 15.0139 21.2494C15.0141 20.9179 15.1459 20.6 15.3805 20.3656C15.615 20.1313 15.9331 19.9997 16.2646 19.9998C16.5962 20 16.9141 20.1318 17.1485 20.3664L19.4766 22.6969C19.5371 22.7574 19.6094 22.8049 19.689 22.8363C19.7687 22.8677 19.8539 22.8825 19.9394 22.8796C20.025 22.8768 20.109 22.8564 20.1864 22.8197C20.2637 22.783 20.3327 22.7308 20.3891 22.6664L27.8109 14.1773C28.0291 13.9277 28.3376 13.7749 28.6684 13.7526C28.9992 13.7303 29.3253 13.8404 29.575 14.0586C29.8247 14.2768 29.9775 14.5852 29.9997 14.916C30.022 15.2468 29.9119 15.573 29.6938 15.8226H29.6914Z" fill="#E0DACA"/>
</svg>
