<svg width="113" height="56" viewBox="0 0 113 56" fill="none" xmlns="http://www.w3.org/2000/svg">
<path d="M0.0582275 12.3028C0.0582275 5.97025 5.19184 0.83667 11.5244 0.83667H101.534C107.866 0.83667 113 5.97025 113 12.3028V44.4081C113 50.7407 107.866 55.8743 101.534 55.8743H11.5244C5.19184 55.8743 0.0582275 50.7407 0.0582275 44.4081V12.3028Z" fill="#261939"/>
<path d="M48.2648 17.7023H50.8778L52.8306 21.6355L54.8385 17.7023H57.3689L57.8364 26.3938H55.4985L55.251 21.0304L53.5182 24.3035H52.0329L50.3551 21.0854L50.1076 26.3938H47.7697L48.2648 17.7023Z" fill="white"/>
<path d="M59.5142 17.7023H66.1979V19.8752H61.9346V20.9754H65.6478V23.0107H61.9346V24.2485H66.3079V26.4213H59.5142V17.7023Z" fill="white"/>
<path d="M67.8756 17.7023H71.6713C73.9267 17.7023 75.2194 18.995 75.2194 20.7278C75.2469 21.773 74.6968 22.7632 73.7891 23.3133L75.7695 26.3938H72.9641L71.5338 23.8634C71.3688 23.8634 71.1762 23.8634 70.9837 23.8359C70.7362 23.8359 70.4886 23.8084 70.241 23.7534V26.3663H67.8756V17.7023ZM72.6891 20.7828C72.6891 20.1502 72.249 19.7377 71.4788 19.7377H70.2136V21.7455C70.6262 21.8005 71.0387 21.828 71.4788 21.828C72.2765 21.8555 72.6891 21.4155 72.6891 20.7828Z" fill="white"/>
<path d="M86.0013 21.9931V17.7023H88.5043V22.0756C88.5043 23.6158 88.9994 24.276 90.0996 24.276C91.1998 24.276 91.7224 23.6434 91.7224 22.0756V17.7023H94.2252V21.9931C94.2252 24.771 92.8225 26.5589 90.0996 26.5589C87.3216 26.5589 86.0013 24.8536 86.0013 21.9931Z" fill="white"/>
<path d="M95.9306 17.7023H99.7263C101.982 17.7023 103.274 18.995 103.274 20.7278C103.302 21.773 102.752 22.7632 101.844 23.3133L103.824 26.3938H101.019L99.5888 23.8634C99.4238 23.8634 99.2311 23.8634 99.0386 23.8359C98.791 23.8359 98.5435 23.8084 98.296 23.7534V26.3663H95.9306V17.7023ZM100.744 20.7828C100.744 20.1502 100.304 19.7377 99.5338 19.7377H98.2685V21.7455C98.6811 21.8005 99.0937 21.828 99.5338 21.828C100.304 21.8555 100.744 21.4155 100.744 20.7828Z" fill="white"/>
<path d="M76.9798 17.7023H79.4552V20.8379C79.6753 20.8654 79.9228 20.8654 80.1428 20.8929C81.2155 20.8929 81.9857 19.6001 82.1232 17.7298H84.5711C84.5161 19.7377 83.8835 21.1954 82.6733 22.1581L85.2037 26.4213H82.2058L80.2803 23.0933C80.0053 23.0933 79.7303 23.0933 79.4552 23.0382V26.3938H76.9798V17.7023Z" fill="white"/>
<path d="M103.824 29.1443H47.7697V30.2445H103.824V29.1443Z" fill="#009DE0"/>
<path d="M26.9485 37.7258C31.9614 37.7258 36.0252 33.6621 36.0252 28.6492C36.0252 23.6364 31.9614 19.5727 26.9485 19.5727C21.9357 19.5727 17.8719 23.6364 17.8719 28.6492C17.8719 33.6621 21.9357 37.7258 26.9485 37.7258Z" fill="#D5B40F"/>
<path d="M36.5202 29.8594L44.084 25.0186L35.8325 24.5235L40.9759 17.7848L32.9996 21.3329L34.7874 14.1542L30.2491 18.3074L29.7266 11.6788L25.6008 18.83L21.31 12.5039L21.9702 20.3428L15.0664 15.2544L18.1745 22.4606L11.6559 21.0579L17.5694 26.7514L9.26293 28.3742L16.4142 30.8496L10.2807 34.5077L18.4495 33.5176L13.3336 40.1187L21.0625 36.4056L19.4947 45.1796L24.4181 39.2386L26.3159 45.0146L28.3513 39.2111L33.3571 45.5372L32.4495 36.3781L39.2706 40.8063L36.1351 32.995L43.4514 32.8024L36.5202 29.8594ZM26.9485 19.8477C31.7894 19.8477 35.7225 23.7809 35.7225 28.6492V28.6767C35.695 33.5176 31.7619 37.4508 26.9211 37.4233C22.0802 37.3957 18.147 33.4626 18.1745 28.6217C18.1745 23.7809 22.1077 19.8477 26.9485 19.8477Z" fill="url(#paint0_radial_140_129)"/>
<path d="M26.9486 20.2328C31.5969 20.2328 35.365 24.0009 35.365 28.6493C35.365 33.2976 31.5969 37.0657 26.9486 37.0657C22.3003 37.0657 18.5321 33.2976 18.5321 28.6493C18.5596 24.0009 22.3003 20.2328 26.9486 20.2328Z" fill="url(#paint1_radial_140_129)"/>
<path d="M26.9486 20.2328C31.5969 20.2328 35.365 24.0009 35.365 28.6493C35.365 33.2976 31.5969 37.0657 26.9486 37.0657C22.3003 37.0657 18.5321 33.2976 18.5321 28.6493C18.5596 24.0009 22.3003 20.2328 26.9486 20.2328Z" fill="url(#paint2_radial_140_129)"/>
<path d="M26.9486 20.2328C31.5969 20.2328 35.365 24.0009 35.365 28.6493C35.365 33.2976 31.5969 37.0657 26.9486 37.0657C22.3003 37.0657 18.5321 33.2976 18.5321 28.6493C18.5596 24.0009 22.3003 20.2328 26.9486 20.2328Z" fill="url(#paint3_radial_140_129)"/>
<path d="M36.5202 29.8594L44.084 25.0186L35.8325 24.5235L40.9759 17.7848L32.9996 21.3329L34.7874 14.1542L30.2491 18.3074L29.7266 11.6788L25.6008 18.83L21.31 12.5039L21.9702 20.3428L15.0664 15.2544L18.1745 22.4606L11.6559 21.0579L17.5694 26.7514L9.26293 28.3742L16.4142 30.8496L10.2807 34.5077L18.4495 33.5176L13.3336 40.1187L21.0625 36.4056L19.4947 45.1796L24.4181 39.2386L26.3159 45.0146L28.3513 39.2111L33.3571 45.5372L32.4495 36.3781L39.2706 40.8063L36.1351 32.995L43.4514 32.8024L36.5202 29.8594ZM26.9485 19.8477C31.7894 19.8477 35.7225 23.7809 35.7225 28.6492V28.6767C35.695 33.5176 31.7619 37.4508 26.9211 37.4233C22.0802 37.3957 18.147 33.4626 18.1745 28.6217C18.1745 23.7809 22.1077 19.8477 26.9485 19.8477Z" fill="url(#paint4_radial_140_129)"/>
<path d="M33.1647 31.3172C32.6971 30.8771 32.367 30.327 32.202 29.7219C32.147 29.5844 32.0645 29.6119 32.0645 29.6119C31.9545 29.6394 32.0095 29.7494 32.0095 29.7494C32.0645 30.0244 32.147 30.2995 32.257 30.5745C26.481 31.8122 21.2826 30.4645 21.2826 30.4645C21.4476 30.217 21.5577 29.9419 21.6952 29.6669C21.7227 29.5293 21.6677 29.5018 21.6677 29.5018C21.5577 29.4743 21.5301 29.5844 21.5301 29.5844C20.98 30.6295 20.2099 31.0146 20.2099 31.0146C20.2099 31.0146 20.0449 31.0971 20.0999 31.1796C20.0999 31.1796 20.1274 31.2346 20.32 31.1796C20.5675 31.0421 20.815 30.8771 21.0625 30.6845C21.5026 31.4272 22.0252 32.1423 22.6028 32.7749C23.2079 33.4625 23.9505 33.9851 24.7757 34.3427C25.5183 34.7278 26.5359 34.7553 26.5359 34.7553C30.5792 34.9753 32.3945 30.8771 32.3945 30.8771C32.5596 31.1246 32.7796 31.3447 33.0271 31.5097C33.2471 31.5372 33.1647 31.3172 33.1647 31.3172ZM26.701 34.4252C23.3454 34.3977 21.475 30.7396 21.475 30.7396L21.7502 30.7946C23.6205 31.2346 25.5183 31.4272 27.4162 31.3722C26.6735 31.3997 29.5065 31.3997 31.7619 30.9321L32.0645 30.8771C32.037 30.8496 30.2766 34.4527 26.701 34.4252Z" fill="#20201E"/>
<path d="M25.4633 28.5667C25.5183 28.5667 26.701 28.5942 26.701 28.5942C27.0311 28.5392 26.866 28.9518 26.866 28.9518C26.756 29.0893 26.8936 29.1443 26.8936 29.1443C27.0861 29.1443 27.1411 28.7592 27.1411 28.7592C27.1962 28.3467 26.8386 28.4017 26.8386 28.4017L25.5733 28.3742C24.3356 28.2642 24.3906 27.0264 24.3906 27.0264C24.3906 26.2013 25.1608 25.4862 25.1608 25.4862C25.7659 24.9086 26.8936 24.5785 26.8936 24.5785C27.0586 24.496 27.0036 24.4685 27.0036 24.4685C26.9761 24.3585 26.371 24.5785 26.371 24.5785C26.371 24.5785 24.2531 25.1836 24.1155 26.9714C24.1155 26.9714 24.0056 28.4292 25.4633 28.5667Z" fill="#20201E"/>
<path d="M19.9349 25.7887C19.9349 25.7887 20.65 24.3309 21.8877 24.6335C23.0979 24.9636 23.0979 26.4488 23.0979 26.4488C23.0979 26.4488 23.3179 24.6885 21.9427 24.3309C20.4024 23.9459 19.9349 25.7887 19.9349 25.7887Z" fill="#20201E"/>
<path d="M31.1843 24.826C32.9446 24.9635 32.9446 26.9164 32.9446 26.9164C32.9446 26.9164 32.6695 25.2111 31.1843 25.0736C30.1391 24.991 29.589 26.2563 29.589 26.2563C29.589 26.2563 29.8916 24.716 31.1843 24.826Z" fill="#20201E"/>
<path d="M21.475 25.7612C20.6224 25.7612 20.2099 28.3467 21.2276 28.4567C22.2177 28.5667 22.5477 25.6787 21.475 25.7612Z" fill="#20201E"/>
<path d="M21.2276 26.1463C21.0625 26.2563 20.9525 26.4763 20.925 26.6689C20.8975 26.8339 20.87 26.9989 20.87 27.164C20.925 27.1915 21.0075 27.219 21.0625 27.219C21.1451 27.1915 21.2276 27.164 21.2826 27.0814C21.2551 26.9439 21.255 26.7789 21.31 26.6414C21.3375 26.4763 21.3925 26.3113 21.475 26.1463C21.4475 26.1188 21.3925 26.1188 21.365 26.1188C21.31 26.1463 21.2551 26.1463 21.2276 26.1463Z" fill="white"/>
<path d="M31.7894 27.1915C31.7619 26.8339 31.6794 26.4763 31.4868 26.3388C31.4318 26.2838 31.3768 26.2563 31.3218 26.2288C31.2668 26.2013 31.2118 26.2013 31.1568 26.2013C30.2767 26.1463 29.8641 28.9518 30.7443 29.0618C31.4044 29.0893 31.8444 27.9891 31.7894 27.1915Z" fill="#20201E"/>
<path d="M30.9367 26.5039C30.7717 26.6139 30.6617 26.8339 30.6342 27.0265C30.6067 27.1915 30.5792 27.3565 30.5792 27.5215C30.6342 27.5766 30.7167 27.5766 30.7717 27.5766C30.8542 27.549 30.9368 27.5215 30.9918 27.439C30.9643 27.3015 30.9643 27.1365 31.0193 26.999C31.0468 26.8339 31.1018 26.6689 31.1843 26.5039C31.1568 26.4764 31.1018 26.4764 31.0743 26.4764C31.0193 26.5039 30.9642 26.5039 30.9367 26.5039Z" fill="white"/>
<path d="M36.5202 29.8594L44.084 25.0186L35.8325 24.5235L40.9759 17.7848L32.9996 21.3329L34.7874 14.1542L30.2491 18.3074L29.7266 11.6788L25.6008 18.83L21.31 12.5039L21.9702 20.3428L15.0664 15.2544L18.1745 22.4606L11.6559 21.0579L17.5694 26.7514L9.26293 28.3742L16.4142 30.8496L10.2807 34.5077L18.4495 33.5176L13.3336 40.1187L21.0625 36.4056L19.4947 45.1796L24.4181 39.2386L26.3159 45.0146L28.3513 39.2111L33.3571 45.5372L32.4495 36.3781L39.2706 40.8063L36.1351 32.995L43.4514 32.8024L36.5202 29.8594ZM26.9485 19.8477C31.7894 19.8477 35.7225 23.7809 35.7225 28.6492V28.6767C35.695 33.5176 31.7619 37.4508 26.9211 37.4233C22.0802 37.3957 18.147 33.4626 18.1745 28.6217C18.1745 23.7809 22.1077 19.8477 26.9485 19.8477Z" fill="url(#paint5_radial_140_129)"/>
<path d="M12.1234 21.333L18.4221 22.7082L17.8995 22.2682L11.1333 20.8104L12.1234 21.333Z" fill="url(#paint6_linear_140_129)"/>
<path d="M29.589 12.1739L30.0841 18.61L30.3316 17.9774L29.809 11.1562L29.589 12.1739Z" fill="url(#paint7_linear_140_129)"/>
<path d="M25.6008 19.1326V18.555L21.1176 11.9263L21.5301 13.054L25.6008 19.1326Z" fill="url(#paint8_linear_140_129)"/>
<path d="M30.0841 18.61L34.4848 14.5943L35.0349 13.6866L30.3316 17.9774L30.0841 18.61Z" fill="url(#paint9_linear_140_129)"/>
<path d="M15.4241 15.722L14.7089 14.8143L17.8995 22.2682L18.4221 22.7082L15.4241 15.722Z" fill="url(#paint10_linear_140_129)"/>
<path d="M22.1352 20.6728L21.7777 20.0127L14.7089 14.8143L15.4241 15.722L22.1352 20.6728Z" fill="url(#paint11_linear_140_129)"/>
<path d="M22.1352 20.6728L21.5301 13.054L21.1176 11.9263L21.7777 20.0127L22.1352 20.6728Z" fill="url(#paint12_linear_140_129)"/>
<path d="M29.589 12.1739L29.809 11.1562L25.6008 18.555V19.1326L29.589 12.1739Z" fill="url(#paint13_linear_140_129)"/>
<path d="M36.1902 29.8869L36.8228 29.8319L44.5516 24.881L43.589 25.1286L36.1902 29.8869Z" fill="url(#paint14_linear_140_129)"/>
<path d="M34.4848 14.5943L32.7521 21.608L33.2197 21.0854L35.0349 13.6866L34.4848 14.5943Z" fill="url(#paint15_linear_140_129)"/>
<path d="M43.589 25.1286L44.5516 24.881L36.1076 24.386L35.53 24.661L43.589 25.1286Z" fill="url(#paint16_linear_140_129)"/>
<path d="M44.1665 32.9399L42.7363 32.6649L35.9151 32.8299L36.3552 33.1325L44.1665 32.9399Z" fill="url(#paint17_linear_140_129)"/>
<path d="M36.8228 29.8319L36.1902 29.8869L42.7363 32.6649L44.1665 32.9399L36.8228 29.8319Z" fill="url(#paint18_linear_140_129)"/>
<path d="M35.53 24.661L36.1076 24.386L41.4711 17.3998L40.4809 18.1699L35.53 24.661Z" fill="url(#paint19_linear_140_129)"/>
<path d="M40.4809 18.1699L41.4711 17.3998L33.2197 21.0854L32.7521 21.608L40.4809 18.1699Z" fill="url(#paint20_linear_140_129)"/>
<path d="M21.2826 36.1306L20.87 36.6807L19.2472 45.7022L19.7423 44.602L21.2826 36.1306Z" fill="url(#paint21_linear_140_129)"/>
<path d="M35.9151 32.8299L38.9681 40.3938L39.6007 41.1639L36.3552 33.1325L35.9151 32.8299Z" fill="url(#paint22_linear_140_129)"/>
<path d="M24.4731 38.9085L19.7423 44.602L19.2472 45.7022L24.3631 39.5136L24.4731 38.9085Z" fill="url(#paint23_linear_140_129)"/>
<path d="M26.3159 44.5195V45.4822L28.4063 39.5136L28.3238 38.881L26.3159 44.5195Z" fill="url(#paint24_linear_140_129)"/>
<path d="M24.4731 38.9085L24.3631 39.5136L26.3159 45.4822V44.5195L24.4731 38.9085Z" fill="url(#paint25_linear_140_129)"/>
<path d="M28.3238 38.881L28.4063 39.5136L33.5772 46.0322L33.1647 45.0146L28.3238 38.881Z" fill="url(#paint26_linear_140_129)"/>
<path d="M32.2845 36.048L32.6421 36.6531L39.6007 41.1639L38.9681 40.3938L32.2845 36.048Z" fill="url(#paint27_linear_140_129)"/>
<path d="M33.1647 45.0146L33.5772 46.0322L32.6421 36.6531L32.2845 36.048L33.1647 45.0146Z" fill="url(#paint28_linear_140_129)"/>
<path d="M18.7521 33.3251L10.9407 34.2877L9.53802 34.7828L18.0645 33.7376L18.7521 33.3251Z" fill="url(#paint29_linear_140_129)"/>
<path d="M16.7443 30.8221L9.84058 28.4292L8.65788 28.3466L16.0291 30.9046L16.7443 30.8221Z" fill="url(#paint30_linear_140_129)"/>
<path d="M17.8445 26.8614L17.2119 26.6689L8.65788 28.3466L9.84058 28.4292L17.8445 26.8614Z" fill="url(#paint31_linear_140_129)"/>
<path d="M13.8563 39.6787L12.811 40.5313L20.87 36.6807L21.2826 36.1306L13.8563 39.6787Z" fill="url(#paint32_linear_140_129)"/>
<path d="M16.7443 30.8221L16.0291 30.9046L9.53802 34.7828L10.9407 34.2877L16.7443 30.8221Z" fill="url(#paint33_linear_140_129)"/>
<path d="M13.8563 39.6787L18.7521 33.3251L18.0645 33.7376L12.811 40.5313L13.8563 39.6787Z" fill="url(#paint34_linear_140_129)"/>
<path d="M17.8445 26.8614L12.1234 21.333L11.1333 20.8104L17.2119 26.6689L17.8445 26.8614Z" fill="url(#paint35_linear_140_129)"/>
<path d="M51.8404 40.7513C51.0428 40.7788 50.2726 40.5863 49.5575 40.2562C48.9249 39.9537 48.4023 39.4586 48.0447 38.8535C47.6872 38.2209 47.4946 37.5057 47.4946 36.7631C47.4671 36.0205 47.6872 35.3054 48.0723 34.7003C48.4573 34.0952 49.0349 33.6276 49.6675 33.325C50.3827 32.995 51.1803 32.8299 51.9779 32.8299C52.6656 32.8024 53.3532 32.9399 53.9858 33.1875C54.5359 33.4075 55.0034 33.7651 55.3885 34.2327L54.7284 34.8653C54.3983 34.5352 54.0133 34.2602 53.5732 34.0951C53.0506 33.9026 52.5005 33.8201 51.9504 33.8201C51.3178 33.7926 50.6852 33.9301 50.1076 34.2052C49.6125 34.4252 49.1999 34.8103 48.9249 35.2504C48.6498 35.7179 48.5123 36.2405 48.5123 36.7631C48.5123 37.3132 48.6498 37.8358 48.9249 38.3034C49.1999 38.771 49.585 39.1285 50.0526 39.3761C50.6027 39.6511 51.1803 39.7886 51.7854 39.7611C52.2805 39.7611 52.7755 39.6786 53.2431 39.5411C53.6557 39.4036 54.0408 39.156 54.3158 38.826C54.5909 38.4684 54.7834 38.0558 54.8109 37.6158H52.2254V36.6531H55.9661V37.0657C55.9936 37.7533 55.8011 38.4134 55.471 39.0185C55.1135 39.5686 54.6184 40.0362 54.0408 40.3112C53.3257 40.6138 52.583 40.7788 51.8404 40.7513Z" fill="white"/>
<path d="M57.644 40.6138L61.4121 32.94H62.6773L66.3904 40.6138H65.2077L64.1625 38.4409H59.8168L58.7991 40.6138H57.644ZM60.3119 37.4783H63.75L62.0447 33.9301L60.3119 37.4783Z" fill="white"/>
<path d="M68.4258 40.6138L69.0033 32.94H70.021L72.9915 37.7533L75.9621 32.94H76.9798L77.5573 40.6138H76.4846L76.0446 34.6453L73.4317 38.7435H72.5515L69.9385 34.7828L69.526 40.5863H68.4258V40.6138Z" fill="white"/>
<path d="M80.6929 40.6138V32.94H81.7656V40.6138H80.6929Z" fill="white"/>
<path d="M85.2587 40.6138V32.94H86.3314L91.6398 39.0735V32.94H92.685V40.6138H91.6124L86.3039 34.4802V40.6138H85.2587Z" fill="white"/>
<path d="M99.6712 40.7513C98.8735 40.7788 98.1034 40.5863 97.3883 40.2562C96.7557 39.9537 96.2331 39.4586 95.8755 38.8535C95.518 38.2209 95.3255 37.5057 95.3255 36.7631C95.3255 36.0205 95.518 35.3054 95.9031 34.7003C96.2881 34.0952 96.8657 33.6276 97.4983 33.325C98.2135 32.995 99.0111 32.8299 99.8087 32.8299C100.496 32.8024 101.184 32.9399 101.817 33.1875C102.367 33.4075 102.834 33.7651 103.219 34.2327L102.559 34.8653C102.229 34.5352 101.844 34.2602 101.404 34.0951C100.881 33.9026 100.331 33.8201 99.7812 33.8201C99.1486 33.7926 98.516 33.9301 97.9384 34.2052C97.4433 34.4252 97.0308 34.8103 96.7557 35.2504C96.4807 35.7179 96.3431 36.2405 96.3431 36.7631C96.3431 37.3132 96.4807 37.8358 96.7557 38.3034C97.0308 38.771 97.4158 39.1285 97.8834 39.3761C98.4334 39.6511 99.0111 39.7886 99.6162 39.7611C100.111 39.7611 100.606 39.6786 101.074 39.5411C101.487 39.4036 101.872 39.156 102.147 38.826C102.422 38.4684 102.614 38.0558 102.642 37.6158H100.056V36.6531H103.824V37.0657C103.852 37.7533 103.659 38.4134 103.329 39.0185C102.972 39.5686 102.477 40.0362 101.899 40.3112C101.184 40.6138 100.441 40.7788 99.6712 40.7513Z" fill="white"/>
<defs>
<radialGradient id="paint0_radial_140_129" cx="0" cy="0" r="1" gradientUnits="userSpaceOnUse" gradientTransform="translate(41.6434 18.9952) scale(51.6274 25.8738)">
<stop stop-color="#FCE400"/>
<stop offset="0.12" stop-color="#FADF03"/>
<stop offset="0.6" stop-color="#F3D00A"/>
<stop offset="1" stop-color="#F1CB0D"/>
</radialGradient>
<radialGradient id="paint1_radial_140_129" cx="0" cy="0" r="1" gradientUnits="userSpaceOnUse" gradientTransform="translate(49.1929 24.0419) scale(64.3259 31.3466)">
<stop offset="0.21" stop-color="#FDF6D9"/>
<stop offset="0.37" stop-color="#FDF5D5"/>
<stop offset="0.53" stop-color="#FDF3C8"/>
<stop offset="0.7" stop-color="#FCF0B3"/>
<stop offset="0.86" stop-color="#FCEB95"/>
<stop offset="1" stop-color="#FBE678"/>
</radialGradient>
<radialGradient id="paint2_radial_140_129" cx="0" cy="0" r="1" gradientUnits="userSpaceOnUse" gradientTransform="translate(54.1813 27.7328) scale(58.1246 28.3247)">
<stop stop-color="#C0A10F" stop-opacity="0"/>
<stop offset="0.96" stop-color="#C0A10F" stop-opacity="0"/>
<stop offset="1" stop-color="#C0A10F"/>
</radialGradient>
<radialGradient id="paint3_radial_140_129" cx="0" cy="0" r="1" gradientUnits="userSpaceOnUse" gradientTransform="translate(58.6068 29.2342) rotate(-156.502) scale(47.6736 37.1076)">
<stop stop-color="white" stop-opacity="0"/>
<stop offset="0.96" stop-color="#FDF2B4" stop-opacity="0.35"/>
<stop offset="0.97" stop-color="#FEF8D5" stop-opacity="0.67"/>
<stop offset="0.98" stop-color="#FFFCEA" stop-opacity="0.88"/>
<stop offset="0.99" stop-color="#FFFEF5" stop-opacity="0.99"/>
<stop offset="1" stop-color="#FFFEF6"/>
</radialGradient>
<radialGradient id="paint4_radial_140_129" cx="0" cy="0" r="1" gradientUnits="userSpaceOnUse" gradientTransform="translate(56.1703 27.931) rotate(22.728) scale(24.6042 18.2625)">
<stop offset="0.81" stop-color="#C0A10F"/>
<stop offset="0.92" stop-color="#C0A10F"/>
<stop offset="0.96" stop-color="#C0A10F" stop-opacity="0"/>
</radialGradient>
<radialGradient id="paint5_radial_140_129" cx="0" cy="0" r="1" gradientUnits="userSpaceOnUse" gradientTransform="translate(57.9335 28.8018) scale(28.7743 14.4207)">
<stop offset="0.58" stop-color="#FCEC91" stop-opacity="0"/>
<stop offset="0.96" stop-color="#FCEEA6"/>
<stop offset="0.97" stop-color="#FCEEA3" stop-opacity="0.85"/>
<stop offset="0.98" stop-color="#FCED9A" stop-opacity="0.41"/>
<stop offset="0.99" stop-color="#FCEC91" stop-opacity="0"/>
</radialGradient>
<linearGradient id="paint6_linear_140_129" x1="57.009" y1="23.694" x2="53.695" y2="32.0628" gradientUnits="userSpaceOnUse">
<stop offset="0.07" stop-color="#F9E38E"/>
<stop offset="0.2" stop-color="#F9E389"/>
<stop offset="0.36" stop-color="#F9E179"/>
<stop offset="0.54" stop-color="#F8DF60"/>
<stop offset="0.73" stop-color="#F7DC3C"/>
<stop offset="0.93" stop-color="#F6D80F"/>
<stop offset="0.99" stop-color="#F6D700"/>
</linearGradient>
<linearGradient id="paint7_linear_140_129" x1="81.6775" y1="28.2826" x2="64.6892" y2="53.0381" gradientUnits="userSpaceOnUse">
<stop offset="0.08" stop-color="#C0A10F"/>
<stop offset="0.45" stop-color="#D1B00E"/>
<stop offset="0.98" stop-color="#F1CB0D"/>
</linearGradient>
<linearGradient id="paint8_linear_140_129" x1="59.9665" y1="27.6261" x2="58.3673" y2="31.1843" gradientUnits="userSpaceOnUse">
<stop offset="0.08" stop-color="#C0A10F"/>
<stop offset="0.42" stop-color="#D1B10C"/>
<stop offset="0.98" stop-color="#F5D307"/>
</linearGradient>
<linearGradient id="paint9_linear_140_129" x1="53.9314" y1="27.0287" x2="55.835" y2="31.3306" gradientUnits="userSpaceOnUse">
<stop offset="0.07" stop-color="#F9E38E"/>
<stop offset="0.21" stop-color="#F9E289"/>
<stop offset="0.38" stop-color="#F8DF79"/>
<stop offset="0.57" stop-color="#F6DA60"/>
<stop offset="0.78" stop-color="#F4D43C"/>
<stop offset="0.99" stop-color="#F1CB0F"/>
<stop offset="1" stop-color="#F1CB0D"/>
</linearGradient>
<linearGradient id="paint10_linear_140_129" x1="51.4986" y1="28.7626" x2="54.0152" y2="24.0495" gradientUnits="userSpaceOnUse">
<stop offset="0.07" stop-color="#F9E38E"/>
<stop offset="0.2" stop-color="#F9E389"/>
<stop offset="0.36" stop-color="#F9E279"/>
<stop offset="0.55" stop-color="#F8E060"/>
<stop offset="0.74" stop-color="#F8DD3C"/>
<stop offset="0.94" stop-color="#F7DA0F"/>
<stop offset="1" stop-color="#F7D900"/>
</linearGradient>
<linearGradient id="paint11_linear_140_129" x1="58.114" y1="26.8914" x2="56.5623" y2="30.3572" gradientUnits="userSpaceOnUse">
<stop offset="0.08" stop-color="#C0A10F"/>
<stop offset="0.41" stop-color="#D1B20A"/>
<stop offset="0.98" stop-color="#F7D900"/>
</linearGradient>
<linearGradient id="paint12_linear_140_129" x1="38.083" y1="28.3854" x2="48.9086" y2="11.1849" gradientUnits="userSpaceOnUse">
<stop offset="0.07" stop-color="#F9E38E"/>
<stop offset="0.2" stop-color="#F9E289"/>
<stop offset="0.37" stop-color="#F8E179"/>
<stop offset="0.56" stop-color="#F8DE60"/>
<stop offset="0.76" stop-color="#F7D93C"/>
<stop offset="0.97" stop-color="#F5D40F"/>
<stop offset="1" stop-color="#F5D307"/>
</linearGradient>
<linearGradient id="paint13_linear_140_129" x1="52.8537" y1="27.7354" x2="54.5989" y2="31.6746" gradientUnits="userSpaceOnUse">
<stop offset="0.07" stop-color="#F9E38E"/>
<stop offset="0.2" stop-color="#F9E289"/>
<stop offset="0.37" stop-color="#F8E179"/>
<stop offset="0.56" stop-color="#F8DE60"/>
<stop offset="0.76" stop-color="#F7D93C"/>
<stop offset="0.97" stop-color="#F5D40F"/>
<stop offset="1" stop-color="#F5D307"/>
</linearGradient>
<linearGradient id="paint14_linear_140_129" x1="57.8614" y1="30.0855" x2="55.8753" y2="26.3314" gradientUnits="userSpaceOnUse">
<stop offset="0.08" stop-color="#C0A10F"/>
<stop offset="0.45" stop-color="#D1B00E"/>
<stop offset="0.98" stop-color="#F1CB0D"/>
</linearGradient>
<linearGradient id="paint15_linear_140_129" x1="64.3847" y1="28.6616" x2="60.463" y2="21.7167" gradientUnits="userSpaceOnUse">
<stop offset="0.08" stop-color="#C0A10F"/>
<stop offset="0.45" stop-color="#D1B00E"/>
<stop offset="0.98" stop-color="#F1CB0D"/>
</linearGradient>
<linearGradient id="paint16_linear_140_129" x1="56.6448" y1="16.3736" x2="49.2433" y2="40.3452" gradientUnits="userSpaceOnUse">
<stop offset="0.07" stop-color="#F9E38E"/>
<stop offset="0.21" stop-color="#F9E289"/>
<stop offset="0.38" stop-color="#F8DF79"/>
<stop offset="0.57" stop-color="#F6DA60"/>
<stop offset="0.77" stop-color="#F4D43C"/>
<stop offset="0.98" stop-color="#F1CB0F"/>
<stop offset="0.99" stop-color="#F1CB0D"/>
</linearGradient>
<linearGradient id="paint17_linear_140_129" x1="56.5615" y1="48.946" x2="50.457" y2="7.70751" gradientUnits="userSpaceOnUse">
<stop offset="0.08" stop-color="#C0A10F"/>
<stop offset="0.45" stop-color="#D1B00E"/>
<stop offset="0.98" stop-color="#F1CB0D"/>
</linearGradient>
<linearGradient id="paint18_linear_140_129" x1="57.382" y1="26.1452" x2="54.783" y2="31.0273" gradientUnits="userSpaceOnUse">
<stop stop-color="#A47A11"/>
<stop offset="0.19" stop-color="#AA8011"/>
<stop offset="0.44" stop-color="#B99010"/>
<stop offset="0.72" stop-color="#D3AB0F"/>
<stop offset="0.98" stop-color="#F1CB0D"/>
</linearGradient>
<linearGradient id="paint19_linear_140_129" x1="59.2601" y1="29.2917" x2="57.3617" y2="25.5801" gradientUnits="userSpaceOnUse">
<stop offset="0.08" stop-color="#C0A10F"/>
<stop offset="0.45" stop-color="#D1B00E"/>
<stop offset="0.98" stop-color="#F1CB0D"/>
</linearGradient>
<linearGradient id="paint20_linear_140_129" x1="55.7089" y1="26.5349" x2="57.3874" y2="30.3001" gradientUnits="userSpaceOnUse">
<stop offset="0.07" stop-color="#F9E38E"/>
<stop offset="0.21" stop-color="#F9E289"/>
<stop offset="0.38" stop-color="#F8DF79"/>
<stop offset="0.57" stop-color="#F6DA60"/>
<stop offset="0.78" stop-color="#F4D43C"/>
<stop offset="0.99" stop-color="#F1CB0F"/>
<stop offset="1" stop-color="#F1CB0D"/>
</linearGradient>
<linearGradient id="paint21_linear_140_129" x1="46.9077" y1="28.2283" x2="51.8535" y2="36.5848" gradientUnits="userSpaceOnUse">
<stop offset="0.07" stop-color="#F9E38E"/>
<stop offset="0.21" stop-color="#F9E289"/>
<stop offset="0.38" stop-color="#F8DF79"/>
<stop offset="0.57" stop-color="#F6DA60"/>
<stop offset="0.77" stop-color="#F4D43C"/>
<stop offset="0.98" stop-color="#F1CB0F"/>
<stop offset="0.99" stop-color="#F1CB0D"/>
</linearGradient>
<linearGradient id="paint22_linear_140_129" x1="60.9869" y1="28.0238" x2="58.7255" y2="32.2553" gradientUnits="userSpaceOnUse">
<stop stop-color="#A47A11"/>
<stop offset="0.19" stop-color="#AA8011"/>
<stop offset="0.44" stop-color="#B99010"/>
<stop offset="0.72" stop-color="#D3AB0F"/>
<stop offset="0.98" stop-color="#F1CB0D"/>
</linearGradient>
<linearGradient id="paint23_linear_140_129" x1="59.5761" y1="29.3415" x2="57.7499" y2="25.4027" gradientUnits="userSpaceOnUse">
<stop stop-color="#A47A11"/>
<stop offset="0.19" stop-color="#AA8011"/>
<stop offset="0.44" stop-color="#B99010"/>
<stop offset="0.72" stop-color="#D3AB0F"/>
<stop offset="0.98" stop-color="#F1CB0D"/>
</linearGradient>
<linearGradient id="paint24_linear_140_129" x1="62.8954" y1="28.8017" x2="59.605" y2="21.4576" gradientUnits="userSpaceOnUse">
<stop stop-color="#A47A11"/>
<stop offset="0.19" stop-color="#AA8011"/>
<stop offset="0.44" stop-color="#B99010"/>
<stop offset="0.72" stop-color="#D3AB0F"/>
<stop offset="0.98" stop-color="#F1CB0D"/>
</linearGradient>
<linearGradient id="paint25_linear_140_129" x1="50.2712" y1="28.7248" x2="53.6987" y2="21.0984" gradientUnits="userSpaceOnUse">
<stop offset="0.08" stop-color="#C0A10F"/>
<stop offset="0.45" stop-color="#D1B00E"/>
<stop offset="0.98" stop-color="#F1CB0D"/>
</linearGradient>
<linearGradient id="paint26_linear_140_129" x1="53.3856" y1="29.2022" x2="55.0432" y2="25.5756" gradientUnits="userSpaceOnUse">
<stop offset="0.08" stop-color="#C0A10F"/>
<stop offset="0.45" stop-color="#D1B00E"/>
<stop offset="0.98" stop-color="#F1CB0D"/>
</linearGradient>
<linearGradient id="paint27_linear_140_129" x1="55.1904" y1="29.8554" x2="56.7093" y2="26.4696" gradientUnits="userSpaceOnUse">
<stop offset="0.08" stop-color="#C0A10F"/>
<stop offset="0.45" stop-color="#D1B00E"/>
<stop offset="0.98" stop-color="#F1CB0D"/>
</linearGradient>
<linearGradient id="paint28_linear_140_129" x1="71.6825" y1="28.2701" x2="63.723" y2="41.9196" gradientUnits="userSpaceOnUse">
<stop stop-color="#A47A11"/>
<stop offset="0.19" stop-color="#AA8011"/>
<stop offset="0.44" stop-color="#B99010"/>
<stop offset="0.72" stop-color="#D3AB0F"/>
<stop offset="0.98" stop-color="#F1CB0D"/>
</linearGradient>
<linearGradient id="paint29_linear_140_129" x1="56.7732" y1="34.0898" x2="52.8235" y2="23.8296" gradientUnits="userSpaceOnUse">
<stop offset="0.08" stop-color="#C0A10F"/>
<stop offset="0.45" stop-color="#D1B00E"/>
<stop offset="0.98" stop-color="#F1CB0D"/>
</linearGradient>
<linearGradient id="paint30_linear_140_129" x1="55.8818" y1="30.686" x2="58.8613" y2="25.0569" gradientUnits="userSpaceOnUse">
<stop offset="0.08" stop-color="#C0A10F"/>
<stop offset="0.45" stop-color="#D1B00E"/>
<stop offset="0.98" stop-color="#F1CB0D"/>
</linearGradient>
<linearGradient id="paint31_linear_140_129" x1="56.2437" y1="25.0601" x2="60.2372" y2="33.2742" gradientUnits="userSpaceOnUse">
<stop offset="0.07" stop-color="#F9E38E"/>
<stop offset="0.2" stop-color="#F9E289"/>
<stop offset="0.37" stop-color="#F8E079"/>
<stop offset="0.56" stop-color="#F7DD60"/>
<stop offset="0.76" stop-color="#F6D93C"/>
<stop offset="0.97" stop-color="#F4D30F"/>
<stop offset="0.99" stop-color="#F4D209"/>
</linearGradient>
<linearGradient id="paint32_linear_140_129" x1="57.5489" y1="30.3874" x2="55.6297" y2="26.2175" gradientUnits="userSpaceOnUse">
<stop stop-color="#A47A11"/>
<stop offset="0.19" stop-color="#AA8011"/>
<stop offset="0.44" stop-color="#B99010"/>
<stop offset="0.72" stop-color="#D3AB0F"/>
<stop offset="0.98" stop-color="#F1CB0D"/>
</linearGradient>
<linearGradient id="paint33_linear_140_129" x1="55.2652" y1="26.2965" x2="57.4919" y2="30.4825" gradientUnits="userSpaceOnUse">
<stop offset="0.07" stop-color="#F9E38E"/>
<stop offset="0.21" stop-color="#F9E289"/>
<stop offset="0.38" stop-color="#F8DF79"/>
<stop offset="0.57" stop-color="#F6DA60"/>
<stop offset="0.77" stop-color="#F4D43C"/>
<stop offset="0.98" stop-color="#F1CB0F"/>
<stop offset="0.99" stop-color="#F1CB0D"/>
</linearGradient>
<linearGradient id="paint34_linear_140_129" x1="53.9539" y1="27.5408" x2="55.6875" y2="30.9293" gradientUnits="userSpaceOnUse">
<stop offset="0.07" stop-color="#F9E38E"/>
<stop offset="0.21" stop-color="#F9E289"/>
<stop offset="0.38" stop-color="#F8DF79"/>
<stop offset="0.57" stop-color="#F6DA60"/>
<stop offset="0.77" stop-color="#F4D43C"/>
<stop offset="0.98" stop-color="#F1CB0F"/>
<stop offset="0.99" stop-color="#F1CB0D"/>
</linearGradient>
<linearGradient id="paint35_linear_140_129" x1="54.704" y1="29.4285" x2="56.4148" y2="26.157" gradientUnits="userSpaceOnUse">
<stop offset="0.08" stop-color="#C0A10F"/>
<stop offset="0.42" stop-color="#D1B10C"/>
<stop offset="0.98" stop-color="#F5D307"/>
</linearGradient>
</defs>
</svg>
