<svg width="113" height="56" viewBox="0 0 113 56" fill="none" xmlns="http://www.w3.org/2000/svg">
<path d="M0 11.4662C0 5.13358 5.13358 0 11.4662 0H101.476C107.808 0 112.942 5.13358 112.942 11.4662V43.5714C112.942 49.904 107.808 55.0376 101.476 55.0376H11.4662C5.13358 55.0376 0 49.904 0 43.5714V11.4662Z" fill="#261939"/>
<path d="M58.4919 14.6977H57.7132V41.4099H58.4919V36.2657H68.2376V33.1508H60.7573V29.564H67.1758V26.4256H60.7573V22.9568H68.2376V19.8183H58.4919V14.6977ZM28.1929 29.918L25.432 25.4345L21.8924 19.8891L21.8453 19.8419H18.9192V36.2657H22.1756V26.166L24.6061 30.1067L28.5233 36.2657H31.4966V19.8419H28.2165L28.1929 29.918ZM33.3136 36.2657H44.074V33.1508H36.5936V29.564H43.0121V26.4256H36.5936V22.9568H44.074V19.8183H33.3136V36.2657ZM45.419 23.0039H49.1946V36.2893H52.4746V23.0039H56.2266V19.8419H45.419V23.0039ZM79.1632 29.9416L76.4023 25.4581L72.8627 19.9127L72.8155 19.8419H69.8659V36.2657H73.1223V26.166L75.5528 30.1067L79.47 36.2657H82.4433V19.8655H79.1632V29.9416ZM83.7883 19.8655V23.0275H87.5639V36.3129H90.8439V23.0275H94.5959V19.8655H83.7883Z" fill="white"/>
</svg>
