<svg width="51" height="51" viewBox="0 0 51 51" fill="none" xmlns="http://www.w3.org/2000/svg">
<circle cx="25.5" cy="25.5" r="25" stroke="#FCF6F1"/>
<path d="M13 25.5C12.7239 25.5 12.5 25.7239 12.5 26C12.5 26.2761 12.7239 26.5 13 26.5V25.5ZM37.3536 26.3536C37.5488 26.1583 37.5488 25.8417 37.3536 25.6464L34.1716 22.4645C33.9763 22.2692 33.6597 22.2692 33.4645 22.4645C33.2692 22.6597 33.2692 22.9763 33.4645 23.1716L36.2929 26L33.4645 28.8284C33.2692 29.0237 33.2692 29.3403 33.4645 29.5355C33.6597 29.7308 33.9763 29.7308 34.1716 29.5355L37.3536 26.3536ZM13 26.5H37V25.5H13V26.5Z" fill="#FCF6F1"/>
</svg>
