<svg width="121" height="30" viewBox="0 0 121 30" fill="none" xmlns="http://www.w3.org/2000/svg">
<path fill-rule="evenodd" clip-rule="evenodd" d="M29.6283 15.2448C29.6283 23.3807 23.0429 29.9761 14.9193 29.9761C6.79572 29.9761 0.210266 23.3807 0.210266 15.2448C0.210266 7.1089 6.79572 0.513458 14.9193 0.513458C23.0429 0.513458 29.6283 7.1089 29.6283 15.2448ZM8.44583 18.7358L9.7865 18.1987L8.67566 22.6488H20.5501L21.3545 19.3496H14.2299L14.9576 16.1271L16.26 15.59L16.8729 13.0581L15.6088 13.5952L17.0644 7.87909H12.3529L10.4377 15.6667L9.09701 16.2038L8.44583 18.7358Z" fill="white"/>
<path fill-rule="evenodd" clip-rule="evenodd" d="M38.4767 20.1552H46.5207V22.6488H35.374V4.8101H38.4767V20.1552Z" fill="white"/>
<path d="M48.5893 5.99934C48.551 5.57735 48.7426 5.117 49.049 4.81009C49.3554 4.50319 49.8151 4.34974 50.2364 4.3881C50.6961 4.34974 51.1557 4.50319 51.4622 4.84846C51.7686 5.15536 51.9218 5.57735 51.9218 5.99934C51.9218 6.42133 51.7686 6.80496 51.4622 7.11187C51.1174 7.41877 50.6961 7.57222 50.2364 7.57222C49.7768 7.61058 49.3554 7.45713 49.0107 7.11187C48.7425 6.84333 48.5893 6.42133 48.5893 5.99934ZM51.7303 22.6488H48.7809V9.452H51.7303V22.6488Z" fill="white"/>
<path fill-rule="evenodd" clip-rule="evenodd" d="M58.6633 6.22957V9.41369H60.9616V11.5236H58.6633V18.8893C58.625 19.2729 58.7399 19.6566 58.9697 20.0018C59.2379 20.2704 59.6209 20.3855 60.0039 20.3471C60.3487 20.3471 60.6934 20.3087 61.0382 20.232V22.5338C60.387 22.7256 59.7358 22.8023 59.0846 22.8023C56.8247 22.8023 55.6755 21.5747 55.6755 19.0428V11.6387H53.4155V9.52877H55.5223V6.22957H58.6633Z" fill="white"/>
<path d="M69.044 22.879C67.3585 22.9557 65.7114 22.3035 64.4857 21.1143C63.2982 19.8483 62.6471 18.122 62.7237 16.3956V16.0504C62.6854 14.8228 62.9535 13.6335 63.4898 12.521C63.9494 11.5236 64.6772 10.7179 65.5965 10.1041C66.5158 9.52869 67.5884 9.22179 68.6609 9.22179C70.2697 9.1067 71.8019 9.75887 72.8744 10.9481C73.947 12.3292 74.4832 14.0555 74.33 15.8202V17.0094H65.7114C65.7497 17.9685 66.1328 18.8892 66.8223 19.6181C67.4735 20.2703 68.3162 20.5772 69.2355 20.5772C70.5378 20.6156 71.8019 20.0017 72.568 18.9276L74.1385 20.4621C73.6022 21.2677 72.8744 21.8815 72.0317 22.3035C71.0741 22.6488 70.0399 22.879 69.044 22.879ZM68.6609 11.5619C67.8948 11.5236 67.2053 11.8688 66.7074 12.4443C66.1711 13.1348 65.8264 13.9404 65.7497 14.7844H71.3805V14.5926C71.3805 13.787 71.1124 12.9813 70.6144 12.3292C70.1165 11.7921 69.3887 11.5236 68.6609 11.5619Z" fill="white"/>
<path fill-rule="evenodd" clip-rule="evenodd" d="M81.9911 20.5005C82.6806 20.5389 83.3317 20.3087 83.8297 19.8867C84.2894 19.4647 84.5575 18.8893 84.5958 18.2755H87.3537C87.3154 19.0811 87.0856 19.8867 86.5876 20.5773C86.0897 21.3062 85.4002 21.8816 84.6341 22.2652C83.8297 22.6872 82.9104 22.879 81.9911 22.879C80.344 22.9558 78.7352 22.3036 77.6243 21.076C76.4752 19.6949 75.9006 17.9302 76.0155 16.1655V15.8586C75.9389 14.0939 76.5135 12.3676 77.6243 11.0249C78.7352 9.7973 80.344 9.14513 82.0294 9.22185C83.4467 9.18349 84.7873 9.64385 85.8599 10.6029C86.8558 11.562 87.392 12.828 87.392 14.209H84.6341C84.6341 13.5185 84.3277 12.8663 83.868 12.3676C83.37 11.8689 82.7189 11.6004 82.0294 11.6387C81.1867 11.6387 80.4206 12.0223 79.9226 12.6745C79.348 13.6336 79.0799 14.7077 79.1565 15.8203V16.2423C79.0033 17.3931 79.2331 18.544 79.8077 19.5415C80.3057 20.232 81.1484 20.5773 81.9911 20.5005Z" fill="white"/>
<path d="M89.1922 15.897C89.1922 14.6693 89.4221 13.4801 89.9583 12.4059C90.418 11.4085 91.1458 10.6029 92.0651 10.0274C93.0227 9.452 94.1336 9.18346 95.2444 9.18346C96.8149 9.1451 98.3471 9.7589 99.4579 10.9098C100.607 12.1374 101.258 13.787 101.258 15.475V16.1655C101.258 17.3547 101.028 18.5824 100.53 19.6565C100.071 20.6156 99.343 21.4596 98.4237 22.035C97.4278 22.6105 96.3169 22.879 95.2061 22.8406C93.5207 22.9174 91.8736 22.2268 90.7627 20.9992C89.6136 19.6182 89.0007 17.8535 89.0773 16.0504L89.1922 15.897ZM92.18 16.1655C92.1034 17.278 92.4098 18.4289 93.0227 19.3496C93.5973 20.0785 94.44 20.5005 95.3593 20.5005C96.2786 20.5005 97.1213 20.0785 97.6959 19.3496C98.3088 18.3138 98.5769 17.1246 98.5003 15.9353C98.5769 14.8228 98.2705 13.7103 97.6193 12.7896C97.083 12.0607 96.202 11.6387 95.321 11.6387C94.4017 11.6387 93.559 12.0607 93.0227 12.7896C92.3715 13.787 92.0268 14.9762 92.0651 16.1655H92.18Z" fill="white"/>
<path d="M103.901 5.9993C103.901 5.57731 104.055 5.15532 104.361 4.84842C104.706 4.54151 105.127 4.38806 105.587 4.38806C106.047 4.3497 106.506 4.50315 106.813 4.84842C107.119 5.15532 107.272 5.57731 107.272 5.9993C107.272 6.42129 107.119 6.80492 106.813 7.11183C106.468 7.41873 106.047 7.57218 105.587 7.57218C105.127 7.61054 104.668 7.45709 104.361 7.11183C104.055 6.84329 103.901 6.42129 103.901 5.9993ZM107.081 22.6488H104.016V9.45196H106.966L107.081 22.6488Z" fill="white"/>
<path fill-rule="evenodd" clip-rule="evenodd" d="M112.941 9.45199V10.9865C113.861 9.83562 115.316 9.18345 116.772 9.22182C119.491 9.22182 120.985 10.7947 120.985 13.9404V22.6488H118.074V14.0939C118.112 13.4417 117.921 12.7896 117.538 12.2525C117.078 11.7921 116.427 11.6003 115.776 11.6387C114.627 11.6003 113.592 12.2525 113.094 13.2499V22.6488H110.222V9.45199H112.941Z" fill="white"/>
</svg>
