<svg width="119" height="30" viewBox="0 0 119 30" fill="none" xmlns="http://www.w3.org/2000/svg">
<path fill-rule="evenodd" clip-rule="evenodd" d="M6.51289 16.2082V18.409C6.51289 21.4727 6.4999 24.5379 6.52299 27.6017C6.52877 28.2987 6.3527 28.6624 5.57053 28.6408C4.10978 28.609 2.64854 28.6076 1.18774 28.6364C0.542656 28.6451 0.324743 28.3767 0.326187 27.7388C0.340618 20.8984 0.340618 14.0579 0.330516 7.21747C0.330516 6.30829 0.795204 5.66466 1.43451 5.12348C3.23987 3.59521 6.32095 4.11329 7.4769 6.17264C9.05857 8.99541 10.4786 11.9033 11.8785 14.8213C12.0617 15.2009 12.2724 15.5674 12.4759 15.9484C12.8944 15.7594 12.7169 15.4318 12.7184 15.1937C12.7328 12.1645 12.7285 9.13683 12.7285 6.1077C12.7285 4.69487 12.7285 4.69343 14.1932 4.69343C15.2972 4.69343 16.407 4.7627 17.5052 4.67323C18.5674 4.58664 18.9224 4.90124 18.9022 6.01823C18.8315 9.86417 18.8748 13.713 18.8748 17.5604C18.8748 20.2316 18.8791 22.9043 18.8748 25.577C18.8704 27.1385 18.0753 28.3608 16.7678 28.8442C15.3708 29.3594 13.9854 28.9568 12.9377 27.7316C12.3302 27.0216 11.8929 26.2047 11.47 25.3822C9.89415 22.3155 8.32546 19.2431 6.75534 16.175L6.51289 16.2082ZM32.3839 14.1705C31.6098 13.7607 30.7103 13.6554 29.8625 13.8752C29.0146 14.095 28.2796 14.624 27.802 15.3582C26.6157 17.1621 26.6864 19.7467 27.9694 21.4915C29.0806 22.9995 31.1414 23.4195 32.9612 22.493C34.0724 21.9287 34.895 21.0672 35.5242 19.9964C36.4911 18.3483 36.2068 18.5562 37.8332 19.3513C38.7582 19.8045 39.6703 20.2894 40.5896 20.7526C41.0658 20.9922 41.2996 21.2779 41.034 21.8551C38.7957 26.7214 34.3177 29.9814 28.3864 28.9265C26.7577 28.6408 25.2558 27.8626 24.083 26.6969C21.1491 23.8019 19.7046 20.3211 20.8259 16.2313C21.9977 11.9596 24.8551 9.18157 29.2826 8.45423C32.4792 7.92893 35.3366 8.95211 37.6167 11.3419C38.4321 12.1963 39.0598 13.1935 39.7092 14.1734C40.0541 14.6929 39.9863 15.0364 39.4509 15.4044C36.693 17.2983 33.9509 19.2154 31.2251 21.1552C30.5684 21.6242 30.1514 21.6661 29.7257 20.8854C29.2456 20.0121 28.71 19.1705 28.1223 18.3657C27.6706 17.7422 27.8265 17.3555 28.4052 16.9774C29.4789 16.2774 30.5425 15.5631 31.6003 14.8386C31.8803 14.6467 32.2555 14.55 32.3839 14.1705ZM54.6774 18.7625C54.6428 16.3424 53.4046 14.9281 51.3481 14.9628C49.371 14.9959 47.7994 16.7493 47.8168 18.9025C47.8326 21.0095 49.3407 22.5883 51.3207 22.5724C52.8836 22.5594 54.9675 21.3775 54.6774 18.7625ZM51.1706 29.0607C46.5482 29.6293 41.1755 24.6014 41.2245 18.6846C41.2678 13.2296 45.7026 8.29982 51.3293 8.36331C57.3761 8.43114 61.4327 13.5081 61.3331 19.1291C61.2177 25.5135 55.5721 29.5052 51.1706 29.0607ZM76.8396 15.706C76.8396 13.7462 76.8627 11.7864 76.8266 9.82809C76.8136 9.13395 77.0575 8.88717 77.743 8.9016C79.2741 8.93191 80.8067 8.93912 82.3379 8.89727C83.1042 8.87707 83.2947 9.18879 83.2904 9.90746C83.2615 13.4706 83.2687 17.0322 83.2831 20.5939C83.2875 21.7426 83.9484 22.5161 84.9283 22.6099C85.8765 22.6994 86.6889 21.9922 86.9011 20.8897C86.9271 20.7512 86.9444 20.6083 86.9501 20.4654C86.9862 19.5072 87.0425 18.546 87.0468 17.5864C87.0613 15.058 87.0757 12.5282 87.0411 9.99983C87.031 9.19744 87.2691 8.84388 88.1234 8.87274C89.581 8.92181 91.0443 8.90449 92.5048 8.87707C93.2321 8.86408 93.5871 9.04591 93.5784 9.89303C93.5351 13.6336 93.6896 17.3786 93.5265 21.1119C93.3144 25.9724 89.9504 29.2829 85.4392 29.0694C84.123 29.0073 82.8127 29.078 81.5601 28.5267C78.5728 27.212 76.8742 24.4326 76.7862 20.9402C76.7429 19.1969 76.779 17.4507 76.779 15.706H76.8396ZM107.316 17.2602C107.316 14.0218 107.308 10.782 107.316 7.54362C107.327 3.51728 110.384 0.462171 114.41 0.44341C115.55 0.439081 116.689 0.478045 117.826 0.446296C118.481 0.427536 118.81 0.584837 118.787 1.32949C118.747 2.85894 118.746 4.38916 118.784 5.91865C118.799 6.54497 118.536 6.73258 117.962 6.71381C117.215 6.69072 116.468 6.70804 115.72 6.71381C115.287 6.7167 114.862 6.7701 114.544 7.11212C114.37 7.29289 114.247 7.51739 114.189 7.76197C114.132 8.00656 114.141 8.26216 114.217 8.50185C114.348 8.91315 114.834 8.72843 115.166 8.73564C116.09 8.75873 117.018 8.77316 117.941 8.73997C118.597 8.71544 118.807 8.98097 118.793 9.62028C118.76 11.1152 118.759 12.6106 118.79 14.1055C118.804 14.7535 118.558 15.0032 117.915 14.983C116.954 14.9541 115.99 15.0248 115.033 14.9613C114.224 14.9065 113.994 15.2066 114 15.9931C114.033 19.7655 113.977 23.5393 114.038 27.3116C114.055 28.3853 113.769 28.7591 112.662 28.6826C111.211 28.583 109.744 28.6278 108.287 28.6725C107.568 28.6941 107.262 28.4921 107.269 27.7229C107.298 24.2349 107.282 20.7483 107.282 17.2602H107.316ZM66.1402 28.6306C65.0001 28.6306 63.86 28.5975 62.7229 28.6422C62.0345 28.6711 61.756 28.4329 61.7704 27.7359C61.7993 26.3837 61.7993 25.03 61.7704 23.6778C61.756 23.0371 61.997 22.8004 62.6435 22.8148C64.1371 22.8495 65.6322 22.8249 67.1273 22.8249C67.377 22.8249 67.6266 22.8293 67.8748 22.8177C68.25 22.8004 68.618 22.6835 68.7248 22.304C68.8475 21.8624 68.4636 21.6978 68.1433 21.5391C67.0638 20.995 65.9641 20.4914 64.9106 19.9069C62.515 18.5792 61.577 16.3135 62.1009 13.2599C62.4487 11.2351 64.5398 9.30857 66.9036 8.99541C69.2371 8.68513 71.5938 8.89872 73.9403 8.87996C74.4339 8.87707 74.6518 9.11951 74.6503 9.59863C74.6474 11.0216 74.6474 12.4445 74.6503 13.8689C74.6532 14.4418 74.33 14.5688 73.822 14.5616C72.4351 14.5414 71.0468 14.5558 69.6585 14.5558C69.2256 14.5558 68.7205 14.5298 68.6079 15.0566C68.4882 15.6021 69.0048 15.7536 69.38 15.9239C70.6745 16.5156 71.943 17.1549 73.1466 17.9154C75.2074 19.2142 76.2205 21.617 75.6721 23.8929C75.0241 26.5785 73.1856 28.241 70.6182 28.5138C69.126 28.6725 67.6338 28.6364 66.1402 28.6306ZM101.042 11.0937C102.374 9.50916 103.764 8.73131 105.594 8.86552C106.308 8.91748 106.614 9.11086 106.593 9.86706C106.554 11.3253 106.553 12.7843 106.59 14.2426C106.604 14.8949 106.424 15.198 105.708 15.2442C102.858 15.4318 101.872 15.5285 101.885 19.6154C101.894 22.2477 101.855 24.8814 101.91 27.5137C101.93 28.4272 101.601 28.6754 100.741 28.6465C99.1401 28.6042 97.5387 28.6013 95.938 28.6379C95.3088 28.648 95.0504 28.4387 95.0519 27.7763C95.0696 21.7633 95.0696 15.7502 95.0519 9.73717C95.0504 9.05169 95.3752 8.8814 95.964 8.88573C97.2455 8.89439 98.5284 8.92902 99.8056 8.86985C100.746 8.82656 101.231 9.0921 101.048 10.1153C101.012 10.3202 101.044 10.5367 101.044 11.0923" fill="white"/>
</svg>
