<svg width="119" height="34" viewBox="0 0 119 34" fill="none" xmlns="http://www.w3.org/2000/svg">
<g clip-path="url(#clip0_133_843)">
<path d="M43.6931 13.2963C43.3813 13.1955 42.7231 13.1282 42.0647 13.1282C40.0899 13.1282 37.9764 14.6802 37.9764 16.5961V25.7326H33.4724V9.43101H37.8032V11.0778C38.808 9.86789 40.6441 9.09483 42.6883 9.09483C43.1995 9.09839 43.7094 9.14334 44.2129 9.22923L43.6931 13.2963ZM48.7859 0.859985C50.4144 0.859985 51.7309 2.07005 51.7309 3.64973C51.7309 5.22941 50.4145 6.43948 48.7859 6.43948C47.1573 6.43948 45.8409 5.22955 45.8409 3.64973C45.8409 2.06992 47.1576 0.859985 48.7859 0.859985ZM51.038 25.7326H46.534V9.43101H51.0378V25.7326H51.038ZM64.3427 9.09405C62.5552 9.07211 60.8156 9.65502 59.4231 10.7426V9.43088H55.0913V33.7986H59.5957V24.5901C60.8767 25.5718 62.4679 26.0944 64.1002 26.0693C66.5949 26.0693 68.9849 24.9929 70.4747 23.3122C71.7919 21.833 72.5874 19.8173 72.5874 17.5986C72.5874 12.792 68.9151 9.09405 64.3427 9.09405ZM63.7953 22.102C60.9974 22.102 59.1585 20.229 59.1585 17.6128C59.1585 14.9965 60.9974 13.1235 63.7953 13.1235C66.1835 13.1235 68.1197 15.1338 68.1197 17.6129C68.1197 20.092 66.1835 22.1022 63.7952 22.1022L63.7953 22.102ZM99.9241 25.7326H95.4199V1.86826H99.9242L99.9241 25.7326ZM118.287 23.1444C116.658 25.0267 113.991 26.0687 111.392 26.0687C106.368 26.0687 102.592 22.7077 102.592 17.5986C102.592 13.0611 105.779 9.09483 110.769 9.09483C115.411 9.09483 118.703 12.8929 118.703 17.4305C118.705 17.8472 118.67 18.2633 118.599 18.6741H106.957C107.2 20.9598 109.106 22.5394 111.496 22.5394C113.402 22.5394 114.926 21.4975 115.723 20.6573L118.287 23.1444ZM114.095 15.4811C113.956 14.0358 112.605 12.6241 110.768 12.6241C108.898 12.6241 107.373 14.0021 107.165 15.4811H114.095ZM84.5073 9.09405C82.7198 9.07211 80.9802 9.65502 79.5877 10.7426V9.43088H75.2559V33.7986H79.7604V24.5901C81.0414 25.5718 82.6325 26.0943 84.2648 26.0693C86.7596 26.0693 89.1495 24.9929 90.6394 23.3122C91.9566 21.833 92.752 19.8173 92.752 17.5986C92.752 12.792 89.0798 9.09405 84.5073 9.09405ZM83.9599 22.102C81.1621 22.102 79.3232 20.229 79.3232 17.6128C79.3232 14.9965 81.1621 13.1235 83.9599 13.1235C86.3481 13.1235 88.2843 15.1338 88.2843 17.6129C88.2843 20.092 86.3481 22.1022 83.9599 22.1022V22.102Z" fill="white"/>
<path d="M24.1872 19.7935C23.1703 19.2239 22.025 19.0587 20.8908 19.0203C19.9391 18.988 18.5192 18.3964 18.5192 16.7169C18.5192 15.4655 19.5649 14.4584 20.8911 14.4134C22.0255 14.375 23.1706 14.2097 24.1872 13.6402C25.1005 13.1287 25.8588 12.393 26.3861 11.5071C26.9133 10.6211 27.1909 9.61612 27.1909 8.59311C27.1909 7.5701 26.9133 6.56512 26.386 5.67918C25.8587 4.79323 25.1003 4.05755 24.1871 3.54606C23.2739 3.03458 22.2379 2.76532 21.1834 2.76535C20.1289 2.76538 19.093 3.0347 18.1798 3.54623C17.2665 4.05777 16.5082 4.7935 15.981 5.67947C15.4538 6.56545 15.1762 7.57045 15.1763 8.59345C15.1763 9.72262 15.5901 10.7617 16.1183 11.7254C16.5627 12.536 16.7873 14.0404 15.2637 14.8937C14.1303 15.5286 12.7158 15.1266 12.0093 14.0296C11.4124 13.103 10.6921 12.2349 9.68327 11.6698C8.77006 11.1584 7.73417 10.8891 6.67972 10.8892C5.62526 10.8892 4.58939 11.1585 3.67621 11.67C2.76303 12.1815 2.00472 12.9171 1.4775 13.8031C0.950281 14.689 0.672722 15.6939 0.672722 16.7169C0.672722 17.7398 0.950281 18.7448 1.4775 19.6307C2.00472 20.5166 2.76303 21.2522 3.67621 21.7637C4.58939 22.2752 5.62526 22.5445 6.67972 22.5446C7.73417 22.5446 8.77006 22.2753 9.68327 21.7639C10.6918 21.1989 11.4123 20.3315 12.0087 19.4054C12.4985 18.645 13.7216 17.6758 15.2637 18.5402C16.3954 19.1745 16.7453 20.5643 16.1179 21.7091C15.5897 22.6727 15.1763 23.7115 15.1763 24.8404C15.1763 25.8634 15.4538 26.8683 15.9811 27.7543C16.5083 28.6402 17.2666 29.3759 18.1798 29.8874C19.0931 30.3989 20.129 30.6682 21.1834 30.6682C22.2379 30.6682 23.2738 30.3989 24.187 29.8874C25.1002 29.3759 25.8586 28.6402 26.3858 27.7543C26.913 26.8684 27.1906 25.8634 27.1906 24.8404C27.1906 23.8174 26.913 22.8125 26.3858 21.9266C25.8585 21.0406 25.1002 20.305 24.187 19.7935H24.1872Z" fill="white"/>
</g>
<defs>
<clipPath id="clip0_133_843">
<rect width="118.03" height="32.9386" fill="white" transform="translate(0.672615 0.859985)"/>
</clipPath>
</defs>
</svg>
