<svg width="114" height="56" viewBox="0 0 114 56" fill="none" xmlns="http://www.w3.org/2000/svg">
<path d="M0.529175 12.3028C0.529175 5.97025 5.66279 0.83667 11.9954 0.83667H102.005C108.337 0.83667 113.471 5.97025 113.471 12.3028V44.4081C113.471 50.7407 108.337 55.8743 102.005 55.8743H11.9954C5.66279 55.8743 0.529175 50.7407 0.529175 44.4081V12.3028Z" fill="#261939"/>
<path d="M98.7938 20.3627C98.7074 18.9513 98.2177 17.5112 97.2384 16.4454C96.1727 15.2357 94.6461 14.602 93.0619 14.4004H69.0975C65.5835 14.8036 62.4151 17.1655 60.8885 20.3627V20.3915C45.8531 20.3915 30.8178 20.3915 15.8112 20.3915C13.3917 20.3915 11.1739 22.3213 10.6843 24.6832C10.1658 26.7859 9.56088 28.8309 9.12883 30.9335V31.9993C9.24404 32.777 9.58967 33.5547 10.1369 34.1019C10.9146 34.8508 11.9803 35.11 13.046 35.11C27.5918 35.11 42.1663 35.11 56.712 35.11C56.7985 36.5502 57.3458 37.9616 58.3539 39.0273C59.362 40.1218 60.8885 40.7555 62.3863 40.9283H86.0915C89.692 40.6403 92.9755 38.2784 94.6461 35.11L98.7938 20.3627Z" fill="#2185C7"/>
<path d="M99.9171 18.5481C100.119 18.6633 100.32 18.7785 100.551 18.8649C100.781 18.9513 101.012 18.9513 101.242 18.9225C101.559 18.8937 101.847 18.7785 102.077 18.5769C102.279 18.4329 102.452 18.2312 102.567 18.0296C102.74 17.7128 102.826 17.3959 102.797 17.0503C102.797 16.8199 102.711 16.5318 102.596 16.3302C102.509 16.1286 102.365 15.927 102.193 15.7829C101.962 15.5813 101.703 15.4373 101.415 15.3797C101.213 15.3509 101.04 15.3221 100.868 15.3509C100.58 15.3797 100.32 15.4661 100.09 15.5813C99.8595 15.7253 99.6291 15.927 99.4562 16.1862C99.3122 16.4166 99.2258 16.7335 99.197 17.0215C99.1682 17.3671 99.2547 17.7128 99.4275 18.0008C99.5715 18.2024 99.7443 18.4041 99.9171 18.5481ZM99.6003 16.9639C99.6291 16.7046 99.7155 16.4454 99.8884 16.2726C100.061 16.071 100.263 15.8982 100.522 15.8117C100.637 15.7541 100.781 15.7253 100.925 15.7253C101.127 15.6965 101.329 15.7253 101.473 15.8117C101.703 15.8982 101.933 16.0422 102.106 16.215C102.308 16.4166 102.423 16.6758 102.452 16.9351C102.481 17.1655 102.481 17.4535 102.365 17.6552C102.279 17.8568 102.193 18.0008 102.049 18.1448C101.933 18.26 101.76 18.3752 101.588 18.4617C101.357 18.5481 101.098 18.5769 100.839 18.5769C100.522 18.5481 100.263 18.4041 100.061 18.2024C99.8595 18.0296 99.7443 17.7992 99.6579 17.5688C99.6003 17.3383 99.5715 17.1367 99.6003 16.9639ZM100.695 18.0296C100.695 17.7992 100.695 17.5688 100.695 17.3095C100.752 17.3095 100.81 17.3095 100.896 17.3095C100.925 17.3095 100.983 17.3383 101.012 17.3383C101.04 17.3671 101.098 17.3959 101.098 17.4535C101.127 17.5111 101.156 17.5688 101.184 17.6264C101.242 17.7416 101.3 17.8856 101.386 18.0296C101.559 18.0296 101.732 18.0296 101.905 18.0296C101.818 17.8568 101.732 17.684 101.645 17.5111C101.617 17.4247 101.559 17.3095 101.473 17.2519C101.415 17.1943 101.357 17.1655 101.3 17.1655C101.328 17.1367 101.357 17.1367 101.386 17.1367C101.472 17.1079 101.559 17.0215 101.588 16.9351C101.616 16.8487 101.645 16.7911 101.645 16.7047C101.645 16.6182 101.645 16.5606 101.616 16.4742C101.588 16.4166 101.559 16.359 101.53 16.3302C101.444 16.2438 101.329 16.215 101.213 16.1862C101.127 16.1574 101.012 16.1574 100.896 16.1574C100.666 16.1574 100.407 16.1574 100.176 16.1574C100.176 16.7911 100.176 17.4247 100.176 18.0296C100.378 18.0296 100.551 18.0296 100.695 18.0296ZM100.695 16.4742C100.752 16.4742 100.81 16.4742 100.896 16.4742C100.983 16.4742 101.04 16.4742 101.098 16.503C101.127 16.5318 101.184 16.5606 101.184 16.5894C101.213 16.647 101.213 16.7046 101.213 16.7335C101.213 16.7911 101.184 16.8487 101.127 16.8487C101.069 16.8775 101.012 16.9063 100.925 16.9063C100.839 16.9063 100.781 16.9063 100.695 16.9063C100.695 16.7911 100.695 16.647 100.695 16.4742Z" fill="#2185C7"/>
<path d="M94.5885 35.0524C96.2303 34.966 97.9585 35.2828 99.5715 34.7643C101.386 34.1595 102.797 32.6041 103.229 30.7319C103.748 28.6868 104.382 26.6706 104.871 24.6255V23.5598C104.699 22.4077 104.036 21.342 102.999 20.8235C101.703 20.1322 100.205 20.4491 98.7938 20.3627L94.5885 35.0524Z" fill="#2185C7"/>
<path d="M19.3541 29.4933C18.634 29.5509 17.8563 29.5221 17.165 29.5221C16.9346 30.2422 16.7042 30.9623 16.5025 31.6824C15.7537 31.6824 15.0047 31.6824 14.2558 31.6824C15.1487 28.7732 16.0992 25.8353 16.9921 22.8973C18.5187 22.9261 20.0453 22.8685 21.5719 22.8973C22.4072 22.9261 23.0985 23.7038 22.9833 24.5679C22.8681 25.4896 22.4648 26.3537 22.2344 27.2178C21.8599 28.4564 20.6502 29.4357 19.3541 29.4933ZM21.7448 31.6824C22.6377 28.7732 23.5881 25.8353 24.481 22.9261C25.2299 22.8973 25.9789 22.8973 26.7565 22.9261C26.0941 25.1152 25.3739 27.3042 24.7114 29.4933C25.4315 29.4933 26.1228 29.4933 26.8141 29.4933C27.0445 28.7444 27.275 27.9955 27.5054 27.2754C28.2543 27.2754 29.0032 27.2754 29.7521 27.2754C29.2913 28.7444 28.8304 30.2422 28.3695 31.6824C26.1517 31.6824 23.9626 31.6824 21.7448 31.6824ZM37.9034 25.1728C37.241 27.333 36.5209 29.5221 35.8584 31.6824C35.1095 31.6824 34.3606 31.6824 33.6118 31.6824C33.8422 30.9623 34.0726 30.2422 34.2742 29.5221C33.5541 29.5221 32.8628 29.5221 32.1715 29.5221C31.9411 30.2422 31.7107 30.9623 31.5091 31.6824C30.7602 31.6824 30.0113 31.6824 29.2624 31.6824C29.9249 29.5509 30.6162 27.3907 31.2787 25.2592C31.6531 23.963 32.9204 22.8685 34.303 22.9261C35.1095 22.9261 35.9448 22.8973 36.7225 22.9549C37.7594 23.0413 38.2779 24.2511 37.9034 25.1728ZM44.9027 27.2466C44.4994 28.514 43.2897 29.3781 41.9935 29.5221C41.7631 30.2422 41.5327 30.9335 41.331 31.6536C40.5822 31.6536 39.8333 31.6536 39.0844 31.6536C39.3148 30.9335 39.5452 30.2422 39.7469 29.5221C39.286 29.4069 38.7387 29.2917 38.4507 28.8596C38.0762 28.3412 38.1338 27.6499 38.3355 27.0738C38.7675 25.6912 39.1996 24.3087 39.6317 22.8973C40.3805 22.8685 41.1294 22.8685 41.9071 22.8685C41.4463 24.3375 40.9566 25.7777 40.5245 27.2754C41.2158 27.2754 41.9359 27.2754 42.6272 27.2754C43.0881 25.8065 43.5489 24.3087 44.0097 22.8685C44.7586 22.8685 45.5076 22.8685 46.2564 22.8685C45.8244 24.3375 45.3923 25.8065 44.9027 27.2466ZM47.495 23.1277C48.4743 23.1277 49.4536 23.1277 50.4329 23.1277C50.1449 23.9919 49.8281 24.8271 49.5688 25.6912C48.5895 25.6912 47.6102 25.6912 46.6597 25.6912C46.9189 24.8271 47.2069 23.9919 47.495 23.1277ZM55.6463 27.9379C55.3007 29.1765 54.9262 30.415 54.5518 31.6824C53.8029 31.6824 53.054 31.6824 52.3052 31.6824C52.6796 30.3286 53.0828 29.0324 53.4572 27.7075C52.7371 27.7075 52.0459 27.7075 51.3546 27.7075C50.9514 29.0036 50.5769 30.3574 50.2025 31.6824C49.4536 31.6824 48.7047 31.6824 47.9558 31.6824C48.3303 30.415 48.6759 29.1477 49.0503 27.8803C49.396 26.5266 50.6921 25.4896 52.0746 25.5184C52.8523 25.4896 53.6012 25.4896 54.3789 25.5472C54.8974 25.576 55.3871 25.8353 55.6175 26.2961C55.9056 26.7858 55.7903 27.3906 55.6463 27.9379Z" fill="white"/>
<path d="M68.7518 38.5089C66.822 38.5377 64.8634 38.5377 62.9624 38.5377C61.695 38.5665 60.3701 37.9904 59.65 36.8671C58.9299 35.7725 58.9011 34.3324 59.3043 33.0938C60.3989 29.6086 61.4934 26.1522 62.5879 22.667C63.5096 19.2394 66.9084 16.5607 70.48 16.7335C73.706 16.7623 76.9032 16.7335 80.1291 16.7623C79.5819 18.5769 79.0058 20.3627 78.4297 22.1485C75.0597 22.1485 71.6322 22.1773 68.2334 22.1485C67.0813 25.8066 65.9291 29.4646 64.777 33.1226C66.5916 33.1226 68.3486 33.1226 70.1344 33.1226C70.4224 32.1721 70.7105 31.2504 70.9986 30.2999C70.1056 30.2999 69.184 30.2999 68.2911 30.2999C68.8383 28.5141 69.4144 26.7283 69.9616 24.9425C72.5827 24.9425 75.175 24.9425 77.7961 24.9425C76.932 27.7076 76.0679 30.4727 75.175 33.2666C74.2533 36.003 71.7186 38.336 68.7518 38.5089ZM93.0331 32.5177C92.0826 36.003 88.655 38.6529 85.0258 38.5377C83.4128 38.5089 81.771 38.5665 80.1868 38.5089C78.9482 38.4513 77.7385 37.8752 77.0473 36.8383C76.2696 35.7149 76.2119 34.246 76.6152 32.9786C77.7385 29.407 78.8618 25.8354 79.9564 22.2925C80.7628 19.4698 83.2112 17.2519 86.0339 16.5607C87.7333 16.2438 89.4903 16.4743 91.2185 16.4455C92.5434 16.4167 94.0412 16.3878 95.1357 17.2808C96.5183 18.3177 96.8351 20.2475 96.3743 21.8317C95.2798 25.3745 94.1565 28.9461 93.0331 32.5177Z" fill="#ED1F24"/>
<path d="M85.6882 22.1773C84.5649 25.8353 83.4128 29.4933 82.2895 33.1226C83.9313 33.1226 85.5731 33.1226 87.2149 33.1226C88.367 29.4933 89.4903 25.8353 90.6136 22.1773C89.0006 22.1773 87.3588 22.1773 85.6882 22.1773ZM17.8562 27.3043C18.5763 27.3043 19.2676 27.3043 19.9589 27.3043C20.1893 26.5842 20.4198 25.8353 20.6502 25.1152C19.9301 25.1152 19.2388 25.1152 18.5187 25.1152C18.2595 25.8353 18.0578 26.5554 17.8562 27.3043ZM32.8917 27.3043C33.5829 27.3043 34.303 27.3043 34.9943 27.3043C35.2247 26.5842 35.4551 25.8353 35.6855 25.1152C34.9943 25.1152 34.2741 25.1152 33.5829 25.1152C33.3236 25.8353 33.0933 26.5554 32.8917 27.3043Z" fill="#2185C7"/>
</svg>
