<svg width="114" height="56" viewBox="0 0 114 56" fill="none" xmlns="http://www.w3.org/2000/svg">
<path d="M0.717773 11.4662C0.717773 5.13358 5.85135 0 12.1839 0H102.193C108.526 0 113.66 5.13358 113.66 11.4662V43.5714C113.66 49.904 108.526 55.0376 102.193 55.0376H12.1839C5.85135 55.0376 0.717773 49.904 0.717773 43.5714V11.4662Z" fill="#261939"/>
<path d="M17.8623 17.5242C18.7181 17.1929 19.6291 16.9445 20.5401 16.8064C20.7057 18.6008 21.2302 20.3399 22.0584 21.9135C22.8865 20.3123 23.411 18.5732 23.6043 16.8064C24.5152 16.9445 25.4262 17.1653 26.282 17.5242C26.0888 18.9873 25.7299 20.4228 25.1778 21.7754C26.6409 21.2233 27.9659 20.3399 29.0426 19.1253C29.7879 19.705 30.4504 20.3675 31.0302 21.1129C29.1806 23.1557 26.7789 24.5084 24.1288 25.0053C24.9293 25.8611 25.8127 26.634 26.7789 27.2689C28.4076 25.6402 30.3952 24.398 32.5485 23.6802C32.9349 24.536 33.211 25.447 33.4043 26.358C31.9412 26.8272 30.5885 27.6002 29.429 28.594C30.7817 29.0633 32.162 29.3394 33.5975 29.3946C33.5423 30.3332 33.3766 31.2717 33.1006 32.1827C28.8769 31.9067 24.9017 29.9743 22.0308 26.772C19.1598 29.9743 15.1846 31.9343 10.9609 32.1827C10.6849 31.2717 10.5192 30.3332 10.464 29.3946C11.8995 29.3394 13.3074 29.0633 14.6601 28.5388C13.473 27.545 12.1204 26.772 10.6849 26.2751C10.8781 25.3642 11.1542 24.4808 11.5406 23.625C13.6939 24.3428 15.6815 25.585 17.3102 27.2137C18.2764 26.5788 19.1598 25.8058 19.9879 24.9225C17.3378 24.4532 14.9085 23.0729 13.1142 21.0025C13.6939 20.2571 14.3564 19.5946 15.1018 19.0149C16.1508 20.2295 17.4758 21.1129 18.9665 21.665C18.4144 20.3675 18.0556 18.9597 17.8623 17.5242ZM16.7581 31.2165C17.6139 30.8301 18.4144 30.3884 19.1874 29.8639C20.1536 31.1337 21.1198 32.4312 22.0308 33.701C22.997 32.4312 23.9631 31.1613 24.8741 29.8639C25.6471 30.3884 26.4753 30.8301 27.3034 31.2165C26.006 33.0109 24.6533 34.7224 23.3834 36.4892C23.3834 37.8143 23.3834 39.1393 23.3834 40.4644C22.4724 40.5748 21.5615 40.5748 20.6505 40.4644V36.4892L16.7581 31.2165Z" fill="#F96432"/>
<path d="M91.1551 24.1219C91.928 23.625 92.8942 23.4318 93.7776 23.5974C94.6334 23.7078 95.434 24.0667 96.1241 24.6188L95.1855 26.0267C94.4954 25.447 93.612 25.1709 92.7286 25.1985C92.3146 25.2538 91.9005 25.5574 91.9557 25.9991C92.0109 26.4408 92.2869 26.6064 92.5906 26.7168C93.5844 27.1033 94.6886 27.1861 95.572 27.8763C96.483 28.7044 96.6486 30.0847 95.9585 31.1061C95.5168 31.7411 94.8266 32.1275 94.0537 32.238C92.5078 32.4588 90.9618 31.9895 89.83 30.9129L90.879 29.5878C91.5139 30.1675 92.2869 30.5264 93.1151 30.6092C93.5567 30.6921 94.0261 30.5816 94.4126 30.278C94.5506 30.1123 94.6334 29.8639 94.5782 29.643C94.523 29.4222 94.4126 29.229 94.1917 29.1185C93.1427 28.5664 91.8728 28.5664 90.9066 27.7935C90.3821 27.3518 90.1337 26.6892 90.1613 25.9991C90.1613 25.3366 90.5477 24.5636 91.1551 24.1219ZM48.6425 24.1219C49.6916 23.5698 50.9338 23.4594 52.0656 23.7631C52.7834 23.9287 53.4459 24.2876 53.998 24.7845L52.8386 26.2199C52.3141 25.6954 51.6239 25.3918 50.9062 25.3642C50.1608 25.309 49.3879 25.6126 48.9186 26.2199C47.98 27.407 48.0904 29.1461 49.167 30.1951C50.1332 30.9681 51.4859 31.0233 52.5073 30.278C52.5073 29.9743 52.5073 29.6706 52.5073 29.367H51.6515C51.6515 28.8977 51.6515 28.4008 51.6515 27.9039H54.2465V31.1337C53.1146 32.1551 51.5963 32.6244 50.1056 32.4588C49.0014 32.3484 47.98 31.7963 47.2898 30.9129C46.4893 29.8363 46.1856 28.456 46.4617 27.1309C46.7653 25.8059 47.5383 24.7292 48.6425 24.1219ZM57.4763 24.26C58.6081 23.5974 59.9608 23.4042 61.2031 23.7354C61.8932 23.9011 62.5557 24.26 63.0802 24.7292C62.6938 25.1985 62.3073 25.6678 61.9484 26.1371C61.3963 25.6126 60.7062 25.309 59.9608 25.2814C59.1603 25.2261 58.3597 25.6126 57.918 26.3028C57.0898 27.5174 57.2831 29.2014 58.3597 30.1675C59.3259 30.8577 60.6509 30.8577 61.6447 30.1675V29.2842H60.789V27.8211H63.3839C63.3839 28.8977 63.3839 29.9743 63.3839 31.0509C62.4453 31.8791 61.2306 32.3484 59.9884 32.376C58.7738 32.4312 57.6143 32.0171 56.7309 31.1613C55.8752 30.278 55.4335 29.0633 55.5163 27.8211C55.5439 26.3856 56.2893 25.0605 57.4763 24.26ZM38.4285 23.7354C39.1462 23.7354 39.8363 23.7354 40.5541 23.7354C41.189 25.0053 41.8792 26.2752 42.5417 27.545L44.5293 23.7354H46.5721C45.5231 25.6678 44.4465 27.6002 43.3975 29.5326C43.3975 30.4436 43.3975 31.3546 43.3975 32.2656H41.6031C41.6031 31.3546 41.6031 30.4436 41.6031 29.5602C40.5541 27.6002 39.4775 25.6954 38.4285 23.7354ZM64.8194 23.7354H67.6075C69.1535 23.6526 70.6166 24.4532 71.4724 25.7783C72.1625 26.9929 72.2453 28.4836 71.6932 29.7811C71.0306 31.2442 69.5952 32.2104 68.0216 32.2656C66.9726 32.2656 65.896 32.2656 64.8194 32.2656C64.8194 29.4222 64.8194 26.5788 64.8194 23.7354ZM66.6413 25.3918C66.6413 27.1033 66.6413 28.8425 66.6413 30.554C67.4695 30.554 68.3529 30.6368 69.0706 30.1675C69.7884 29.643 70.1749 28.8425 70.1749 27.9591C70.1749 27.0757 69.7332 26.2476 69.043 25.7507C68.3253 25.3366 67.4695 25.4194 66.6413 25.3918ZM73.2391 23.7354C74.4813 23.7354 75.7512 23.7354 76.9658 23.7354C78.0148 23.7078 78.981 24.26 79.5332 25.1709C80.0853 26.3028 79.892 27.683 79.0639 28.594C78.7878 28.8701 78.4289 29.0633 78.0977 29.2013L80.1129 32.238H77.9872C77.4075 31.327 76.8278 30.416 76.2205 29.505H75.7512V27.8487C76.3585 27.8211 77.0487 27.9867 77.5732 27.6002C77.9044 27.3518 78.0976 26.9377 78.0424 26.496C77.9872 26.0543 77.7388 25.6954 77.3523 25.5298C76.607 25.3918 75.834 25.3366 75.061 25.3918V32.2656H73.2667C73.2391 29.4222 73.2391 26.5788 73.2391 23.7354ZM80.6926 32.2932L84.2261 23.7078H85.8824L89.4159 32.2932H87.4836C87.2351 31.6306 86.9591 30.9957 86.7382 30.3608H83.9776L84.6126 28.7321H86.0757L84.9714 25.9439C84.1433 28.0695 83.3151 30.1675 82.4593 32.2932H80.6926ZM97.808 23.7354H99.6024V32.2656H97.808V23.7354ZM101.093 23.7354H102.915C102.915 26.0267 102.915 28.2904 102.915 30.5816H106.78V32.2932H101.093C101.093 29.4222 101.093 26.5788 101.093 23.7354Z" fill="white"/>
</svg>
