<svg width="57" height="58" viewBox="0 0 57 58" fill="none" xmlns="http://www.w3.org/2000/svg">
<path fill-rule="evenodd" clip-rule="evenodd" d="M28.533 0.560547C44.2554 0.560547 56.947 13.2522 56.947 28.9746C56.947 44.6971 44.2554 57.3887 28.533 57.3887C12.8105 57.3887 0.118896 44.6971 0.118896 28.9746C0.118896 13.2522 12.8105 0.560547 28.533 0.560547ZM28.533 3.21253C42.74 3.21253 54.295 14.7676 54.295 28.9746C54.295 43.1816 42.74 54.7367 28.533 54.7367C14.3259 54.7367 2.77088 43.1816 2.77088 28.9746C2.77088 14.7676 14.3259 3.21253 28.533 3.21253ZM28.533 5.8645C41.3193 5.8645 51.6431 16.1883 51.6431 28.9746C51.6431 41.7609 41.3193 52.0847 28.533 52.0847C15.7466 52.0847 5.42285 41.7609 5.42285 28.9746C5.42285 16.1883 15.7466 5.8645 28.533 5.8645ZM17.6409 38.0671H14.2312V25.1861C12.9999 26.4173 11.5792 27.2698 9.87439 27.838V24.7125C10.8215 24.4284 11.7687 23.8601 12.8105 23.1024C13.8524 22.2499 14.5154 21.3028 14.8942 20.261H17.6409V38.0671ZM25.6915 28.501C24.8391 28.1222 24.1761 27.5539 23.7973 26.9856C23.3237 26.3226 23.1343 25.5649 23.1343 24.8072C23.1343 23.4812 23.6079 22.4394 24.555 21.4922C25.5021 20.6398 26.7334 20.261 28.4382 20.261C30.1431 20.261 31.4691 20.6398 32.4162 21.4922C33.3633 22.4394 33.7422 23.4812 33.7422 24.8072C33.7422 25.6596 33.5528 26.3226 33.1739 26.9856C32.7004 27.6486 32.1321 28.1222 31.3744 28.501C32.3215 28.8799 33.0792 29.4482 33.5528 30.2059C34.1211 30.9636 34.3105 31.816 34.3105 32.8579C34.3105 34.468 33.8369 35.794 32.7951 36.8358C31.7532 37.8777 30.3325 38.3512 28.6277 38.3512C27.0175 38.3512 25.6915 37.9724 24.6497 37.12C23.3237 36.0781 22.7554 34.7521 22.7554 32.9526C22.7554 32.0054 22.9449 31.153 23.4184 30.3006C23.892 29.5429 24.6497 28.8799 25.6915 28.501ZM26.3545 25.0914C26.3545 25.7543 26.544 26.2279 26.9228 26.6068C27.3017 26.9856 27.87 27.175 28.4382 27.175C29.1012 27.175 29.6695 26.9856 30.0484 26.6068C30.4272 26.2279 30.6167 25.7543 30.6167 25.0914C30.6167 24.4284 30.4272 23.8601 30.0484 23.4812C29.6695 23.1024 29.1012 22.9129 28.533 22.9129C27.87 22.9129 27.3017 23.1024 26.9228 23.4812C26.544 23.8601 26.3545 24.4284 26.3545 25.0914ZM26.0704 32.6684C26.0704 33.6156 26.2598 34.3733 26.7334 34.8468C27.3017 35.4151 27.87 35.6993 28.533 35.6993C29.2907 35.6993 29.8589 35.4151 30.3325 34.8468C30.7114 34.3733 30.9955 33.6156 30.9955 32.6684C30.9955 31.816 30.7114 31.153 30.3325 30.6794C29.8589 30.2059 29.196 29.9217 28.533 29.9217C27.6805 29.9217 27.1123 30.2059 26.6387 30.7742C26.2598 31.3424 26.0704 32.0054 26.0704 32.6684ZM41.1299 35.5098V30.8689H36.4889V27.7433H41.1299V23.1024H44.2554V27.7433H48.8964V30.8689H44.2554V35.5098H41.1299Z" fill="#3B3648"/>
</svg>
