<svg width="26" height="26" viewBox="0 0 26 26" fill="none" xmlns="http://www.w3.org/2000/svg">
<rect x="2.16666" y="9.75" width="4.33333" height="13" rx="2.16667" fill="white"/>
<path d="M8.66666 20.3426V12.0565C8.66666 8.64263 12.3433 8.31667 14.7082 4.56151C15.1902 3.79613 16.064 3.10964 16.8449 3.56606C19.0366 4.8471 16.1516 9.6314 15.5235 10.6193C15.4743 10.6966 15.5305 10.7984 15.6221 10.7984H20.5223C22.1237 10.7984 23.2316 12.3986 22.668 13.8976L19.8981 21.2644C19.562 22.1581 18.7072 22.75 17.7524 22.75H11.1132C10.6189 22.75 10.1379 22.5903 9.74178 22.2946L9.58768 22.1795C9.00805 21.7468 8.66666 21.0659 8.66666 20.3426Z" fill="white"/>
</svg>
