<svg width="1280" height="79" viewBox="0 0 1280 79" fill="none" xmlns="http://www.w3.org/2000/svg">
<path d="M564.585 77.2918H525.674C524.962 77.2918 524.391 76.8576 524.106 76.2786C523.821 75.6997 523.964 74.976 524.249 74.397L550.332 41.2511L523.251 6.65776L496.028 41.2511L522.111 74.397C522.539 74.976 522.539 75.6997 522.254 76.2786C521.969 76.8576 521.398 77.2918 520.686 77.2918H-4.28961C-5.28732 77.2918 -5.99997 76.5681 -5.99997 75.5549C-5.99997 74.5417 -5.28732 73.818 -4.28961 73.818H517.265L492.607 42.409C492.18 41.8301 492.18 40.8169 492.607 40.2379L521.968 2.74973C522.681 1.88128 523.964 1.88128 524.677 2.74973L554.038 40.2379C554.465 40.8169 554.465 41.8301 554.038 42.409L529.38 73.818H564.728C565.725 73.818 566.438 74.5417 566.438 75.5549C566.295 76.5681 565.583 77.2918 564.585 77.2918Z" fill="#EB266F"/>
<path d="M657.087 77.2924H614.471C613.758 77.2924 613.188 76.8582 612.903 76.1344C610.907 70.9237 609.482 61.9497 608.77 55.2916C608.057 61.9497 606.632 70.9237 604.636 76.1344C604.351 76.8582 603.781 77.2924 603.068 77.2924H564.87C563.873 77.2924 563.16 76.5687 563.16 75.5555C563.16 74.5423 563.873 73.8186 564.87 73.8186H601.928C603.496 69.4763 604.494 62.8182 605.206 57.1732C602.213 63.5419 595.942 67.8842 588.53 67.8842C579.836 67.8842 572.139 61.5155 570.429 52.831C570.144 51.673 570.001 50.3704 570.001 49.2124C570.001 38.9358 578.268 30.396 588.53 30.396C590.241 30.396 591.666 30.6855 592.949 30.9749C591.523 28.3696 590.383 24.8958 590.383 20.5535C590.383 10.2768 598.65 1.73706 608.912 1.73706C619.032 1.73706 627.441 10.1321 627.441 20.5535C627.441 25.0405 626.301 28.3696 624.875 30.9749C626.158 30.6855 627.583 30.396 629.294 30.396C639.413 30.396 647.823 38.791 647.823 49.2124C647.823 50.5151 647.68 51.8178 647.395 52.9757C645.685 61.6602 637.988 68.0289 629.294 68.0289C621.882 68.0289 615.611 63.6866 612.618 57.318C613.33 62.9629 614.328 69.6211 615.896 73.9633H657.372C658.37 73.9633 659.083 74.687 659.083 75.7002C658.798 76.5687 658.085 77.2924 657.087 77.2924ZM612.333 45.8834C612.618 45.8834 612.903 46.0281 613.188 46.1729C613.758 46.4623 614.043 47.186 614.043 47.765C614.043 48.1992 614.043 48.6335 614.043 49.0677C614.043 57.4627 620.742 64.4103 629.151 64.4103C636.278 64.4103 642.549 59.1996 643.974 52.252C644.117 51.2388 644.259 50.2256 644.259 49.3572C644.259 40.8174 637.561 33.8698 629.151 33.8698C624.305 33.8698 621.597 35.8962 620.314 36.7646C619.744 37.1988 618.319 38.212 617.179 37.0541C616.894 36.7646 616.609 36.1857 616.609 35.7514C616.609 34.883 617.179 34.4488 617.891 33.725C619.602 31.9881 623.735 28.0801 623.735 20.4088C623.735 12.0137 617.036 5.06613 608.627 5.06613C600.36 5.06613 593.519 11.869 593.519 20.4088C593.519 27.9354 597.652 31.9881 599.363 33.725C600.075 34.4488 600.645 34.883 600.645 35.7514C600.645 36.1857 600.503 36.7646 600.075 37.0541C598.935 38.212 597.652 37.1988 596.939 36.7646C595.657 35.7514 592.949 33.725 588.245 33.725C579.978 33.725 573.137 40.5279 573.137 49.0677C573.137 49.0677 573.137 49.2124 573.137 49.3572C573.137 50.2256 573.279 51.2388 573.422 52.252C574.847 59.3444 581.119 64.5551 588.245 64.5551C596.512 64.5551 603.353 57.7522 603.353 49.2124C603.353 48.7782 603.353 48.344 603.353 47.9098C603.353 47.3308 603.638 46.6071 604.209 46.3176C604.779 46.0281 605.491 45.8834 605.919 46.3176C606.061 46.4623 606.346 46.6071 606.489 46.6071C607.059 46.8966 607.629 47.3308 608.199 47.4755C608.342 47.4755 608.627 47.6203 608.77 47.765C608.912 47.6203 609.055 47.4755 609.34 47.4755C609.91 47.3308 610.622 46.8966 611.192 46.4623L611.62 46.1729C611.62 46.0281 612.048 45.8834 612.333 45.8834Z" fill="#6B2068"/>
<path d="M745.313 77.2923H703.98C703.267 77.2923 702.697 76.858 702.412 76.2791C702.127 75.7001 702.269 74.8316 702.697 74.3974C707.258 69.4762 712.816 64.1207 718.945 58.6205C729.492 49.2123 738.187 40.5278 738.187 29.2379C738.187 15.9217 729.065 9.55301 720.513 9.40826C712.674 9.11878 703.695 13.1716 702.697 21.2771C702.554 22.1456 701.842 22.7245 700.986 22.7245C700.131 22.7245 699.419 22.0008 699.276 21.2771C698.278 13.1716 689.299 9.11878 681.46 9.40826C672.908 9.69775 663.786 16.0664 663.786 29.2379C663.786 40.6725 672.48 49.357 683.028 58.6205C689.156 64.1207 694.715 69.4762 699.276 74.3974C699.704 74.8316 699.846 75.7001 699.561 76.2791C699.276 76.858 698.706 77.2923 697.993 77.2923H656.802C655.804 77.2923 655.092 76.5685 655.092 75.5553C655.092 74.5422 655.804 73.8184 656.802 73.8184H694.002C690.154 69.7657 685.593 65.5682 680.747 61.2259C669.63 51.2387 660.365 41.9752 660.365 29.0932C660.365 14.1848 670.913 6.0792 681.317 5.78972C690.012 5.50023 697.566 9.40827 700.844 15.4874C704.122 9.40827 711.676 5.50023 720.371 5.78972C730.775 6.0792 741.322 14.1848 741.322 29.0932C741.322 41.9752 732.058 51.2387 720.941 61.2259C716.095 65.5682 711.534 69.7657 707.685 73.8184H744.886C745.883 73.8184 746.596 74.5422 746.596 75.5553C747.024 76.5685 746.311 77.2923 745.313 77.2923Z" fill="#EB266F"/>
<path d="M1283.71 78.3054L793.061 77.2922C792.491 77.2922 791.92 77.0027 791.493 76.4238C789.355 72.5157 788.215 66.7261 787.359 61.2259C786.504 66.7261 785.364 72.5157 783.226 76.4238C782.941 77.0027 782.371 77.2922 781.658 77.2922H745.171C744.173 77.2922 743.46 76.5685 743.46 75.5553C743.46 74.5421 744.173 73.8184 745.171 73.8184H780.661C781.943 71.2131 782.799 67.5945 783.369 63.976C779.948 66.7261 775.244 68.1735 770.113 68.1735C759.709 68.1735 751.299 59.6337 751.299 49.0675C751.299 37.1987 760.136 28.9484 770.398 19.3954C782.656 7.81607 785.792 1.01319 785.792 1.01319C786.077 0.434226 786.647 0 787.359 0C788.072 0 788.642 0.434226 788.927 1.01319C788.927 1.01319 792.063 7.96081 804.321 19.3954C814.583 28.9484 823.42 37.1987 823.42 49.0675C823.42 59.6337 815.01 68.1735 804.606 68.1735C799.475 68.1735 794.914 66.5813 791.35 63.976C792.063 67.5945 792.918 71.2131 794.058 73.8184L1283.71 74.8316C1284.71 74.8316 1285.43 75.5553 1285.43 76.5685C1285.43 77.5817 1284.57 78.3054 1283.71 78.3054ZM788.785 56.7389C789.355 56.7389 789.925 57.0283 790.21 57.6073C792.776 61.9496 798.334 64.6997 804.606 64.6997C813.157 64.6997 819.999 57.6073 819.999 49.0675C819.999 38.7909 812.017 31.2643 802.04 21.856C793.631 14.04 789.355 8.25029 787.359 5.06597C785.364 8.25029 781.088 14.04 772.679 21.856C762.702 31.2643 754.72 38.6461 754.72 49.0675C754.72 57.7521 761.704 64.6997 770.113 64.6997C776.385 64.6997 781.943 61.9496 784.509 57.6073C784.936 56.8836 785.792 56.5941 786.504 56.8836C786.789 57.0283 787.074 57.1731 787.217 57.4626C787.359 57.1731 787.645 57.0283 787.93 56.8836C788.357 56.8836 788.642 56.7389 788.785 56.7389Z" fill="#6B2068"/>
</svg>
