<svg width="35" height="53" viewBox="0 0 35 53" fill="none" xmlns="http://www.w3.org/2000/svg">
<path d="M30.3924 16.7335C29.8816 16.7335 29.3708 16.3504 29.3708 15.7119C29.3708 14.9457 29.3708 14.3072 29.3708 13.7964C25.9229 14.1795 20.4319 13.1579 18.8995 7.02838C18.7718 6.51759 19.0272 6.0068 19.538 5.8791C20.0488 5.7514 20.5596 6.0068 20.6873 6.51759C22.3474 13.1579 29.7539 11.7533 30.0093 11.6256C30.2647 11.6256 30.5201 11.6256 30.7755 11.7533C31.0309 11.881 31.1586 12.1364 31.1586 12.3918C31.1586 12.3918 31.2863 13.6687 31.2863 15.5842C31.2863 16.3504 30.9032 16.7335 30.3924 16.7335Z" fill="white"/>
<path d="M4.59722 16.7335C4.08642 16.7335 3.70332 16.3504 3.57562 15.8396C3.57562 13.9241 3.70333 12.7749 3.70333 12.6472C4.21413 6.3899 6.25732 2.43125 9.57749 0.771167C15.0685 -1.78281 21.9643 2.81433 22.2197 2.94203C22.6028 3.19742 22.7305 3.70825 22.6028 4.09135C22.092 5.36834 21.3258 6.3899 20.5596 7.41149C15.9624 12.6471 8.30049 13.4134 5.61881 13.5411C5.61881 14.0519 5.61881 14.8181 5.61881 15.5843C5.61881 16.3504 5.10801 16.7335 4.59722 16.7335ZM13.2808 1.92045C12.2592 1.92045 11.3653 2.04815 10.4714 2.55894C7.9174 3.83593 6.38502 6.90072 5.74652 11.7533C8.3005 11.6256 15.1962 10.7317 19.0272 6.26221C19.538 5.62371 20.0488 4.98521 20.4319 4.21901C19.1549 3.45282 16.2178 1.92045 13.2808 1.92045Z" fill="white"/>
<path d="M17.4947 38.6977C15.4515 38.6977 13.4083 38.0592 11.7482 36.7823C8.04496 33.9729 5.61868 29.3757 4.46939 23.3739C4.34169 22.8631 4.72478 22.3523 5.23557 22.2246C5.74637 22.0969 6.25718 22.48 6.38488 22.9908C7.40647 28.6095 9.70504 32.8236 13.0252 35.2499C15.7069 37.2931 19.5379 37.2931 22.2195 35.2499C25.5397 32.6959 27.7106 28.6095 28.8599 22.9908C28.9876 22.48 29.4984 22.0969 30.0092 22.2246C30.52 22.3523 30.9031 22.8631 30.7754 23.3739C29.6261 29.5034 27.1998 33.9729 23.4965 36.7823C21.581 38.0592 19.5379 38.6977 17.4947 38.6977Z" fill="white"/>
<path d="M30.2647 13.7965C29.7539 13.7965 29.3708 13.4134 29.2431 12.9026C29.1154 8.30543 27.9661 5.11296 25.5398 3.45288C21.9642 0.898897 16.8563 2.43127 16.8563 2.55897C16.3455 2.68667 15.8347 2.43127 15.707 1.92047C15.5793 1.40968 15.8347 0.898889 16.3455 0.77119C16.6009 0.643491 22.475 -1.14429 26.8168 2.04818C29.7539 4.09136 31.1586 7.79464 31.2863 13.0303C31.1586 13.2857 30.7755 13.7965 30.2647 13.7965Z" fill="white"/>
<path d="M4.59715 24.14C2.04317 24.14 0 22.0968 0 19.5428C0 16.9889 2.04317 14.818 4.59715 14.818C5.10795 14.818 5.61875 15.2011 5.61875 15.8396C5.61875 16.3504 5.23565 16.8612 4.72486 16.8612C3.19247 16.8612 2.04317 18.1381 2.04317 19.6705C2.04317 21.2029 3.32017 22.3522 4.72486 22.3522C4.98026 22.3522 5.10795 22.3522 5.23565 22.3522C5.74644 22.2245 6.25725 22.6076 6.38495 23.1184C6.51265 23.6292 6.12954 24.14 5.61875 24.2677C5.23565 24.14 4.85255 24.14 4.59715 24.14Z" fill="white"/>
<path d="M30.2646 24.1401C30.0092 24.1401 29.7538 24.1401 29.4984 24.0124C28.9876 23.8847 28.6045 23.3739 28.7322 22.8631C28.8599 22.3523 29.3707 21.9692 29.8815 22.0969C30.0092 22.0969 30.1369 22.0969 30.2646 22.0969C31.797 22.0969 32.9463 20.8199 32.9463 19.4153C32.9463 17.8829 31.797 16.7336 30.2646 16.6059C29.7538 16.6059 29.3707 16.0951 29.3707 15.5843C29.3707 15.0735 29.8815 14.5627 30.3923 14.6904C32.9463 14.8181 34.8617 16.8613 34.8617 19.4153C34.8617 22.0969 32.8186 24.1401 30.2646 24.1401Z" fill="white"/>
<path d="M19.2826 51.2123H15.5794C14.8132 51.2123 13.9193 50.8291 13.4085 50.3183C12.77 49.6798 12.5146 48.9137 12.5146 48.1475V44.4442C12.5146 43.678 12.77 42.9118 13.4085 42.2733C14.047 41.6348 14.8132 41.2517 15.7071 41.2517H19.4103C20.1765 41.2517 21.0704 41.5071 21.5812 42.1456C22.2197 42.7841 22.4751 43.5503 22.4751 44.4442V48.1475C22.4751 49.0414 22.092 49.8076 21.4535 50.446C20.9427 50.9568 20.1765 51.2123 19.2826 51.2123ZM15.5794 43.1672C15.1963 43.1672 14.9409 43.2949 14.6855 43.5503C14.4301 43.8057 14.3024 44.0611 14.3024 44.4442V48.1475C14.3024 48.5306 14.4301 48.786 14.6855 49.0414C14.8132 49.1691 15.1963 49.4245 15.5794 49.4245H19.2826C19.538 49.4245 19.9211 49.2968 20.1765 49.0414C20.4319 48.786 20.5596 48.5306 20.5596 48.1475V44.4442C20.5596 44.1888 20.4319 43.8057 20.1765 43.5503C19.9211 43.2949 19.6657 43.1672 19.2826 43.1672H15.5794Z" fill="white"/>
<path d="M27.4552 53C27.3275 53 27.1998 53 27.0721 53C24.2628 52.7446 21.9642 51.8507 20.1764 50.446C19.7933 50.0629 19.6656 49.5521 20.0487 49.0413C20.4318 48.6582 20.9426 48.5305 21.4534 48.9136C22.9858 50.0629 24.9013 50.8291 27.3275 51.0845C27.7106 51.0845 27.966 50.9568 28.2214 50.8291C28.4768 50.5737 28.6045 50.3183 28.6045 49.9352V42.7841C28.6045 42.401 28.4768 42.1456 28.2214 41.8902C27.966 41.6348 27.5829 41.5071 27.3275 41.6348C24.9013 41.8902 22.9858 42.6564 21.4534 43.8056C21.0703 44.1887 20.4318 44.0611 20.0487 43.678C19.6656 43.2949 19.7933 42.6564 20.1764 42.2733C21.9642 40.8686 24.2628 40.1024 27.0721 39.7193C27.966 39.5916 28.8599 39.847 29.4984 40.4855C30.1369 41.124 30.52 41.8902 30.52 42.7841V49.9352C30.52 50.8291 30.1369 51.723 29.4984 52.2338C28.9876 52.7446 28.2214 53 27.4552 53Z" fill="white"/>
<path d="M7.40656 53C6.64037 53 5.87419 52.7446 5.36339 52.2338C4.7249 51.5953 4.3418 50.8291 4.3418 49.9352V42.7841C4.3418 41.8902 4.7249 40.9963 5.36339 40.4855C6.00189 39.847 6.89577 39.5916 7.78966 39.7193C10.599 39.9747 12.8976 40.8686 14.6854 42.2733C15.0685 42.6564 15.1962 43.1672 14.8131 43.678C14.43 44.0611 13.9192 44.1887 13.4084 43.8056C11.876 42.6564 9.96054 41.8902 7.40656 41.6348C7.02347 41.6348 6.76807 41.7625 6.51268 41.8902C6.25728 42.1456 6.12957 42.401 6.12957 42.7841V49.9352C6.12957 50.3183 6.25728 50.5737 6.51268 50.8291C6.76807 51.0845 7.15117 51.2122 7.40656 51.0845C9.83284 50.8291 11.876 50.0629 13.4084 48.9136C13.7915 48.5305 14.43 48.6582 14.8131 49.0413C15.1962 49.4244 15.0685 50.0629 14.6854 50.446C12.8976 51.8507 10.599 52.7446 7.78966 53C7.66197 53 7.53426 53 7.40656 53Z" fill="white"/>
</svg>
