<svg width="28" height="28" viewBox="0 0 28 28" fill="none" xmlns="http://www.w3.org/2000/svg">
<path fill-rule="evenodd" clip-rule="evenodd" d="M14 25.6667C20.4433 25.6667 25.6667 20.4433 25.6667 14C25.6667 7.55668 20.4433 2.33333 14 2.33333C7.55669 2.33333 2.33334 7.55668 2.33334 14C2.33334 20.4433 7.55669 25.6667 14 25.6667ZM4.66668 14C4.66668 8.84534 8.84535 4.66667 14 4.66667C19.1547 4.66667 23.3333 8.84534 23.3333 14C23.3333 19.1547 19.1547 23.3333 14 23.3333C8.84535 23.3333 4.66668 19.1547 4.66668 14Z" fill="white"/>
<path fill-rule="evenodd" clip-rule="evenodd" d="M14 21.7162C18.2615 21.7162 21.7162 18.2616 21.7162 14.0001C21.7162 9.73857 18.2615 6.28394 14 6.28394C9.73851 6.28394 6.28387 9.73857 6.28387 14.0001C6.28387 18.2616 9.73851 21.7162 14 21.7162ZM16.8058 17.5C17.2686 16.9953 17.5 16.3996 17.5 15.7128C17.5 15.1088 17.3496 14.633 17.0488 14.2855C16.7557 13.9297 16.4047 13.6732 15.9959 13.516C15.5948 13.3505 15.0857 13.1974 14.4686 13.0568C13.921 12.9327 13.5237 12.8127 13.2769 12.6968C13.03 12.581 12.9066 12.4073 12.9066 12.1756C12.9066 11.9439 13.0108 11.7577 13.219 11.6171C13.4273 11.4681 13.759 11.3937 14.2141 11.3937C14.9036 11.3937 15.6141 11.5957 16.3455 11.9998C16.4053 12.0328 16.481 12.0063 16.5056 11.9427L17.1314 10.3249C17.1506 10.2752 17.132 10.2188 17.0863 10.1916C16.7889 10.0148 16.4524 9.86937 16.0769 9.75536C15.7065 9.64075 15.3196 9.56141 14.9164 9.51736C14.8594 9.51114 14.8157 9.46332 14.8157 9.40599V8.27782C14.8157 8.21645 14.766 8.16671 14.7046 8.16671H13.5384C13.477 8.16671 13.4273 8.21645 13.4273 8.27782V9.43419C13.4273 9.49009 13.3857 9.53716 13.3304 9.54528C12.4752 9.67076 11.8172 9.98074 11.3562 10.4752C10.878 10.9799 10.6389 11.5881 10.6389 12.2997C10.6389 12.9037 10.7854 13.3836 11.0785 13.7394C11.3716 14.0952 11.7226 14.3558 12.1314 14.5213C12.5402 14.6785 13.0493 14.8275 13.6587 14.9681C14.2141 15.1005 14.6152 15.2288 14.862 15.3529C15.1165 15.4687 15.2438 15.6507 15.2438 15.899C15.2438 16.3706 14.8041 16.6064 13.9248 16.6064C13.462 16.6064 12.9915 16.5278 12.5132 16.3706C12.0847 16.2297 11.7026 16.049 11.3669 15.8284C11.3074 15.7892 11.2261 15.8126 11.1988 15.8785L10.5335 17.4814C10.5139 17.5288 10.529 17.5836 10.5712 17.6127C10.8986 17.8391 11.303 18.0333 11.7843 18.1951C12.2703 18.3507 12.7836 18.4514 13.3241 18.4973C13.3822 18.5022 13.4273 18.5505 13.4273 18.6088V19.7223C13.4273 19.7836 13.477 19.8334 13.5384 19.8334H14.7046C14.766 19.8334 14.8157 19.7836 14.8157 19.7223V18.5503C14.8157 18.4958 14.8554 18.4494 14.9091 18.4398C15.7348 18.2919 16.3671 17.9786 16.8058 17.5Z" fill="white"/>
</svg>
