<svg width="21" height="21" viewBox="0 0 21 21" fill="none" xmlns="http://www.w3.org/2000/svg">
<path fill-rule="evenodd" clip-rule="evenodd" d="M11.3396 3.04728C10.9455 2.43834 10.0546 2.43834 9.6605 3.04728L9.0487 3.99267C8.79153 4.39007 8.29095 4.55272 7.8493 4.38238L6.79866 3.97715C6.12193 3.71613 5.40114 4.23982 5.44026 4.96408L5.50099 6.08852C5.52652 6.56119 5.21714 6.98701 4.75972 7.1088L3.67155 7.39851C2.97064 7.58511 2.69532 8.43246 3.15268 8.99541L3.86274 9.8694C4.16123 10.2368 4.16123 10.7631 3.86274 11.1305L3.15268 12.0045C2.69532 12.5675 2.97064 13.4148 3.67155 13.6014L4.75972 13.8911C5.21714 14.0129 5.52652 14.4387 5.50099 14.9114L5.44026 16.0358C5.40114 16.7601 6.12193 17.2838 6.79866 17.0228L7.8493 16.6175C8.29095 16.4472 8.79153 16.6099 9.0487 17.0073L9.6605 17.9526C10.0546 18.5616 10.9455 18.5616 11.3396 17.9526L11.9514 17.0073C12.2085 16.6099 12.7091 16.4472 13.1508 16.6175L14.2014 17.0228C14.8781 17.2838 15.5989 16.7601 15.5598 16.0358L15.4991 14.9114C15.4736 14.4387 15.7829 14.0129 16.2404 13.8911L17.3285 13.6014C18.0294 13.4148 18.3048 12.5675 17.8474 12.0045L17.1373 11.1305C16.8388 10.7631 16.8388 10.2368 17.1373 9.8694L17.8474 8.99541C18.3048 8.43246 18.0294 7.58511 17.3285 7.39851L16.2404 7.1088C15.7829 6.98701 15.4736 6.56119 15.4991 6.08852L15.5598 4.96409C15.5989 4.23982 14.8781 3.71613 14.2014 3.97715L13.1508 4.38238C12.7091 4.55272 12.2085 4.39007 11.9514 3.99267L11.3396 3.04728ZM13.6554 9.28029C13.9483 8.9874 13.9483 8.51253 13.6554 8.21963C13.3625 7.92674 12.8876 7.92674 12.5947 8.21963L9.62504 11.1893L8.40537 9.96963C8.11247 9.67674 7.6376 9.67674 7.34471 9.96963C7.05181 10.2625 7.05181 10.7374 7.34471 11.0303L8.74115 12.4267C9.22931 12.9149 10.0208 12.9149 10.5089 12.4267L13.6554 9.28029Z" fill="white"/>
</svg>
